<svg xmlns="http://www.w3.org/2000/svg" viewBox="0 0 100 100" width="100" height="100" fill="none">
  <g transform="matrix(1.35911,0,0,1.3562,265.674,124.785)" style="fill:none;stroke:#FF5722;stroke-width:4.20699;stroke-linecap:round;stroke-linejoin:round;stroke-miterlimit:4;">
    <path d="M -142.125,-55.25 C -140.875,-54.666667 -139.4375,-53.9375 -139.875,-49.875 C -141.1875,-46.3125 -143.6875,-43.270833 -150,-43.5 C -155.0625,-44.729167 -160.5625,-46.166667 -160.125,-56.25 C -159.6875,-61.458333 -154.25,-68.6875 -145,-68.75 C -131.625,-68.5625 -125.0625,-56.75 -125.625,-47.625 C -126.3125,-34.625 -136.70833,-27.875 -151,-26.625 C -158.66667,-26.625 -167.5625,-30.8125 -171.625,-37.125 C -176.6875,-43.6875 -178.64583,-57.208333 -174.375,-66.125 C -169.85417,-75.666667 -161.3244,-81.672042 -151.25,-81.875 C -141.89583,-82.0625 -135.75,-78.541667 -132.25,-76.375 L -124,-84.375"/>
    <path d="M -172.625,-69.25 C -177.5736,-61.537772 -180.88532,-51.495796 -184.25,-45.375 C -186.66667,-40.125 -189.95833,-37.125 -193.375,-33.125 C -179.80766,-25.257434 -158.89934,-24.622727 -145.3125,-27.4375"/>
  </g>
</svg>
