<?xml version="1.0" encoding="UTF-8"?>
<svg width="1800" height="1800" viewBox="0 0 1800 1800" xmlns="http://www.w3.org/2000/svg">
  <path d="M 894 394 L 893 395 L 892 395 L 891 395 L 890 395 L 889 395 L 888 395 L 887 395 L 886 395 L 885 395 L 884 395 L 883 395 L 882 396 L 881 396 L 880 396 L 879 396 L 878 396 L 877 396 L 876 397 L 875 397 L 874 397 L 873 397 L 872 397 L 871 397 L 870 398 L 869 398 L 868 398 L 867 398 L 866 399 L 865 399 L 864 399 L 863 399 L 862 400 L 861 400 L 860 400 L 859 400 L 858 401 L 857 401 L 856 401 L 855 402 L 854 402 L 853 403 L 852 403 L 851 403 L 850 404 L 849 404 L 848 404 L 847 405 L 846 405 L 845 406 L 844 406 L 843 407 L 842 407 L 841 408 L 840 408 L 839 408 L 838 409 L 837 409 L 836 410 L 835 410 L 834 411 L 833 412 L 832 412 L 831 413 L 830 413 L 829 414 L 828 414 L 827 415 L 826 416 L 825 416 L 824 416 L 824 417 L 823 418 L 822 418 L 821 419 L 820 420 L 819 420 L 818 421 L 817 422 L 816 423 L 815 423 L 814 424 L 813 425 L 812 426 L 811 426 L 810 427 L 809 428 L 808 429 L 807 430 L 806 431 L 805 432 L 804 432 L 803 433 L 802 434 L 801 435 L 800 436 L 800 437 L 799 438 L 798 438 L 798 439 L 797 440 L 796 441 L 795 442 L 794 443 L 793 444 L 792 445 L 791 446 L 790 447 L 790 448 L 789 449 L 789 450 L 788 451 L 787 452 L 786 453 L 786 454 L 785 455 L 784 456 L 784 457 L 783 458 L 782 459 L 782 460 L 781 461 L 780 462 L 780 463 L 779 464 L 779 465 L 778 466 L 777 467 L 777 468 L 776 469 L 776 470 L 776 471 L 775 472 L 775 473 L 774 474 L 774 475 L 773 476 L 773 477 L 772 478 L 772 479 L 771 480 L 771 481 L 771 482 L 770 483 L 770 484 L 770 485 L 769 486 L 769 487 L 768 488 L 768 489 L 768 490 L 767 491 L 767 492 L 767 493 L 766 494 L 766 495 L 766 496 L 766 497 L 766 498 L 765 499 L 765 500 L 765 501 L 764 502 L 764 503 L 764 504 L 764 505 L 763 506 L 763 507 L 763 508 L 763 509 L 763 510 L 763 511 L 762 512 L 762 513 L 762 514 L 762 515 L 762 516 L 762 517 L 762 518 L 762 519 L 761 520 L 761 521 L 761 522 L 761 523 L 761 524 L 761 525 L 761 526 L 761 527 L 761 528 L 761 529 L 761 530 L 761 531 L 761 532 L 761 533 L 761 534 L 761 535 L 761 536 L 761 537 L 761 538 L 761 539 L 761 540 L 761 541 L 761 542 L 761 543 L 761 544 L 761 545 L 761 546 L 761 547 L 762 548 L 762 549 L 762 550 L 762 551 L 762 552 L 762 553 L 762 554 L 763 555 L 763 556 L 763 557 L 763 558 L 763 559 L 763 560 L 764 561 L 764 562 L 764 563 L 764 564 L 765 565 L 765 566 L 765 567 L 765 568 L 765 569 L 766 570 L 766 571 L 766 572 L 767 573 L 767 574 L 767 575 L 768 576 L 768 577 L 768 578 L 768 579 L 769 580 L 769 581 L 770 582 L 770 583 L 770 584 L 771 585 L 771 586 L 772 587 L 772 588 L 772 589 L 773 590 L 773 591 L 774 592 L 774 593 L 775 594 L 775 595 L 776 596 L 776 597 L 777 598 L 777 599 L 778 600 L 778 601 L 779 602 L 779 603 L 780 604 L 781 605 L 781 606 L 782 607 L 783 608 L 783 609 L 784 610 L 784 611 L 785 612 L 786 613 L 787 614 L 787 615 L 788 616 L 789 617 L 790 618 L 790 619 L 791 620 L 792 621 L 793 622 L 794 623 L 794 624 L 795 625 L 796 626 L 797 627 L 798 628 L 799 629 L 800 630 L 800 631 L 801 631 L 802 632 L 803 633 L 804 634 L 805 635 L 806 636 L 807 637 L 808 638 L 809 639 L 810 639 L 811 640 L 812 641 L 813 642 L 814 642 L 815 643 L 816 644 L 817 645 L 818 646 L 819 646 L 820 647 L 821 648 L 822 648 L 823 649 L 824 650 L 825 650 L 826 651 L 827 652 L 828 652 L 829 653 L 830 653 L 831 654 L 832 655 L 833 655 L 834 655 L 835 656 L 836 657 L 837 657 L 838 658 L 839 658 L 840 659 L 841 659 L 842 659 L 843 660 L 844 660 L 845 661 L 846 661 L 847 662 L 848 662 L 849 662 L 850 663 L 851 663 L 852 664 L 853 664 L 854 664 L 855 665 L 856 665 L 857 665 L 858 665 L 859 666 L 860 666 L 861 667 L 862 667 L 863 667 L 864 668 L 865 668 L 866 668 L 867 668 L 868 669 L 869 669 L 870 669 L 871 669 L 872 670 L 873 669 L 874 670 L 875 671 L 875 672 L 875 673 L 875 674 L 875 675 L 875 676 L 875 677 L 875 678 L 875 679 L 875 680 L 875 681 L 875 682 L 875 683 L 875 684 L 875 685 L 875 686 L 875 687 L 875 688 L 875 689 L 875 690 L 875 691 L 875 692 L 875 693 L 875 694 L 875 695 L 875 696 L 875 697 L 875 698 L 875 699 L 875 700 L 875 701 L 875 702 L 875 703 L 875 704 L 875 705 L 875 706 L 875 707 L 875 708 L 875 709 L 875 710 L 875 711 L 875 712 L 875 713 L 875 714 L 875 715 L 875 716 L 875 717 L 875 718 L 875 719 L 875 720 L 875 721 L 875 722 L 875 723 L 875 724 L 875 725 L 875 726 L 875 727 L 875 728 L 875 729 L 875 730 L 875 731 L 875 732 L 875 733 L 875 734 L 875 735 L 875 736 L 875 737 L 875 738 L 875 739 L 875 740 L 875 741 L 875 742 L 875 743 L 875 744 L 875 745 L 875 746 L 875 747 L 875 748 L 875 749 L 875 750 L 875 751 L 875 752 L 875 753 L 875 754 L 875 755 L 875 756 L 875 757 L 875 758 L 875 759 L 875 760 L 875 761 L 875 762 L 875 763 L 875 764 L 875 765 L 875 766 L 875 767 L 875 768 L 875 769 L 875 770 L 875 771 L 875 772 L 875 773 L 875 774 L 875 775 L 875 776 L 875 777 L 875 778 L 875 779 L 875 780 L 875 781 L 875 782 L 875 783 L 875 784 L 875 785 L 875 786 L 875 787 L 875 788 L 875 789 L 875 790 L 875 791 L 875 792 L 875 793 L 875 794 L 875 795 L 875 796 L 875 797 L 875 798 L 875 799 L 875 800 L 875 801 L 875 802 L 875 803 L 875 804 L 875 805 L 875 806 L 875 807 L 875 808 L 875 809 L 875 810 L 875 811 L 875 812 L 875 813 L 875 814 L 875 815 L 875 816 L 875 817 L 875 818 L 875 819 L 875 820 L 875 821 L 875 822 L 875 823 L 875 824 L 875 825 L 875 826 L 875 827 L 875 828 L 875 829 L 875 830 L 875 831 L 875 832 L 875 833 L 875 834 L 875 835 L 875 836 L 875 837 L 875 838 L 875 839 L 875 840 L 875 841 L 875 842 L 875 843 L 875 844 L 875 845 L 875 846 L 875 847 L 875 848 L 875 849 L 875 850 L 875 851 L 875 852 L 875 853 L 875 854 L 874 855 L 873 856 L 872 856 L 871 856 L 870 856 L 869 856 L 868 856 L 867 855 L 866 855 L 865 855 L 864 855 L 863 855 L 862 855 L 861 855 L 860 855 L 859 855 L 858 854 L 857 854 L 856 854 L 855 854 L 854 854 L 853 854 L 852 854 L 851 853 L 850 853 L 849 853 L 848 853 L 847 853 L 846 853 L 845 853 L 844 852 L 843 852 L 842 852 L 841 852 L 840 852 L 839 851 L 838 851 L 837 851 L 836 851 L 835 851 L 834 850 L 833 850 L 832 850 L 831 850 L 830 850 L 829 849 L 828 849 L 827 849 L 826 849 L 825 848 L 824 848 L 823 848 L 822 848 L 821 848 L 820 847 L 819 847 L 818 847 L 817 847 L 816 846 L 815 846 L 814 846 L 813 846 L 812 845 L 811 845 L 810 845 L 809 844 L 808 844 L 807 844 L 806 843 L 805 843 L 804 843 L 803 843 L 802 842 L 801 842 L 800 842 L 799 841 L 798 841 L 797 841 L 796 840 L 795 840 L 794 840 L 793 839 L 792 839 L 791 838 L 790 838 L 789 838 L 788 838 L 787 837 L 786 837 L 785 836 L 784 836 L 783 835 L 782 835 L 781 835 L 780 835 L 779 834 L 778 834 L 777 833 L 776 833 L 775 832 L 774 832 L 773 832 L 772 831 L 771 831 L 770 830 L 769 830 L 768 830 L 767 829 L 766 829 L 765 828 L 764 828 L 763 827 L 762 827 L 761 826 L 760 826 L 759 825 L 758 825 L 757 824 L 756 824 L 755 824 L 754 823 L 753 823 L 752 822 L 751 822 L 750 821 L 749 821 L 748 820 L 747 819 L 746 819 L 745 818 L 744 818 L 743 817 L 742 817 L 741 816 L 740 816 L 739 815 L 738 815 L 737 814 L 736 814 L 735 813 L 734 813 L 733 812 L 732 811 L 731 811 L 730 810 L 729 810 L 728 809 L 727 808 L 726 808 L 725 807 L 724 807 L 723 806 L 722 805 L 721 805 L 720 804 L 719 803 L 718 803 L 717 802 L 716 801 L 715 801 L 714 800 L 713 800 L 712 799 L 711 798 L 710 797 L 709 797 L 708 796 L 707 795 L 706 795 L 705 794 L 704 793 L 703 792 L 702 792 L 701 791 L 700 790 L 699 790 L 698 789 L 697 788 L 696 787 L 695 787 L 694 786 L 693 785 L 692 784 L 691 784 L 690 783 L 689 782 L 688 781 L 687 780 L 686 780 L 685 779 L 684 778 L 683 778 L 682 777 L 682 776 L 681 775 L 680 774 L 679 774 L 678 773 L 677 772 L 676 771 L 675 770 L 674 769 L 673 768 L 672 768 L 671 767 L 671 766 L 670 766 L 669 765 L 668 764 L 667 763 L 666 762 L 665 761 L 664 760 L 663 759 L 662 758 L 661 757 L 660 756 L 659 755 L 658 754 L 657 754 L 656 753 L 656 752 L 655 751 L 654 750 L 653 749 L 652 748 L 651 747 L 651 746 L 652 745 L 653 744 L 654 743 L 655 743 L 655 742 L 656 741 L 657 741 L 658 740 L 659 739 L 660 738 L 661 737 L 662 736 L 663 735 L 663 734 L 664 733 L 665 732 L 666 731 L 667 730 L 668 729 L 669 728 L 670 727 L 670 726 L 671 725 L 672 724 L 673 723 L 673 722 L 674 721 L 675 720 L 675 719 L 676 718 L 677 717 L 677 716 L 678 715 L 679 714 L 679 713 L 680 712 L 680 711 L 681 710 L 681 709 L 682 708 L 683 707 L 683 706 L 684 705 L 684 704 L 685 703 L 685 702 L 686 701 L 686 700 L 686 699 L 687 698 L 687 697 L 688 696 L 688 695 L 688 694 L 689 693 L 689 692 L 690 691 L 690 690 L 691 689 L 691 688 L 691 687 L 691 686 L 692 685 L 692 684 L 692 683 L 692 682 L 693 681 L 693 680 L 693 679 L 694 678 L 694 677 L 694 676 L 694 675 L 695 674 L 695 673 L 695 672 L 695 671 L 695 670 L 696 669 L 696 668 L 696 667 L 696 666 L 696 665 L 696 664 L 696 663 L 697 662 L 697 661 L 697 660 L 697 659 L 697 658 L 697 657 L 697 656 L 697 655 L 697 654 L 697 653 L 698 652 L 698 651 L 698 650 L 698 649 L 698 648 L 698 647 L 698 646 L 698 645 L 698 644 L 698 643 L 698 642 L 697 641 L 697 640 L 697 639 L 697 638 L 697 637 L 697 636 L 697 635 L 697 634 L 697 633 L 696 632 L 696 631 L 696 630 L 696 629 L 696 628 L 696 627 L 696 626 L 695 625 L 696 624 L 695 623 L 695 622 L 695 621 L 695 620 L 694 619 L 694 618 L 694 617 L 694 616 L 693 615 L 693 614 L 693 613 L 692 612 L 692 611 L 692 610 L 692 609 L 691 608 L 691 607 L 691 606 L 690 605 L 690 604 L 690 603 L 689 602 L 689 601 L 688 600 L 688 599 L 688 598 L 687 597 L 687 596 L 686 595 L 686 594 L 685 593 L 685 592 L 684 591 L 684 590 L 683 589 L 683 588 L 682 587 L 682 586 L 681 585 L 681 584 L 680 583 L 680 582 L 679 581 L 678 580 L 678 579 L 677 578 L 676 577 L 676 576 L 675 575 L 674 574 L 674 573 L 673 572 L 672 571 L 671 570 L 671 569 L 670 568 L 669 567 L 668 566 L 667 565 L 667 564 L 666 563 L 665 562 L 664 561 L 663 560 L 662 559 L 661 558 L 660 557 L 659 556 L 658 555 L 657 554 L 656 553 L 655 552 L 654 551 L 653 551 L 652 550 L 651 549 L 650 548 L 649 547 L 648 546 L 647 546 L 646 545 L 645 544 L 644 544 L 643 543 L 642 542 L 641 541 L 640 541 L 639 540 L 638 540 L 637 539 L 636 538 L 635 538 L 634 537 L 633 536 L 632 536 L 631 535 L 630 535 L 629 534 L 628 534 L 627 533 L 626 533 L 625 532 L 624 532 L 623 531 L 622 531 L 621 530 L 620 530 L 619 529 L 618 529 L 617 529 L 616 528 L 615 528 L 614 528 L 613 527 L 612 527 L 611 527 L 610 526 L 609 526 L 608 525 L 607 525 L 606 525 L 605 525 L 604 524 L 603 524 L 602 524 L 601 524 L 600 523 L 599 523 L 598 523 L 597 523 L 596 522 L 595 522 L 594 522 L 593 522 L 592 522 L 591 521 L 590 521 L 589 521 L 588 521 L 587 521 L 586 521 L 585 521 L 584 520 L 583 520 L 582 520 L 581 520 L 580 520 L 579 520 L 578 520 L 577 520 L 576 520 L 575 520 L 574 520 L 573 520 L 572 520 L 571 520 L 570 520 L 569 520 L 568 520 L 567 520 L 566 520 L 565 520 L 564 520 L 563 520 L 562 520 L 561 520 L 560 520 L 559 520 L 558 520 L 557 520 L 556 520 L 555 521 L 554 521 L 553 521 L 552 521 L 551 521 L 550 521 L 549 521 L 548 522 L 547 522 L 546 522 L 545 522 L 544 522 L 543 523 L 542 523 L 541 523 L 540 523 L 539 524 L 538 524 L 537 524 L 536 524 L 535 525 L 534 525 L 533 525 L 532 525 L 531 526 L 530 526 L 529 526 L 528 527 L 527 527 L 526 528 L 525 528 L 524 528 L 523 529 L 522 529 L 521 529 L 520 530 L 519 530 L 518 531 L 517 531 L 516 532 L 515 532 L 514 533 L 513 533 L 512 534 L 511 534 L 510 535 L 509 535 L 508 536 L 507 536 L 506 537 L 505 538 L 504 538 L 503 539 L 502 539 L 501 540 L 500 541 L 499 541 L 498 542 L 497 543 L 496 543 L 495 544 L 494 545 L 493 546 L 492 546 L 491 547 L 490 548 L 489 549 L 488 549 L 487 550 L 486 551 L 485 552 L 484 553 L 483 554 L 482 555 L 481 556 L 480 556 L 479 557 L 479 558 L 478 559 L 477 560 L 476 561 L 475 562 L 474 563 L 473 564 L 472 565 L 471 566 L 470 567 L 470 568 L 469 569 L 469 570 L 468 571 L 467 572 L 466 573 L 466 574 L 465 575 L 464 575 L 464 576 L 463 577 L 463 578 L 462 579 L 462 580 L 461 581 L 460 582 L 460 583 L 459 584 L 459 585 L 458 586 L 457 587 L 457 588 L 456 589 L 456 590 L 456 591 L 455 592 L 455 593 L 454 594 L 454 595 L 453 596 L 453 597 L 452 598 L 452 599 L 452 600 L 451 601 L 451 602 L 450 603 L 450 604 L 450 605 L 449 606 L 449 607 L 448 608 L 448 609 L 448 610 L 447 611 L 447 612 L 447 613 L 447 614 L 446 615 L 446 616 L 446 617 L 446 618 L 445 619 L 445 620 L 445 621 L 445 622 L 445 623 L 445 624 L 444 625 L 444 626 L 444 627 L 444 628 L 444 629 L 444 630 L 443 631 L 443 632 L 443 633 L 443 634 L 443 635 L 443 636 L 443 637 L 443 638 L 442 639 L 442 640 L 442 641 L 442 642 L 442 643 L 442 644 L 442 645 L 442 646 L 442 647 L 442 648 L 442 649 L 442 650 L 442 651 L 442 652 L 442 653 L 442 654 L 442 655 L 442 656 L 443 657 L 443 658 L 443 659 L 443 660 L 443 661 L 443 662 L 443 663 L 443 664 L 444 665 L 444 666 L 444 667 L 444 668 L 444 669 L 444 670 L 444 671 L 445 672 L 445 673 L 445 674 L 445 675 L 446 676 L 446 677 L 446 678 L 446 679 L 447 680 L 447 681 L 447 682 L 447 683 L 448 684 L 448 685 L 448 686 L 448 687 L 449 688 L 449 689 L 450 690 L 450 691 L 450 692 L 451 693 L 451 694 L 452 695 L 452 696 L 452 697 L 453 698 L 453 699 L 454 700 L 454 701 L 455 702 L 455 703 L 456 704 L 456 705 L 456 706 L 457 707 L 458 708 L 458 709 L 459 710 L 459 711 L 460 712 L 461 713 L 461 714 L 462 715 L 463 716 L 463 717 L 464 718 L 464 719 L 465 720 L 466 721 L 467 722 L 467 723 L 468 724 L 469 725 L 470 726 L 470 727 L 471 728 L 472 729 L 472 730 L 473 730 L 474 731 L 475 732 L 475 733 L 476 734 L 477 735 L 478 736 L 479 737 L 480 738 L 481 739 L 482 740 L 483 741 L 484 742 L 485 743 L 486 743 L 487 744 L 488 745 L 488 746 L 489 746 L 490 747 L 491 748 L 492 748 L 493 749 L 494 750 L 495 751 L 496 751 L 497 752 L 498 753 L 499 753 L 500 754 L 501 755 L 502 755 L 503 756 L 504 757 L 505 757 L 506 758 L 507 758 L 508 759 L 509 759 L 510 760 L 511 760 L 512 761 L 513 761 L 514 762 L 515 762 L 516 763 L 517 763 L 518 764 L 519 764 L 520 765 L 521 765 L 522 766 L 523 766 L 524 766 L 525 767 L 526 767 L 527 767 L 528 768 L 529 768 L 530 768 L 531 769 L 532 769 L 533 769 L 534 770 L 535 770 L 536 771 L 537 771 L 538 771 L 539 771 L 540 771 L 541 772 L 542 772 L 543 772 L 544 772 L 545 772 L 546 773 L 547 773 L 548 773 L 549 773 L 550 773 L 551 773 L 552 773 L 553 774 L 554 774 L 555 774 L 556 774 L 557 774 L 558 775 L 559 774 L 560 775 L 561 774 L 562 774 L 563 775 L 564 775 L 565 775 L 566 775 L 567 775 L 568 775 L 569 775 L 570 775 L 571 775 L 572 775 L 573 775 L 574 775 L 575 775 L 576 775 L 577 775 L 578 775 L 579 775 L 580 775 L 581 774 L 582 774 L 583 774 L 584 774 L 585 774 L 586 774 L 587 774 L 588 774 L 589 774 L 590 773 L 591 773 L 592 773 L 593 773 L 594 772 L 595 772 L 596 772 L 597 772 L 598 772 L 599 771 L 600 771 L 601 771 L 602 771 L 603 770 L 604 770 L 605 770 L 606 770 L 607 770 L 608 769 L 609 769 L 610 768 L 611 768 L 612 767 L 613 767 L 614 768 L 615 769 L 616 770 L 616 771 L 617 771 L 618 772 L 618 773 L 619 773 L 620 774 L 620 775 L 621 776 L 622 777 L 623 778 L 624 779 L 625 780 L 626 781 L 627 782 L 628 783 L 629 784 L 630 785 L 631 786 L 632 787 L 633 787 L 634 788 L 634 789 L 635 789 L 636 790 L 636 791 L 637 792 L 638 793 L 639 793 L 640 794 L 641 795 L 642 796 L 643 797 L 644 798 L 645 799 L 646 800 L 647 801 L 648 802 L 649 802 L 650 803 L 651 804 L 652 805 L 653 806 L 654 807 L 655 808 L 656 809 L 657 809 L 658 810 L 659 811 L 660 812 L 661 812 L 662 813 L 663 814 L 664 815 L 665 815 L 666 816 L 667 817 L 668 818 L 669 819 L 670 819 L 671 820 L 672 821 L 673 822 L 674 822 L 675 823 L 676 824 L 677 825 L 678 825 L 679 826 L 680 827 L 681 827 L 682 828 L 683 829 L 684 830 L 685 830 L 686 831 L 687 832 L 688 832 L 689 833 L 690 834 L 691 834 L 692 835 L 693 836 L 694 836 L 695 837 L 696 838 L 697 838 L 698 839 L 699 840 L 700 840 L 701 841 L 702 841 L 703 842 L 704 843 L 705 843 L 706 844 L 707 844 L 708 845 L 709 845 L 710 846 L 711 847 L 712 848 L 713 848 L 714 849 L 715 849 L 716 850 L 717 850 L 718 851 L 719 851 L 720 852 L 721 852 L 722 853 L 723 853 L 724 854 L 725 855 L 726 855 L 727 856 L 728 856 L 729 857 L 730 857 L 731 858 L 732 858 L 733 859 L 734 859 L 735 860 L 736 860 L 737 861 L 738 861 L 739 862 L 740 862 L 741 863 L 742 863 L 743 864 L 744 864 L 745 864 L 746 865 L 747 865 L 748 866 L 749 866 L 750 867 L 751 867 L 752 868 L 753 868 L 754 869 L 755 869 L 756 869 L 757 870 L 758 870 L 759 871 L 760 871 L 761 871 L 762 872 L 763 872 L 764 873 L 765 873 L 766 873 L 767 874 L 768 874 L 769 874 L 770 875 L 771 875 L 772 875 L 773 876 L 774 876 L 775 877 L 776 877 L 777 877 L 778 878 L 779 878 L 780 879 L 781 879 L 782 879 L 783 880 L 784 880 L 785 880 L 786 880 L 787 881 L 788 881 L 789 881 L 790 882 L 791 882 L 792 882 L 793 882 L 794 883 L 795 883 L 796 883 L 797 884 L 798 884 L 799 884 L 800 885 L 801 885 L 802 885 L 803 885 L 804 886 L 805 886 L 806 886 L 807 887 L 808 887 L 809 887 L 810 887 L 811 887 L 812 888 L 813 888 L 814 888 L 815 888 L 816 889 L 817 889 L 818 889 L 819 889 L 820 890 L 821 890 L 822 890 L 823 890 L 824 891 L 825 891 L 826 891 L 827 891 L 828 891 L 829 891 L 830 892 L 831 892 L 832 892 L 833 892 L 834 892 L 835 893 L 836 893 L 837 893 L 838 893 L 839 893 L 840 894 L 841 894 L 842 894 L 843 894 L 844 894 L 845 894 L 846 894 L 847 895 L 848 895 L 849 895 L 850 895 L 851 895 L 852 895 L 853 896 L 854 896 L 855 896 L 856 896 L 857 896 L 858 896 L 859 896 L 860 896 L 861 896 L 862 897 L 863 897 L 864 897 L 865 897 L 866 897 L 867 897 L 868 897 L 869 897 L 870 897 L 871 897 L 872 898 L 873 898 L 874 898 L 875 899 L 875 900 L 875 901 L 875 902 L 875 903 L 875 904 L 875 905 L 875 906 L 875 907 L 875 908 L 875 909 L 875 910 L 875 911 L 875 912 L 875 913 L 875 914 L 875 915 L 875 916 L 875 917 L 875 918 L 875 919 L 875 920 L 875 921 L 875 922 L 875 923 L 875 924 L 875 925 L 875 926 L 875 927 L 875 928 L 875 929 L 875 930 L 875 931 L 875 932 L 875 933 L 875 934 L 875 935 L 875 936 L 875 937 L 875 938 L 875 939 L 875 940 L 875 941 L 875 942 L 875 943 L 875 944 L 875 945 L 875 946 L 875 947 L 875 948 L 875 949 L 875 950 L 875 951 L 875 952 L 875 953 L 875 954 L 875 955 L 875 956 L 875 957 L 875 958 L 875 959 L 875 960 L 875 961 L 875 962 L 875 963 L 875 964 L 875 965 L 875 966 L 875 967 L 875 968 L 875 969 L 875 970 L 874 971 L 873 972 L 872 972 L 871 972 L 870 972 L 869 972 L 868 972 L 867 972 L 866 973 L 865 973 L 864 973 L 863 973 L 862 973 L 861 973 L 860 973 L 859 973 L 858 973 L 857 974 L 856 974 L 855 974 L 854 974 L 853 974 L 852 974 L 851 974 L 850 975 L 849 975 L 848 975 L 847 975 L 846 975 L 845 975 L 844 975 L 843 976 L 842 976 L 841 976 L 840 976 L 839 976 L 838 976 L 837 977 L 836 977 L 835 977 L 834 977 L 833 977 L 832 978 L 831 978 L 830 978 L 829 978 L 828 978 L 827 979 L 826 979 L 825 979 L 824 979 L 823 980 L 822 980 L 821 980 L 820 980 L 819 981 L 818 981 L 817 981 L 816 981 L 815 982 L 814 982 L 813 982 L 812 982 L 811 983 L 810 983 L 809 983 L 808 983 L 807 984 L 806 984 L 805 984 L 804 985 L 803 985 L 802 985 L 801 986 L 800 986 L 799 986 L 798 987 L 797 987 L 796 987 L 795 987 L 794 988 L 793 988 L 792 988 L 791 989 L 790 989 L 789 990 L 788 990 L 787 990 L 786 991 L 785 991 L 784 991 L 783 992 L 782 992 L 781 992 L 780 993 L 779 993 L 778 993 L 777 994 L 776 994 L 775 995 L 774 995 L 773 996 L 772 996 L 771 996 L 770 997 L 769 997 L 768 997 L 767 998 L 766 998 L 765 999 L 764 999 L 763 1000 L 762 1000 L 761 1000 L 760 1001 L 759 1001 L 758 1002 L 757 1003 L 756 1003 L 755 1003 L 754 1004 L 753 1004 L 752 1005 L 751 1005 L 750 1006 L 749 1006 L 748 1007 L 747 1007 L 746 1008 L 745 1008 L 744 1008 L 743 1009 L 742 1010 L 741 1010 L 740 1011 L 739 1011 L 738 1012 L 737 1013 L 736 1013 L 735 1013 L 734 1014 L 733 1014 L 732 1015 L 731 1016 L 730 1016 L 729 1017 L 728 1017 L 727 1018 L 726 1019 L 725 1019 L 724 1020 L 723 1020 L 722 1021 L 721 1022 L 720 1022 L 719 1023 L 718 1023 L 717 1024 L 716 1025 L 715 1025 L 714 1026 L 713 1027 L 712 1027 L 711 1028 L 710 1028 L 709 1029 L 708 1030 L 707 1030 L 706 1031 L 705 1032 L 704 1032 L 703 1033 L 702 1034 L 701 1035 L 700 1035 L 699 1036 L 698 1037 L 697 1038 L 696 1038 L 695 1039 L 694 1040 L 693 1040 L 692 1041 L 691 1042 L 690 1043 L 689 1043 L 688 1044 L 687 1045 L 686 1046 L 685 1046 L 684 1047 L 683 1048 L 682 1049 L 681 1050 L 680 1050 L 679 1051 L 678 1052 L 677 1053 L 676 1054 L 675 1055 L 674 1055 L 673 1056 L 672 1057 L 671 1058 L 670 1059 L 669 1060 L 668 1061 L 667 1062 L 666 1062 L 665 1063 L 664 1064 L 663 1065 L 662 1066 L 661 1067 L 660 1068 L 659 1069 L 658 1070 L 657 1071 L 656 1072 L 655 1072 L 655 1073 L 654 1074 L 653 1075 L 652 1076 L 651 1077 L 650 1078 L 649 1079 L 648 1079 L 648 1080 L 647 1081 L 646 1082 L 645 1083 L 644 1084 L 643 1085 L 642 1086 L 641 1086 L 640 1086 L 639 1086 L 638 1086 L 637 1085 L 636 1085 L 635 1085 L 634 1084 L 633 1084 L 632 1084 L 631 1084 L 630 1083 L 629 1083 L 628 1083 L 627 1083 L 626 1082 L 625 1082 L 624 1082 L 623 1082 L 622 1081 L 621 1081 L 620 1081 L 619 1081 L 618 1081 L 617 1081 L 616 1081 L 615 1080 L 614 1080 L 613 1080 L 612 1080 L 611 1080 L 610 1080 L 609 1080 L 608 1080 L 607 1080 L 606 1080 L 605 1080 L 604 1079 L 603 1079 L 602 1079 L 601 1079 L 600 1079 L 599 1079 L 598 1079 L 597 1079 L 596 1080 L 595 1080 L 594 1080 L 593 1080 L 592 1080 L 591 1080 L 590 1080 L 589 1080 L 588 1080 L 587 1080 L 586 1080 L 585 1081 L 584 1081 L 583 1081 L 582 1081 L 581 1081 L 580 1081 L 579 1081 L 578 1082 L 577 1082 L 576 1082 L 575 1082 L 574 1082 L 573 1083 L 572 1083 L 571 1083 L 570 1084 L 569 1084 L 568 1084 L 567 1084 L 566 1085 L 565 1085 L 564 1085 L 563 1085 L 562 1086 L 561 1086 L 560 1086 L 559 1087 L 558 1087 L 557 1088 L 556 1088 L 555 1088 L 554 1089 L 553 1089 L 552 1090 L 551 1090 L 550 1091 L 549 1091 L 548 1092 L 547 1092 L 546 1093 L 545 1093 L 544 1094 L 543 1094 L 542 1095 L 541 1095 L 540 1096 L 539 1097 L 538 1097 L 537 1098 L 536 1098 L 535 1099 L 534 1100 L 533 1100 L 532 1101 L 531 1102 L 530 1103 L 529 1103 L 528 1104 L 527 1105 L 526 1106 L 525 1106 L 524 1107 L 523 1108 L 522 1109 L 521 1110 L 520 1111 L 519 1112 L 518 1113 L 517 1114 L 516 1115 L 515 1116 L 514 1117 L 513 1118 L 512 1119 L 511 1120 L 511 1121 L 510 1122 L 509 1122 L 509 1123 L 508 1124 L 507 1125 L 507 1126 L 506 1127 L 505 1128 L 504 1129 L 503 1130 L 503 1131 L 502 1132 L 502 1133 L 501 1134 L 500 1135 L 500 1136 L 499 1137 L 498 1138 L 498 1139 L 497 1140 L 497 1141 L 496 1142 L 496 1143 L 495 1144 L 495 1145 L 494 1146 L 494 1147 L 493 1148 L 493 1149 L 492 1150 L 492 1151 L 491 1152 L 491 1153 L 491 1154 L 490 1155 L 490 1156 L 490 1157 L 489 1158 L 489 1159 L 488 1160 L 488 1161 L 488 1162 L 488 1163 L 487 1164 L 487 1165 L 487 1166 L 486 1167 L 486 1168 L 486 1169 L 486 1170 L 485 1171 L 485 1172 L 485 1173 L 485 1174 L 484 1175 L 484 1176 L 484 1177 L 484 1178 L 484 1179 L 484 1180 L 483 1181 L 483 1182 L 483 1183 L 483 1184 L 483 1185 L 483 1186 L 483 1187 L 483 1188 L 483 1189 L 482 1190 L 482 1191 L 482 1192 L 482 1193 L 482 1194 L 482 1195 L 482 1196 L 482 1197 L 482 1198 L 482 1199 L 482 1200 L 482 1201 L 482 1202 L 482 1203 L 482 1204 L 482 1205 L 483 1206 L 483 1207 L 483 1208 L 483 1209 L 483 1210 L 483 1211 L 483 1212 L 483 1213 L 484 1214 L 484 1215 L 484 1216 L 484 1217 L 484 1218 L 484 1219 L 485 1220 L 485 1221 L 485 1222 L 485 1223 L 485 1224 L 486 1225 L 486 1226 L 486 1227 L 486 1228 L 487 1229 L 487 1230 L 487 1231 L 487 1232 L 488 1233 L 488 1234 L 488 1235 L 489 1236 L 489 1237 L 490 1238 L 490 1239 L 490 1240 L 491 1241 L 491 1242 L 492 1243 L 492 1244 L 492 1245 L 493 1246 L 493 1247 L 494 1248 L 494 1249 L 495 1250 L 495 1251 L 496 1252 L 496 1253 L 497 1254 L 497 1255 L 498 1256 L 499 1257 L 499 1258 L 500 1259 L 500 1260 L 501 1261 L 502 1262 L 502 1263 L 503 1264 L 504 1265 L 504 1266 L 505 1267 L 506 1268 L 507 1269 L 507 1270 L 508 1271 L 509 1272 L 510 1273 L 511 1274 L 512 1275 L 512 1276 L 513 1277 L 514 1278 L 515 1279 L 516 1280 L 517 1281 L 518 1282 L 519 1283 L 520 1284 L 521 1285 L 522 1286 L 523 1286 L 524 1287 L 524 1288 L 525 1288 L 526 1289 L 527 1290 L 528 1290 L 529 1291 L 530 1292 L 531 1293 L 532 1293 L 533 1294 L 534 1295 L 535 1296 L 536 1296 L 537 1297 L 538 1297 L 539 1298 L 540 1299 L 541 1299 L 542 1300 L 543 1300 L 544 1301 L 545 1302 L 546 1302 L 547 1303 L 548 1303 L 549 1304 L 550 1304 L 551 1304 L 552 1305 L 553 1305 L 554 1306 L 555 1306 L 556 1307 L 557 1307 L 558 1307 L 559 1308 L 560 1308 L 561 1308 L 562 1309 L 563 1309 L 564 1310 L 565 1310 L 566 1310 L 567 1311 L 568 1311 L 569 1311 L 570 1311 L 571 1312 L 572 1312 L 573 1312 L 574 1312 L 575 1313 L 576 1313 L 577 1313 L 578 1313 L 579 1313 L 580 1313 L 581 1314 L 582 1314 L 583 1314 L 584 1314 L 585 1314 L 586 1314 L 587 1315 L 588 1315 L 589 1315 L 590 1315 L 591 1315 L 592 1315 L 593 1315 L 594 1315 L 595 1315 L 596 1315 L 597 1316 L 598 1316 L 599 1316 L 600 1316 L 601 1316 L 602 1316 L 603 1315 L 604 1315 L 605 1315 L 606 1315 L 607 1315 L 608 1315 L 609 1315 L 610 1315 L 611 1315 L 612 1315 L 613 1315 L 614 1315 L 615 1315 L 616 1314 L 617 1314 L 618 1314 L 619 1314 L 620 1314 L 621 1313 L 622 1313 L 623 1313 L 624 1313 L 625 1313 L 626 1313 L 627 1312 L 628 1312 L 629 1312 L 630 1312 L 631 1311 L 632 1311 L 633 1311 L 634 1310 L 635 1310 L 636 1310 L 637 1309 L 638 1309 L 639 1309 L 640 1308 L 641 1308 L 642 1308 L 643 1307 L 644 1307 L 645 1307 L 646 1306 L 647 1306 L 648 1305 L 649 1305 L 650 1304 L 651 1304 L 652 1303 L 653 1303 L 654 1302 L 655 1302 L 656 1301 L 657 1301 L 658 1300 L 659 1300 L 660 1299 L 661 1298 L 662 1298 L 663 1297 L 664 1297 L 665 1296 L 666 1296 L 667 1295 L 668 1294 L 669 1293 L 670 1292 L 671 1292 L 672 1291 L 673 1290 L 674 1289 L 675 1289 L 676 1288 L 677 1287 L 678 1286 L 679 1285 L 680 1284 L 681 1283 L 682 1283 L 683 1282 L 684 1281 L 685 1280 L 686 1279 L 686 1278 L 687 1277 L 688 1276 L 689 1275 L 690 1274 L 691 1273 L 692 1272 L 693 1271 L 693 1270 L 694 1269 L 695 1268 L 695 1267 L 696 1266 L 697 1265 L 698 1264 L 699 1263 L 699 1262 L 700 1261 L 700 1260 L 701 1259 L 701 1258 L 702 1257 L 703 1256 L 703 1255 L 704 1254 L 705 1253 L 705 1252 L 705 1251 L 706 1250 L 706 1249 L 707 1248 L 707 1247 L 708 1246 L 708 1245 L 709 1244 L 709 1243 L 709 1242 L 710 1241 L 710 1240 L 711 1239 L 711 1238 L 711 1237 L 712 1236 L 712 1235 L 712 1234 L 713 1233 L 713 1232 L 713 1231 L 714 1230 L 714 1229 L 714 1228 L 714 1227 L 715 1226 L 715 1225 L 715 1224 L 716 1223 L 716 1222 L 716 1221 L 716 1220 L 716 1219 L 716 1218 L 716 1217 L 717 1216 L 717 1215 L 717 1214 L 717 1213 L 717 1212 L 717 1211 L 718 1210 L 718 1209 L 718 1208 L 718 1207 L 718 1206 L 718 1205 L 718 1204 L 718 1203 L 718 1202 L 718 1201 L 718 1200 L 718 1199 L 718 1198 L 718 1197 L 718 1196 L 718 1195 L 718 1194 L 718 1193 L 718 1192 L 718 1191 L 718 1190 L 718 1189 L 718 1188 L 718 1187 L 718 1186 L 718 1185 L 718 1184 L 717 1183 L 717 1182 L 717 1181 L 717 1180 L 717 1179 L 716 1178 L 716 1177 L 716 1176 L 716 1175 L 716 1174 L 716 1173 L 716 1172 L 715 1171 L 715 1170 L 715 1169 L 715 1168 L 714 1167 L 714 1166 L 713 1165 L 713 1164 L 713 1163 L 713 1162 L 712 1161 L 712 1160 L 712 1159 L 711 1158 L 711 1157 L 711 1156 L 710 1155 L 710 1154 L 709 1153 L 709 1152 L 709 1151 L 708 1150 L 708 1149 L 708 1148 L 707 1147 L 707 1146 L 706 1145 L 706 1144 L 705 1143 L 704 1142 L 704 1141 L 703 1140 L 703 1139 L 702 1138 L 702 1137 L 701 1136 L 700 1135 L 700 1134 L 699 1133 L 698 1132 L 698 1131 L 697 1130 L 696 1129 L 696 1128 L 695 1127 L 694 1126 L 693 1125 L 692 1124 L 691 1123 L 691 1122 L 690 1121 L 689 1120 L 688 1119 L 687 1118 L 686 1117 L 685 1116 L 684 1115 L 683 1114 L 682 1113 L 682 1112 L 681 1112 L 680 1111 L 680 1110 L 679 1109 L 679 1108 L 679 1107 L 680 1106 L 681 1105 L 682 1104 L 683 1103 L 684 1102 L 685 1101 L 686 1100 L 687 1100 L 687 1099 L 688 1098 L 689 1098 L 690 1097 L 691 1096 L 692 1095 L 693 1094 L 694 1093 L 695 1092 L 696 1091 L 697 1090 L 698 1089 L 699 1088 L 700 1088 L 701 1087 L 702 1086 L 703 1086 L 703 1085 L 704 1084 L 705 1083 L 706 1083 L 707 1082 L 708 1081 L 709 1080 L 710 1079 L 711 1079 L 712 1078 L 713 1077 L 714 1076 L 715 1076 L 716 1075 L 717 1074 L 718 1073 L 719 1073 L 720 1072 L 721 1071 L 722 1070 L 723 1069 L 724 1069 L 725 1068 L 726 1067 L 727 1067 L 728 1066 L 729 1066 L 730 1065 L 731 1064 L 732 1063 L 733 1063 L 734 1062 L 735 1062 L 736 1061 L 737 1060 L 738 1059 L 739 1059 L 740 1058 L 741 1058 L 742 1057 L 743 1056 L 744 1056 L 745 1055 L 746 1055 L 747 1054 L 748 1054 L 749 1053 L 750 1053 L 751 1052 L 752 1051 L 753 1051 L 754 1050 L 755 1049 L 756 1049 L 757 1048 L 758 1048 L 759 1048 L 760 1047 L 761 1046 L 762 1046 L 763 1045 L 764 1045 L 765 1044 L 766 1044 L 767 1043 L 768 1043 L 769 1042 L 770 1042 L 771 1041 L 772 1041 L 773 1040 L 774 1040 L 775 1040 L 776 1039 L 777 1039 L 778 1038 L 779 1038 L 780 1037 L 781 1037 L 782 1036 L 783 1036 L 784 1035 L 785 1035 L 786 1035 L 787 1034 L 788 1034 L 789 1033 L 790 1033 L 791 1033 L 792 1032 L 793 1032 L 794 1032 L 795 1031 L 796 1031 L 797 1031 L 798 1030 L 799 1030 L 800 1029 L 801 1029 L 802 1029 L 803 1028 L 804 1028 L 805 1027 L 806 1027 L 807 1027 L 808 1027 L 809 1026 L 810 1026 L 811 1026 L 812 1025 L 813 1025 L 814 1025 L 815 1025 L 816 1024 L 817 1024 L 818 1024 L 819 1023 L 820 1023 L 821 1023 L 822 1023 L 823 1022 L 824 1022 L 825 1022 L 826 1022 L 827 1021 L 828 1021 L 829 1021 L 830 1020 L 831 1020 L 832 1020 L 833 1020 L 834 1019 L 835 1019 L 836 1019 L 837 1019 L 838 1019 L 839 1019 L 840 1018 L 841 1018 L 842 1018 L 843 1018 L 844 1017 L 845 1017 L 846 1017 L 847 1017 L 848 1017 L 849 1017 L 850 1016 L 851 1016 L 852 1016 L 853 1016 L 854 1016 L 855 1016 L 856 1016 L 857 1015 L 858 1015 L 859 1015 L 860 1015 L 861 1015 L 862 1015 L 863 1015 L 864 1014 L 865 1014 L 866 1014 L 867 1014 L 868 1014 L 869 1014 L 870 1014 L 871 1014 L 872 1014 L 873 1013 L 874 1014 L 875 1015 L 875 1016 L 875 1017 L 875 1018 L 875 1019 L 875 1020 L 875 1021 L 875 1022 L 875 1023 L 875 1024 L 875 1025 L 875 1026 L 875 1027 L 875 1028 L 875 1029 L 875 1030 L 875 1031 L 875 1032 L 875 1033 L 875 1034 L 875 1035 L 875 1036 L 875 1037 L 875 1038 L 875 1039 L 875 1040 L 875 1041 L 875 1042 L 875 1043 L 875 1044 L 875 1045 L 875 1046 L 875 1047 L 875 1048 L 875 1049 L 875 1050 L 875 1051 L 875 1052 L 875 1053 L 875 1054 L 875 1055 L 875 1056 L 875 1057 L 875 1058 L 875 1059 L 875 1060 L 875 1061 L 875 1062 L 875 1063 L 875 1064 L 875 1065 L 875 1066 L 875 1067 L 875 1068 L 875 1069 L 875 1070 L 875 1071 L 875 1072 L 875 1073 L 875 1074 L 875 1075 L 875 1076 L 875 1077 L 875 1078 L 875 1079 L 875 1080 L 875 1081 L 875 1082 L 875 1083 L 875 1084 L 875 1085 L 875 1086 L 875 1087 L 875 1088 L 875 1089 L 875 1090 L 875 1091 L 875 1092 L 875 1093 L 875 1094 L 875 1095 L 875 1096 L 875 1097 L 875 1098 L 875 1099 L 875 1100 L 875 1101 L 875 1102 L 875 1103 L 875 1104 L 875 1105 L 875 1106 L 875 1107 L 875 1108 L 875 1109 L 875 1110 L 875 1111 L 875 1112 L 875 1113 L 875 1114 L 875 1115 L 875 1116 L 875 1117 L 875 1118 L 875 1119 L 875 1120 L 875 1121 L 875 1122 L 875 1123 L 875 1124 L 875 1125 L 875 1126 L 875 1127 L 875 1128 L 875 1129 L 875 1130 L 875 1131 L 875 1132 L 875 1133 L 875 1134 L 875 1135 L 875 1136 L 875 1137 L 875 1138 L 875 1139 L 875 1140 L 875 1141 L 875 1142 L 875 1143 L 875 1144 L 875 1145 L 875 1146 L 875 1147 L 875 1148 L 875 1149 L 875 1150 L 875 1151 L 875 1152 L 875 1153 L 875 1154 L 875 1155 L 875 1156 L 875 1157 L 875 1158 L 875 1159 L 875 1160 L 875 1161 L 875 1162 L 875 1163 L 875 1164 L 875 1165 L 875 1166 L 875 1167 L 875 1168 L 875 1169 L 875 1170 L 875 1171 L 875 1172 L 875 1173 L 875 1174 L 875 1175 L 875 1176 L 875 1177 L 875 1178 L 875 1179 L 875 1180 L 875 1181 L 875 1182 L 875 1183 L 875 1184 L 875 1185 L 875 1186 L 875 1187 L 875 1188 L 875 1189 L 875 1190 L 875 1191 L 875 1192 L 875 1193 L 875 1194 L 875 1195 L 875 1196 L 875 1197 L 875 1198 L 875 1199 L 875 1200 L 875 1201 L 875 1202 L 875 1203 L 875 1204 L 875 1205 L 875 1206 L 875 1207 L 875 1208 L 875 1209 L 875 1210 L 875 1211 L 875 1212 L 875 1213 L 875 1214 L 875 1215 L 875 1216 L 875 1217 L 875 1218 L 875 1219 L 875 1220 L 875 1221 L 875 1222 L 875 1223 L 875 1224 L 875 1225 L 875 1226 L 875 1227 L 875 1228 L 875 1229 L 875 1230 L 875 1231 L 875 1232 L 875 1233 L 875 1234 L 875 1235 L 875 1236 L 875 1237 L 875 1238 L 875 1239 L 875 1240 L 875 1241 L 875 1242 L 875 1243 L 875 1244 L 875 1245 L 875 1246 L 875 1247 L 875 1248 L 875 1249 L 875 1250 L 875 1251 L 875 1252 L 875 1253 L 875 1254 L 875 1255 L 875 1256 L 875 1257 L 875 1258 L 875 1259 L 875 1260 L 875 1261 L 875 1262 L 875 1263 L 875 1264 L 875 1265 L 875 1266 L 875 1267 L 875 1268 L 875 1269 L 875 1270 L 875 1271 L 875 1272 L 875 1273 L 875 1274 L 875 1275 L 875 1276 L 875 1277 L 875 1278 L 875 1279 L 875 1280 L 875 1281 L 875 1282 L 875 1283 L 875 1284 L 875 1285 L 875 1286 L 875 1287 L 875 1288 L 875 1289 L 875 1290 L 875 1291 L 875 1292 L 875 1293 L 875 1294 L 875 1295 L 875 1296 L 875 1297 L 875 1298 L 875 1299 L 875 1300 L 875 1301 L 875 1302 L 875 1303 L 875 1304 L 875 1305 L 875 1306 L 875 1307 L 875 1308 L 875 1309 L 875 1310 L 875 1311 L 875 1312 L 875 1313 L 875 1314 L 875 1315 L 875 1316 L 875 1317 L 875 1318 L 875 1319 L 875 1320 L 875 1321 L 875 1322 L 875 1323 L 875 1324 L 875 1325 L 875 1326 L 875 1327 L 875 1328 L 875 1329 L 875 1330 L 875 1331 L 875 1332 L 875 1333 L 875 1334 L 875 1335 L 875 1336 L 875 1337 L 875 1338 L 875 1339 L 875 1340 L 875 1341 L 875 1342 L 875 1343 L 875 1344 L 875 1345 L 875 1346 L 875 1347 L 875 1348 L 875 1349 L 875 1350 L 875 1351 L 875 1352 L 875 1353 L 875 1354 L 875 1355 L 875 1356 L 875 1357 L 875 1358 L 875 1359 L 875 1360 L 875 1361 L 875 1362 L 875 1363 L 875 1364 L 875 1365 L 875 1366 L 875 1367 L 875 1368 L 875 1369 L 875 1370 L 875 1371 L 875 1372 L 875 1373 L 875 1374 L 875 1375 L 875 1376 L 875 1377 L 875 1378 L 875 1379 L 875 1380 L 875 1381 L 875 1382 L 875 1383 L 875 1384 L 875 1385 L 875 1386 L 875 1387 L 875 1388 L 875 1389 L 876 1390 L 876 1391 L 877 1392 L 877 1393 L 877 1394 L 878 1395 L 878 1396 L 879 1397 L 880 1398 L 880 1399 L 881 1400 L 882 1401 L 883 1402 L 884 1402 L 885 1403 L 886 1404 L 887 1404 L 888 1405 L 889 1406 L 890 1406 L 891 1406 L 892 1407 L 893 1407 L 894 1407 L 895 1407 L 896 1408 L 897 1408 L 898 1408 L 899 1408 L 900 1408 L 901 1408 L 902 1408 L 903 1408 L 904 1407 L 905 1407 L 906 1407 L 907 1407 L 908 1406 L 909 1406 L 910 1405 L 911 1405 L 912 1405 L 913 1404 L 914 1403 L 915 1402 L 916 1402 L 917 1401 L 918 1400 L 919 1399 L 919 1398 L 920 1397 L 921 1396 L 921 1395 L 922 1394 L 922 1393 L 923 1392 L 923 1391 L 923 1390 L 924 1389 L 924 1388 L 924 1387 L 924 1386 L 924 1385 L 925 1384 L 925 1383 L 925 1382 L 925 1381 L 925 1380 L 925 1379 L 925 1378 L 925 1377 L 925 1376 L 925 1375 L 925 1374 L 925 1373 L 925 1372 L 925 1371 L 925 1370 L 925 1369 L 925 1368 L 925 1367 L 925 1366 L 925 1365 L 925 1364 L 925 1363 L 925 1362 L 925 1361 L 925 1360 L 925 1359 L 925 1358 L 925 1357 L 925 1356 L 925 1355 L 925 1354 L 925 1353 L 925 1352 L 925 1351 L 925 1350 L 925 1349 L 925 1348 L 925 1347 L 925 1346 L 925 1345 L 925 1344 L 925 1343 L 925 1342 L 925 1341 L 925 1340 L 925 1339 L 925 1338 L 925 1337 L 925 1336 L 925 1335 L 925 1334 L 925 1333 L 925 1332 L 925 1331 L 925 1330 L 925 1329 L 925 1328 L 925 1327 L 925 1326 L 925 1325 L 925 1324 L 925 1323 L 925 1322 L 925 1321 L 925 1320 L 925 1319 L 925 1318 L 925 1317 L 925 1316 L 925 1315 L 925 1314 L 925 1313 L 925 1312 L 925 1311 L 925 1310 L 925 1309 L 925 1308 L 925 1307 L 925 1306 L 925 1305 L 925 1304 L 925 1303 L 925 1302 L 925 1301 L 925 1300 L 925 1299 L 925 1298 L 925 1297 L 925 1296 L 925 1295 L 925 1294 L 925 1293 L 925 1292 L 925 1291 L 925 1290 L 925 1289 L 925 1288 L 925 1287 L 925 1286 L 925 1285 L 925 1284 L 925 1283 L 925 1282 L 925 1281 L 925 1280 L 925 1279 L 925 1278 L 925 1277 L 925 1276 L 925 1275 L 925 1274 L 925 1273 L 925 1272 L 925 1271 L 925 1270 L 925 1269 L 925 1268 L 925 1267 L 925 1266 L 925 1265 L 925 1264 L 925 1263 L 925 1262 L 925 1261 L 925 1260 L 925 1259 L 925 1258 L 925 1257 L 925 1256 L 925 1255 L 925 1254 L 925 1253 L 925 1252 L 925 1251 L 925 1250 L 925 1249 L 925 1248 L 925 1247 L 925 1246 L 925 1245 L 925 1244 L 925 1243 L 925 1242 L 925 1241 L 925 1240 L 925 1239 L 925 1238 L 925 1237 L 925 1236 L 925 1235 L 925 1234 L 925 1233 L 925 1232 L 925 1231 L 925 1230 L 925 1229 L 925 1228 L 925 1227 L 925 1226 L 925 1225 L 925 1224 L 925 1223 L 925 1222 L 925 1221 L 925 1220 L 925 1219 L 925 1218 L 925 1217 L 925 1216 L 925 1215 L 925 1214 L 925 1213 L 925 1212 L 925 1211 L 925 1210 L 925 1209 L 925 1208 L 925 1207 L 925 1206 L 925 1205 L 925 1204 L 925 1203 L 925 1202 L 925 1201 L 925 1200 L 925 1199 L 925 1198 L 925 1197 L 925 1196 L 925 1195 L 925 1194 L 925 1193 L 925 1192 L 925 1191 L 925 1190 L 925 1189 L 925 1188 L 925 1187 L 925 1186 L 925 1185 L 925 1184 L 925 1183 L 925 1182 L 925 1181 L 925 1180 L 925 1179 L 925 1178 L 925 1177 L 925 1176 L 925 1175 L 925 1174 L 925 1173 L 925 1172 L 925 1171 L 925 1170 L 925 1169 L 925 1168 L 925 1167 L 925 1166 L 925 1165 L 925 1164 L 925 1163 L 925 1162 L 925 1161 L 925 1160 L 925 1159 L 925 1158 L 925 1157 L 925 1156 L 925 1155 L 925 1154 L 925 1153 L 925 1152 L 925 1151 L 925 1150 L 925 1149 L 925 1148 L 925 1147 L 925 1146 L 925 1145 L 925 1144 L 925 1143 L 925 1142 L 925 1141 L 925 1140 L 925 1139 L 925 1138 L 925 1137 L 925 1136 L 925 1135 L 925 1134 L 925 1133 L 925 1132 L 925 1131 L 925 1130 L 925 1129 L 925 1128 L 925 1127 L 925 1126 L 925 1125 L 925 1124 L 925 1123 L 925 1122 L 925 1121 L 925 1120 L 925 1119 L 925 1118 L 925 1117 L 925 1116 L 925 1115 L 925 1114 L 925 1113 L 925 1112 L 925 1111 L 925 1110 L 925 1109 L 925 1108 L 925 1107 L 925 1106 L 925 1105 L 925 1104 L 925 1103 L 925 1102 L 925 1101 L 925 1100 L 925 1099 L 925 1098 L 925 1097 L 925 1096 L 925 1095 L 925 1094 L 925 1093 L 925 1092 L 925 1091 L 925 1090 L 925 1089 L 925 1088 L 925 1087 L 925 1086 L 925 1085 L 925 1084 L 925 1083 L 925 1082 L 925 1081 L 925 1080 L 925 1079 L 925 1078 L 925 1077 L 925 1076 L 925 1075 L 925 1074 L 925 1073 L 925 1072 L 925 1071 L 925 1070 L 925 1069 L 925 1068 L 925 1067 L 925 1066 L 925 1065 L 925 1064 L 925 1063 L 925 1062 L 925 1061 L 925 1060 L 925 1059 L 925 1058 L 925 1057 L 925 1056 L 925 1055 L 925 1054 L 925 1053 L 925 1052 L 925 1051 L 925 1050 L 925 1049 L 925 1048 L 925 1047 L 925 1046 L 925 1045 L 925 1044 L 925 1043 L 925 1042 L 925 1041 L 925 1040 L 925 1039 L 925 1038 L 925 1037 L 925 1036 L 925 1035 L 925 1034 L 925 1033 L 925 1032 L 925 1031 L 925 1030 L 925 1029 L 925 1028 L 925 1027 L 925 1026 L 925 1025 L 925 1024 L 925 1023 L 925 1022 L 925 1021 L 925 1020 L 925 1019 L 925 1018 L 925 1017 L 925 1016 L 924 1015 L 925 1014 L 926 1013 L 927 1014 L 928 1014 L 929 1014 L 930 1014 L 931 1014 L 932 1014 L 933 1014 L 934 1014 L 935 1015 L 936 1015 L 937 1015 L 938 1015 L 939 1015 L 940 1015 L 941 1016 L 942 1016 L 943 1016 L 944 1016 L 945 1016 L 946 1016 L 947 1016 L 948 1017 L 949 1017 L 950 1017 L 951 1017 L 952 1017 L 953 1017 L 954 1017 L 955 1018 L 956 1018 L 957 1018 L 958 1018 L 959 1019 L 960 1019 L 961 1019 L 962 1019 L 963 1020 L 964 1020 L 965 1020 L 966 1020 L 967 1021 L 968 1021 L 969 1021 L 970 1021 L 971 1021 L 972 1022 L 973 1022 L 974 1022 L 975 1022 L 976 1023 L 977 1023 L 978 1023 L 979 1023 L 980 1024 L 981 1024 L 982 1024 L 983 1025 L 984 1025 L 985 1025 L 986 1025 L 987 1026 L 988 1026 L 989 1026 L 990 1027 L 991 1027 L 992 1028 L 993 1028 L 994 1028 L 995 1029 L 996 1029 L 997 1029 L 998 1029 L 999 1030 L 1000 1030 L 1001 1030 L 1002 1031 L 1003 1031 L 1004 1032 L 1005 1032 L 1006 1032 L 1007 1033 L 1008 1033 L 1009 1034 L 1010 1034 L 1011 1034 L 1012 1035 L 1013 1035 L 1014 1036 L 1015 1036 L 1016 1037 L 1017 1037 L 1018 1038 L 1019 1038 L 1020 1039 L 1021 1039 L 1022 1039 L 1023 1040 L 1024 1040 L 1025 1041 L 1026 1041 L 1027 1041 L 1028 1042 L 1029 1042 L 1030 1043 L 1031 1043 L 1032 1044 L 1033 1044 L 1034 1045 L 1035 1045 L 1036 1046 L 1037 1047 L 1038 1047 L 1039 1048 L 1040 1048 L 1041 1049 L 1042 1049 L 1043 1050 L 1044 1050 L 1045 1051 L 1046 1051 L 1047 1052 L 1048 1053 L 1049 1053 L 1050 1054 L 1051 1054 L 1052 1055 L 1053 1056 L 1054 1056 L 1055 1057 L 1056 1057 L 1057 1058 L 1058 1058 L 1059 1059 L 1060 1060 L 1061 1060 L 1062 1061 L 1063 1062 L 1064 1063 L 1065 1063 L 1066 1064 L 1067 1065 L 1068 1065 L 1069 1066 L 1070 1066 L 1071 1067 L 1072 1068 L 1073 1068 L 1074 1069 L 1075 1070 L 1076 1071 L 1077 1071 L 1078 1072 L 1079 1073 L 1080 1074 L 1081 1074 L 1082 1075 L 1083 1076 L 1084 1077 L 1085 1077 L 1086 1078 L 1086 1079 L 1087 1079 L 1088 1080 L 1089 1081 L 1090 1081 L 1091 1082 L 1092 1083 L 1093 1084 L 1094 1085 L 1095 1085 L 1096 1086 L 1096 1087 L 1097 1087 L 1098 1088 L 1099 1089 L 1100 1089 L 1101 1090 L 1102 1091 L 1103 1092 L 1104 1093 L 1104 1094 L 1105 1094 L 1106 1095 L 1107 1096 L 1108 1097 L 1109 1098 L 1110 1099 L 1111 1099 L 1112 1100 L 1113 1101 L 1114 1102 L 1115 1103 L 1116 1104 L 1117 1105 L 1118 1106 L 1119 1107 L 1119 1108 L 1119 1109 L 1119 1110 L 1118 1111 L 1117 1111 L 1116 1112 L 1116 1113 L 1115 1114 L 1114 1115 L 1113 1116 L 1112 1116 L 1112 1117 L 1111 1118 L 1110 1119 L 1109 1120 L 1108 1121 L 1107 1122 L 1106 1123 L 1106 1124 L 1105 1125 L 1104 1126 L 1103 1127 L 1102 1128 L 1102 1129 L 1101 1130 L 1100 1131 L 1100 1132 L 1099 1133 L 1098 1134 L 1098 1135 L 1097 1136 L 1096 1137 L 1096 1138 L 1095 1139 L 1095 1140 L 1094 1141 L 1093 1142 L 1093 1143 L 1092 1144 L 1092 1145 L 1092 1146 L 1091 1147 L 1091 1148 L 1090 1149 L 1090 1150 L 1089 1151 L 1089 1152 L 1089 1153 L 1088 1154 L 1088 1155 L 1087 1156 L 1087 1157 L 1086 1158 L 1086 1159 L 1086 1160 L 1086 1161 L 1085 1162 L 1085 1163 L 1085 1164 L 1084 1165 L 1084 1166 L 1084 1167 L 1083 1168 L 1083 1169 L 1083 1170 L 1083 1171 L 1082 1172 L 1082 1173 L 1082 1174 L 1082 1175 L 1082 1176 L 1082 1177 L 1081 1178 L 1081 1179 L 1081 1180 L 1081 1181 L 1081 1182 L 1081 1183 L 1080 1184 L 1080 1185 L 1080 1186 L 1080 1187 L 1080 1188 L 1080 1189 L 1080 1190 L 1080 1191 L 1080 1192 L 1080 1193 L 1080 1194 L 1080 1195 L 1080 1196 L 1080 1197 L 1080 1198 L 1080 1199 L 1080 1200 L 1080 1201 L 1080 1202 L 1080 1203 L 1080 1204 L 1080 1205 L 1080 1206 L 1080 1207 L 1080 1208 L 1080 1209 L 1080 1210 L 1081 1211 L 1081 1212 L 1081 1213 L 1081 1214 L 1081 1215 L 1081 1216 L 1081 1217 L 1082 1218 L 1082 1219 L 1082 1220 L 1082 1221 L 1082 1222 L 1082 1223 L 1083 1224 L 1083 1225 L 1083 1226 L 1084 1227 L 1084 1228 L 1084 1229 L 1084 1230 L 1085 1231 L 1085 1232 L 1085 1233 L 1086 1234 L 1086 1235 L 1086 1236 L 1087 1237 L 1087 1238 L 1087 1239 L 1088 1240 L 1088 1241 L 1088 1242 L 1089 1243 L 1089 1244 L 1090 1245 L 1090 1246 L 1091 1247 L 1091 1248 L 1092 1249 L 1092 1250 L 1093 1251 L 1093 1252 L 1093 1253 L 1094 1254 L 1095 1255 L 1095 1256 L 1096 1257 L 1097 1258 L 1097 1259 L 1098 1260 L 1098 1261 L 1099 1262 L 1099 1263 L 1100 1264 L 1101 1265 L 1102 1266 L 1103 1267 L 1103 1268 L 1104 1269 L 1105 1270 L 1105 1271 L 1106 1272 L 1107 1273 L 1108 1274 L 1109 1275 L 1110 1276 L 1111 1277 L 1112 1278 L 1112 1279 L 1113 1280 L 1114 1281 L 1115 1282 L 1116 1283 L 1117 1284 L 1118 1284 L 1119 1285 L 1120 1286 L 1121 1287 L 1122 1288 L 1123 1289 L 1124 1290 L 1125 1290 L 1126 1291 L 1127 1292 L 1128 1293 L 1129 1293 L 1130 1294 L 1131 1295 L 1132 1296 L 1133 1296 L 1134 1297 L 1135 1297 L 1136 1298 L 1137 1298 L 1138 1299 L 1139 1300 L 1140 1300 L 1141 1301 L 1142 1301 L 1143 1302 L 1144 1302 L 1145 1303 L 1146 1303 L 1147 1304 L 1148 1304 L 1149 1305 L 1150 1305 L 1151 1306 L 1152 1306 L 1153 1306 L 1154 1307 L 1155 1307 L 1156 1307 L 1157 1308 L 1158 1308 L 1159 1309 L 1160 1309 L 1161 1309 L 1162 1310 L 1163 1310 L 1164 1310 L 1165 1311 L 1166 1311 L 1167 1311 L 1168 1312 L 1169 1312 L 1170 1312 L 1171 1312 L 1172 1312 L 1173 1313 L 1174 1313 L 1175 1313 L 1176 1314 L 1177 1314 L 1178 1314 L 1179 1314 L 1180 1314 L 1181 1314 L 1182 1314 L 1183 1314 L 1184 1314 L 1185 1315 L 1186 1315 L 1187 1315 L 1188 1315 L 1189 1315 L 1190 1315 L 1191 1315 L 1192 1316 L 1193 1316 L 1194 1316 L 1195 1316 L 1196 1316 L 1197 1316 L 1198 1316 L 1199 1316 L 1200 1316 L 1201 1316 L 1202 1316 L 1203 1315 L 1204 1315 L 1205 1315 L 1206 1315 L 1207 1315 L 1208 1315 L 1209 1315 L 1210 1315 L 1211 1315 L 1212 1314 L 1213 1314 L 1214 1314 L 1215 1314 L 1216 1314 L 1217 1314 L 1218 1314 L 1219 1313 L 1220 1313 L 1221 1313 L 1222 1313 L 1223 1313 L 1224 1312 L 1225 1312 L 1226 1312 L 1227 1312 L 1228 1311 L 1229 1311 L 1230 1311 L 1231 1311 L 1232 1310 L 1233 1310 L 1234 1310 L 1235 1309 L 1236 1309 L 1237 1308 L 1238 1308 L 1239 1308 L 1240 1308 L 1241 1307 L 1242 1307 L 1243 1306 L 1244 1306 L 1245 1305 L 1246 1305 L 1247 1304 L 1248 1304 L 1249 1304 L 1250 1303 L 1251 1303 L 1252 1302 L 1253 1302 L 1254 1301 L 1255 1301 L 1256 1300 L 1257 1299 L 1258 1299 L 1259 1298 L 1260 1297 L 1261 1297 L 1262 1296 L 1263 1296 L 1264 1295 L 1265 1294 L 1266 1293 L 1267 1293 L 1268 1292 L 1269 1291 L 1270 1290 L 1271 1290 L 1272 1289 L 1273 1288 L 1274 1287 L 1275 1287 L 1276 1286 L 1277 1285 L 1278 1284 L 1279 1283 L 1280 1282 L 1281 1281 L 1282 1280 L 1283 1279 L 1284 1278 L 1285 1277 L 1286 1276 L 1287 1275 L 1287 1274 L 1288 1273 L 1289 1272 L 1290 1271 L 1290 1270 L 1291 1269 L 1292 1268 L 1293 1267 L 1294 1266 L 1294 1265 L 1295 1264 L 1296 1263 L 1296 1262 L 1297 1261 L 1298 1260 L 1298 1259 L 1299 1258 L 1299 1257 L 1300 1256 L 1301 1255 L 1301 1254 L 1302 1253 L 1302 1252 L 1303 1251 L 1303 1250 L 1304 1249 L 1304 1248 L 1305 1247 L 1305 1246 L 1306 1245 L 1306 1244 L 1306 1243 L 1307 1242 L 1307 1241 L 1308 1240 L 1308 1239 L 1308 1238 L 1309 1237 L 1309 1236 L 1309 1235 L 1310 1234 L 1310 1233 L 1311 1232 L 1311 1231 L 1311 1230 L 1311 1229 L 1312 1228 L 1312 1227 L 1312 1226 L 1312 1225 L 1313 1224 L 1313 1223 L 1313 1222 L 1313 1221 L 1313 1220 L 1314 1219 L 1314 1218 L 1314 1217 L 1314 1216 L 1314 1215 L 1314 1214 L 1314 1213 L 1315 1212 L 1315 1211 L 1315 1210 L 1315 1209 L 1315 1208 L 1316 1207 L 1316 1206 L 1316 1205 L 1316 1204 L 1316 1203 L 1316 1202 L 1316 1201 L 1316 1200 L 1316 1199 L 1316 1198 L 1316 1197 L 1316 1196 L 1316 1195 L 1316 1194 L 1316 1193 L 1316 1192 L 1316 1191 L 1315 1190 L 1315 1189 L 1315 1188 L 1315 1187 L 1315 1186 L 1315 1185 L 1315 1184 L 1315 1183 L 1315 1182 L 1314 1181 L 1314 1180 L 1314 1179 L 1314 1178 L 1314 1177 L 1314 1176 L 1314 1175 L 1313 1174 L 1313 1173 L 1313 1172 L 1313 1171 L 1312 1170 L 1312 1169 L 1312 1168 L 1312 1167 L 1311 1166 L 1311 1165 L 1311 1164 L 1311 1163 L 1310 1162 L 1310 1161 L 1310 1160 L 1309 1159 L 1309 1158 L 1308 1157 L 1308 1156 L 1308 1155 L 1307 1154 L 1307 1153 L 1307 1152 L 1306 1151 L 1306 1150 L 1305 1149 L 1305 1148 L 1304 1147 L 1304 1146 L 1303 1145 L 1303 1144 L 1302 1143 L 1302 1142 L 1301 1141 L 1301 1140 L 1300 1139 L 1300 1138 L 1299 1137 L 1299 1136 L 1298 1135 L 1297 1134 L 1297 1133 L 1296 1132 L 1295 1131 L 1295 1130 L 1294 1130 L 1293 1129 L 1293 1128 L 1292 1127 L 1291 1126 L 1291 1125 L 1290 1124 L 1289 1123 L 1289 1122 L 1288 1122 L 1287 1121 L 1287 1120 L 1286 1119 L 1285 1118 L 1284 1117 L 1283 1116 L 1282 1115 L 1281 1114 L 1280 1113 L 1279 1112 L 1278 1111 L 1277 1110 L 1276 1109 L 1275 1108 L 1274 1107 L 1273 1106 L 1272 1106 L 1271 1105 L 1270 1104 L 1269 1103 L 1268 1103 L 1267 1102 L 1266 1101 L 1265 1100 L 1264 1100 L 1263 1099 L 1262 1099 L 1261 1098 L 1260 1097 L 1259 1097 L 1258 1096 L 1257 1095 L 1256 1095 L 1255 1094 L 1254 1094 L 1253 1093 L 1252 1093 L 1251 1092 L 1250 1092 L 1249 1091 L 1248 1091 L 1247 1090 L 1246 1090 L 1245 1089 L 1244 1089 L 1243 1088 L 1242 1088 L 1241 1088 L 1240 1087 L 1239 1087 L 1238 1087 L 1237 1086 L 1236 1086 L 1235 1086 L 1234 1085 L 1233 1085 L 1232 1085 L 1231 1084 L 1230 1084 L 1229 1084 L 1228 1083 L 1227 1083 L 1226 1083 L 1225 1083 L 1224 1082 L 1223 1082 L 1222 1082 L 1221 1082 L 1220 1082 L 1219 1081 L 1218 1081 L 1217 1081 L 1216 1081 L 1215 1081 L 1214 1081 L 1213 1080 L 1212 1080 L 1211 1080 L 1210 1080 L 1209 1080 L 1208 1080 L 1207 1080 L 1206 1080 L 1205 1080 L 1204 1080 L 1203 1080 L 1202 1079 L 1201 1079 L 1200 1079 L 1199 1079 L 1198 1079 L 1197 1079 L 1196 1079 L 1195 1079 L 1194 1079 L 1193 1080 L 1192 1080 L 1191 1080 L 1190 1080 L 1189 1080 L 1188 1080 L 1187 1080 L 1186 1080 L 1185 1080 L 1184 1080 L 1183 1080 L 1182 1081 L 1181 1081 L 1180 1081 L 1179 1081 L 1178 1081 L 1177 1081 L 1176 1081 L 1175 1082 L 1174 1082 L 1173 1082 L 1172 1082 L 1171 1083 L 1170 1083 L 1169 1083 L 1168 1083 L 1167 1084 L 1166 1084 L 1165 1084 L 1164 1084 L 1163 1085 L 1162 1085 L 1161 1086 L 1160 1086 L 1159 1086 L 1158 1086 L 1157 1087 L 1156 1086 L 1155 1085 L 1154 1084 L 1153 1083 L 1152 1082 L 1151 1081 L 1151 1080 L 1150 1080 L 1149 1079 L 1148 1078 L 1147 1077 L 1146 1076 L 1145 1075 L 1144 1074 L 1143 1073 L 1143 1072 L 1142 1072 L 1141 1071 L 1140 1070 L 1139 1069 L 1138 1068 L 1137 1067 L 1136 1066 L 1135 1065 L 1134 1064 L 1133 1063 L 1132 1062 L 1131 1062 L 1130 1061 L 1130 1060 L 1129 1060 L 1128 1059 L 1127 1058 L 1126 1057 L 1125 1056 L 1124 1056 L 1123 1055 L 1122 1054 L 1121 1053 L 1120 1052 L 1119 1051 L 1118 1051 L 1117 1050 L 1116 1049 L 1115 1048 L 1114 1047 L 1113 1047 L 1112 1046 L 1111 1045 L 1110 1044 L 1109 1043 L 1108 1043 L 1107 1042 L 1106 1041 L 1105 1040 L 1104 1040 L 1103 1039 L 1102 1038 L 1101 1037 L 1100 1037 L 1099 1036 L 1098 1035 L 1097 1035 L 1096 1034 L 1095 1033 L 1094 1032 L 1093 1032 L 1092 1031 L 1091 1031 L 1090 1030 L 1089 1029 L 1088 1029 L 1087 1028 L 1086 1027 L 1085 1026 L 1084 1026 L 1083 1025 L 1082 1025 L 1081 1024 L 1080 1023 L 1079 1023 L 1078 1022 L 1077 1021 L 1076 1021 L 1075 1020 L 1074 1020 L 1073 1019 L 1072 1018 L 1071 1018 L 1070 1017 L 1069 1016 L 1068 1016 L 1067 1016 L 1066 1015 L 1065 1014 L 1064 1014 L 1063 1014 L 1062 1013 L 1061 1012 L 1060 1012 L 1059 1011 L 1058 1011 L 1057 1010 L 1056 1010 L 1055 1009 L 1054 1009 L 1053 1008 L 1052 1007 L 1051 1007 L 1050 1007 L 1049 1006 L 1048 1006 L 1047 1005 L 1046 1005 L 1045 1004 L 1044 1004 L 1043 1003 L 1042 1003 L 1041 1002 L 1040 1002 L 1039 1001 L 1038 1001 L 1037 1000 L 1036 1000 L 1035 999 L 1034 999 L 1033 999 L 1032 998 L 1031 998 L 1030 998 L 1029 997 L 1028 997 L 1027 996 L 1026 996 L 1025 996 L 1024 995 L 1023 995 L 1022 994 L 1021 994 L 1020 993 L 1019 993 L 1018 993 L 1017 992 L 1016 992 L 1015 991 L 1014 991 L 1013 991 L 1012 991 L 1011 990 L 1010 990 L 1009 989 L 1008 989 L 1007 989 L 1006 988 L 1005 988 L 1004 988 L 1003 987 L 1002 987 L 1001 987 L 1000 987 L 999 986 L 998 986 L 997 985 L 996 985 L 995 985 L 994 985 L 993 984 L 992 984 L 991 984 L 990 983 L 989 983 L 988 983 L 987 983 L 986 982 L 985 982 L 984 982 L 983 982 L 982 981 L 981 981 L 980 981 L 979 981 L 978 980 L 977 980 L 976 980 L 975 979 L 974 979 L 973 979 L 972 979 L 971 979 L 970 979 L 969 978 L 968 978 L 967 978 L 966 978 L 965 977 L 964 977 L 963 977 L 962 977 L 961 977 L 960 976 L 959 976 L 958 976 L 957 976 L 956 976 L 955 976 L 954 975 L 953 975 L 952 975 L 951 975 L 950 975 L 949 975 L 948 975 L 947 974 L 946 974 L 945 974 L 944 974 L 943 974 L 942 974 L 941 974 L 940 973 L 939 973 L 938 973 L 937 973 L 936 973 L 935 973 L 934 973 L 933 973 L 932 973 L 931 972 L 930 972 L 929 972 L 928 972 L 927 972 L 926 972 L 925 971 L 925 970 L 924 969 L 924 968 L 925 967 L 925 966 L 925 965 L 925 964 L 925 963 L 925 962 L 925 961 L 925 960 L 925 959 L 925 958 L 925 957 L 925 956 L 925 955 L 925 954 L 925 953 L 925 952 L 925 951 L 925 950 L 925 949 L 925 948 L 925 947 L 925 946 L 925 945 L 925 944 L 925 943 L 925 942 L 925 941 L 925 940 L 925 939 L 925 938 L 925 937 L 925 936 L 925 935 L 925 934 L 925 933 L 925 932 L 925 931 L 925 930 L 925 929 L 925 928 L 925 927 L 925 926 L 925 925 L 925 924 L 925 923 L 925 922 L 925 921 L 925 920 L 925 919 L 925 918 L 925 917 L 925 916 L 925 915 L 925 914 L 925 913 L 925 912 L 925 911 L 925 910 L 925 909 L 925 908 L 925 907 L 925 906 L 925 905 L 925 904 L 925 903 L 924 902 L 924 901 L 925 900 L 924 899 L 925 898 L 926 897 L 927 898 L 928 897 L 929 897 L 930 897 L 931 897 L 932 897 L 933 897 L 934 897 L 935 897 L 936 897 L 937 897 L 938 896 L 939 896 L 940 896 L 941 896 L 942 896 L 943 896 L 944 896 L 945 896 L 946 896 L 947 895 L 948 895 L 949 895 L 950 895 L 951 895 L 952 895 L 953 894 L 954 894 L 955 894 L 956 894 L 957 894 L 958 894 L 959 894 L 960 893 L 961 893 L 962 893 L 963 893 L 964 893 L 965 892 L 966 892 L 967 892 L 968 892 L 969 892 L 970 891 L 971 891 L 972 891 L 973 891 L 974 891 L 975 891 L 976 890 L 977 890 L 978 890 L 979 890 L 980 889 L 981 889 L 982 889 L 983 889 L 984 889 L 985 888 L 986 888 L 987 888 L 988 887 L 989 887 L 990 887 L 991 887 L 992 887 L 993 886 L 994 886 L 995 886 L 996 886 L 997 885 L 998 885 L 999 885 L 1000 884 L 1001 884 L 1002 884 L 1003 883 L 1004 883 L 1005 883 L 1006 882 L 1007 882 L 1008 882 L 1009 882 L 1010 881 L 1011 881 L 1012 881 L 1013 880 L 1014 880 L 1015 880 L 1016 880 L 1017 879 L 1018 879 L 1019 879 L 1020 878 L 1021 878 L 1022 877 L 1023 877 L 1024 877 L 1025 876 L 1026 876 L 1027 876 L 1028 875 L 1029 875 L 1030 874 L 1031 874 L 1032 874 L 1033 873 L 1034 873 L 1035 873 L 1036 872 L 1037 872 L 1038 871 L 1039 871 L 1040 871 L 1041 870 L 1042 870 L 1043 869 L 1044 869 L 1045 869 L 1046 868 L 1047 868 L 1048 867 L 1049 867 L 1050 866 L 1051 866 L 1052 865 L 1053 865 L 1054 864 L 1055 864 L 1056 864 L 1057 863 L 1058 863 L 1059 862 L 1060 862 L 1061 861 L 1062 861 L 1063 860 L 1064 860 L 1065 859 L 1066 859 L 1067 858 L 1068 858 L 1069 857 L 1070 857 L 1071 856 L 1072 856 L 1073 855 L 1074 855 L 1075 854 L 1076 853 L 1077 853 L 1078 852 L 1079 852 L 1080 852 L 1081 851 L 1082 850 L 1083 850 L 1084 849 L 1085 849 L 1086 848 L 1087 848 L 1088 847 L 1089 846 L 1090 846 L 1091 845 L 1092 844 L 1093 844 L 1094 843 L 1095 843 L 1096 842 L 1097 841 L 1098 841 L 1099 840 L 1100 840 L 1101 839 L 1102 838 L 1103 838 L 1104 837 L 1105 836 L 1106 836 L 1107 835 L 1108 834 L 1109 834 L 1110 833 L 1111 832 L 1112 832 L 1113 831 L 1114 831 L 1115 830 L 1116 829 L 1117 828 L 1118 827 L 1119 827 L 1120 826 L 1121 825 L 1122 825 L 1123 824 L 1124 823 L 1125 823 L 1126 822 L 1127 821 L 1128 820 L 1129 820 L 1130 819 L 1131 818 L 1132 817 L 1133 816 L 1134 816 L 1135 815 L 1136 814 L 1137 813 L 1138 812 L 1139 812 L 1140 811 L 1141 810 L 1142 809 L 1143 809 L 1144 808 L 1145 807 L 1146 806 L 1147 805 L 1148 804 L 1149 803 L 1150 802 L 1151 802 L 1152 801 L 1153 800 L 1154 799 L 1155 798 L 1156 797 L 1157 796 L 1158 795 L 1159 794 L 1160 793 L 1161 793 L 1162 792 L 1163 791 L 1164 790 L 1165 789 L 1166 788 L 1167 787 L 1168 786 L 1169 785 L 1170 784 L 1171 783 L 1172 782 L 1173 781 L 1174 780 L 1175 779 L 1176 778 L 1177 777 L 1178 776 L 1179 775 L 1180 774 L 1181 773 L 1182 772 L 1183 771 L 1183 770 L 1184 769 L 1185 768 L 1186 768 L 1187 768 L 1188 768 L 1189 768 L 1190 769 L 1191 769 L 1192 769 L 1193 770 L 1194 770 L 1195 770 L 1196 770 L 1197 771 L 1198 771 L 1199 771 L 1200 772 L 1201 772 L 1202 772 L 1203 772 L 1204 772 L 1205 772 L 1206 773 L 1207 773 L 1208 773 L 1209 773 L 1210 773 L 1211 773 L 1212 774 L 1213 774 L 1214 774 L 1215 774 L 1216 774 L 1217 774 L 1218 775 L 1219 775 L 1220 775 L 1221 775 L 1222 775 L 1223 775 L 1224 775 L 1225 775 L 1226 775 L 1227 775 L 1228 775 L 1229 775 L 1230 775 L 1231 775 L 1232 775 L 1233 775 L 1234 775 L 1235 775 L 1236 775 L 1237 775 L 1238 775 L 1239 775 L 1240 775 L 1241 775 L 1242 774 L 1243 774 L 1244 774 L 1245 774 L 1246 774 L 1247 774 L 1248 773 L 1249 773 L 1250 773 L 1251 773 L 1252 773 L 1253 773 L 1254 773 L 1255 772 L 1256 772 L 1257 772 L 1258 771 L 1259 771 L 1260 771 L 1261 771 L 1262 770 L 1263 770 L 1264 770 L 1265 770 L 1266 769 L 1267 769 L 1268 769 L 1269 768 L 1270 768 L 1271 768 L 1272 768 L 1273 767 L 1274 767 L 1275 766 L 1276 766 L 1277 766 L 1278 765 L 1279 765 L 1280 764 L 1281 764 L 1282 763 L 1283 763 L 1284 762 L 1285 762 L 1286 761 L 1287 761 L 1288 761 L 1289 760 L 1290 760 L 1291 759 L 1292 758 L 1293 758 L 1294 757 L 1295 757 L 1296 756 L 1297 755 L 1298 755 L 1299 754 L 1300 753 L 1301 753 L 1302 752 L 1303 752 L 1304 751 L 1305 750 L 1306 749 L 1307 749 L 1308 748 L 1309 747 L 1310 746 L 1311 746 L 1312 745 L 1313 744 L 1314 743 L 1315 742 L 1316 741 L 1317 740 L 1318 739 L 1319 738 L 1320 737 L 1321 736 L 1322 735 L 1323 734 L 1324 733 L 1325 732 L 1325 731 L 1326 730 L 1327 729 L 1328 728 L 1329 727 L 1329 726 L 1330 725 L 1331 724 L 1332 723 L 1333 722 L 1333 721 L 1334 720 L 1335 719 L 1335 718 L 1336 717 L 1337 716 L 1337 715 L 1338 714 L 1339 713 L 1339 712 L 1340 711 L 1340 710 L 1341 709 L 1341 708 L 1342 707 L 1342 706 L 1343 705 L 1344 704 L 1344 703 L 1344 702 L 1345 701 L 1345 700 L 1346 699 L 1346 698 L 1347 697 L 1347 696 L 1347 695 L 1348 694 L 1348 693 L 1349 692 L 1349 691 L 1349 690 L 1350 689 L 1350 688 L 1351 687 L 1351 686 L 1351 685 L 1352 684 L 1352 683 L 1352 682 L 1352 681 L 1353 680 L 1353 679 L 1353 678 L 1353 677 L 1353 676 L 1354 675 L 1354 674 L 1354 673 L 1354 672 L 1355 671 L 1355 670 L 1355 669 L 1355 668 L 1355 667 L 1355 666 L 1355 665 L 1356 664 L 1356 663 L 1356 662 L 1356 661 L 1356 660 L 1356 659 L 1356 658 L 1357 657 L 1357 656 L 1357 655 L 1357 654 L 1357 653 L 1357 652 L 1357 651 L 1357 650 L 1357 649 L 1357 648 L 1357 647 L 1357 646 L 1357 645 L 1357 644 L 1357 643 L 1357 642 L 1357 641 L 1357 640 L 1357 639 L 1357 638 L 1357 637 L 1356 636 L 1356 635 L 1356 634 L 1356 633 L 1356 632 L 1356 631 L 1356 630 L 1355 629 L 1355 628 L 1355 627 L 1355 626 L 1355 625 L 1355 624 L 1355 623 L 1354 622 L 1354 621 L 1354 620 L 1354 619 L 1353 618 L 1353 617 L 1353 616 L 1353 615 L 1352 614 L 1352 613 L 1352 612 L 1352 611 L 1351 610 L 1351 609 L 1351 608 L 1350 607 L 1350 606 L 1349 605 L 1349 604 L 1349 603 L 1348 602 L 1348 601 L 1348 600 L 1347 599 L 1347 598 L 1346 597 L 1346 596 L 1346 595 L 1345 594 L 1345 593 L 1344 592 L 1344 591 L 1343 590 L 1343 589 L 1342 588 L 1342 587 L 1341 586 L 1340 585 L 1340 584 L 1339 583 L 1339 582 L 1338 581 L 1337 580 L 1337 579 L 1336 578 L 1336 577 L 1335 576 L 1335 575 L 1334 574 L 1333 573 L 1332 572 L 1332 571 L 1331 570 L 1330 569 L 1329 568 L 1328 567 L 1328 566 L 1327 565 L 1326 564 L 1325 563 L 1324 562 L 1323 561 L 1323 560 L 1322 559 L 1321 558 L 1320 557 L 1319 556 L 1318 555 L 1317 555 L 1316 554 L 1316 553 L 1315 553 L 1314 552 L 1313 551 L 1312 550 L 1311 549 L 1310 548 L 1309 548 L 1308 547 L 1307 546 L 1306 546 L 1305 545 L 1304 544 L 1303 543 L 1302 543 L 1301 542 L 1300 541 L 1299 541 L 1298 540 L 1297 539 L 1296 539 L 1295 538 L 1294 538 L 1293 537 L 1292 536 L 1291 536 L 1290 535 L 1289 535 L 1288 534 L 1287 533 L 1286 533 L 1285 533 L 1284 532 L 1283 532 L 1282 531 L 1281 531 L 1280 530 L 1279 530 L 1278 529 L 1277 529 L 1276 529 L 1275 528 L 1274 528 L 1273 528 L 1272 527 L 1271 527 L 1270 526 L 1269 526 L 1268 526 L 1267 525 L 1266 525 L 1265 525 L 1264 525 L 1263 524 L 1262 524 L 1261 524 L 1260 523 L 1259 523 L 1258 523 L 1257 523 L 1256 522 L 1255 522 L 1254 522 L 1253 522 L 1252 522 L 1251 522 L 1250 521 L 1249 521 L 1248 521 L 1247 521 L 1246 521 L 1245 521 L 1244 520 L 1243 520 L 1242 520 L 1241 520 L 1240 520 L 1239 520 L 1238 520 L 1237 520 L 1236 520 L 1235 520 L 1234 520 L 1233 520 L 1232 519 L 1231 519 L 1230 519 L 1229 519 L 1228 519 L 1227 519 L 1226 520 L 1225 520 L 1224 520 L 1223 520 L 1222 520 L 1221 520 L 1220 520 L 1219 520 L 1218 520 L 1217 520 L 1216 520 L 1215 520 L 1214 521 L 1213 521 L 1212 521 L 1211 521 L 1210 521 L 1209 521 L 1208 521 L 1207 522 L 1206 522 L 1205 522 L 1204 522 L 1203 522 L 1202 523 L 1201 523 L 1200 523 L 1199 523 L 1198 524 L 1197 524 L 1196 524 L 1195 524 L 1194 525 L 1193 525 L 1192 525 L 1191 525 L 1190 526 L 1189 526 L 1188 527 L 1187 527 L 1186 527 L 1185 528 L 1184 528 L 1183 528 L 1182 529 L 1181 529 L 1180 530 L 1179 530 L 1178 531 L 1177 531 L 1176 531 L 1175 532 L 1174 532 L 1173 533 L 1172 533 L 1171 534 L 1170 534 L 1169 535 L 1168 535 L 1167 536 L 1166 536 L 1165 537 L 1164 538 L 1163 538 L 1162 539 L 1161 540 L 1160 540 L 1159 541 L 1158 541 L 1157 542 L 1156 543 L 1155 544 L 1154 544 L 1153 545 L 1152 546 L 1151 547 L 1150 547 L 1149 548 L 1148 549 L 1147 550 L 1146 551 L 1145 552 L 1144 552 L 1143 553 L 1142 554 L 1141 555 L 1140 556 L 1139 557 L 1138 558 L 1137 559 L 1136 560 L 1135 561 L 1134 562 L 1134 563 L 1133 564 L 1132 565 L 1131 566 L 1130 567 L 1129 568 L 1129 569 L 1128 570 L 1127 571 L 1126 572 L 1126 573 L 1125 574 L 1124 575 L 1123 576 L 1123 577 L 1122 578 L 1122 579 L 1121 580 L 1120 581 L 1120 582 L 1119 583 L 1118 584 L 1118 585 L 1117 586 L 1117 587 L 1116 588 L 1116 589 L 1115 590 L 1115 591 L 1114 592 L 1114 593 L 1113 594 L 1113 595 L 1112 596 L 1112 597 L 1111 598 L 1111 599 L 1111 600 L 1110 601 L 1110 602 L 1110 603 L 1109 604 L 1109 605 L 1108 606 L 1108 607 L 1108 608 L 1108 609 L 1107 610 L 1107 611 L 1107 612 L 1107 613 L 1106 614 L 1106 615 L 1105 616 L 1105 617 L 1105 618 L 1105 619 L 1105 620 L 1104 621 L 1104 622 L 1104 623 L 1104 624 L 1104 625 L 1103 626 L 1103 627 L 1103 628 L 1103 629 L 1103 630 L 1103 631 L 1102 632 L 1102 633 L 1102 634 L 1102 635 L 1102 636 L 1102 637 L 1102 638 L 1102 639 L 1102 640 L 1102 641 L 1102 642 L 1102 643 L 1101 644 L 1101 645 L 1101 646 L 1101 647 L 1101 648 L 1101 649 L 1101 650 L 1101 651 L 1102 652 L 1102 653 L 1102 654 L 1102 655 L 1102 656 L 1102 657 L 1102 658 L 1102 659 L 1102 660 L 1102 661 L 1102 662 L 1102 663 L 1103 664 L 1103 665 L 1103 666 L 1103 667 L 1103 668 L 1104 669 L 1104 670 L 1104 671 L 1104 672 L 1104 673 L 1104 674 L 1105 675 L 1105 676 L 1105 677 L 1105 678 L 1105 679 L 1106 680 L 1106 681 L 1107 682 L 1107 683 L 1107 684 L 1108 685 L 1108 686 L 1108 687 L 1108 688 L 1109 689 L 1109 690 L 1109 691 L 1110 692 L 1110 693 L 1111 694 L 1111 695 L 1111 696 L 1112 697 L 1112 698 L 1113 699 L 1113 700 L 1114 701 L 1114 702 L 1114 703 L 1115 704 L 1115 705 L 1116 706 L 1117 707 L 1117 708 L 1118 709 L 1118 710 L 1119 711 L 1119 712 L 1120 713 L 1120 714 L 1121 715 L 1122 716 L 1122 717 L 1123 718 L 1124 719 L 1124 720 L 1125 721 L 1126 722 L 1127 723 L 1127 724 L 1128 725 L 1129 726 L 1129 727 L 1130 728 L 1131 729 L 1132 730 L 1133 731 L 1134 732 L 1135 733 L 1136 734 L 1136 735 L 1137 736 L 1138 737 L 1139 738 L 1140 739 L 1141 740 L 1142 740 L 1143 741 L 1144 742 L 1144 743 L 1145 743 L 1146 744 L 1146 745 L 1147 745 L 1148 746 L 1148 747 L 1147 748 L 1146 749 L 1146 750 L 1145 751 L 1144 751 L 1143 752 L 1142 753 L 1141 754 L 1140 755 L 1139 756 L 1138 757 L 1138 758 L 1137 759 L 1136 759 L 1135 760 L 1134 761 L 1133 762 L 1132 763 L 1131 764 L 1130 765 L 1129 766 L 1128 767 L 1127 768 L 1126 769 L 1125 770 L 1124 770 L 1123 771 L 1122 772 L 1121 773 L 1120 774 L 1119 775 L 1118 775 L 1117 776 L 1116 777 L 1115 778 L 1114 779 L 1113 780 L 1112 781 L 1111 781 L 1110 782 L 1109 783 L 1108 784 L 1107 784 L 1106 785 L 1105 786 L 1104 787 L 1103 787 L 1102 788 L 1101 789 L 1100 790 L 1099 790 L 1098 791 L 1097 792 L 1096 792 L 1095 793 L 1094 794 L 1093 795 L 1092 795 L 1091 796 L 1090 797 L 1089 798 L 1088 798 L 1087 799 L 1086 800 L 1085 800 L 1084 801 L 1083 802 L 1082 802 L 1081 803 L 1080 803 L 1079 804 L 1078 805 L 1077 806 L 1076 806 L 1075 807 L 1074 807 L 1073 808 L 1072 808 L 1071 809 L 1070 810 L 1069 810 L 1068 811 L 1067 812 L 1066 812 L 1065 813 L 1064 813 L 1063 814 L 1062 814 L 1061 815 L 1060 815 L 1059 816 L 1058 816 L 1057 817 L 1056 817 L 1055 818 L 1054 819 L 1053 819 L 1052 820 L 1051 820 L 1050 821 L 1049 821 L 1048 822 L 1047 822 L 1046 823 L 1045 823 L 1044 824 L 1043 824 L 1042 825 L 1041 825 L 1040 825 L 1039 826 L 1038 826 L 1037 827 L 1036 828 L 1035 828 L 1034 828 L 1033 829 L 1032 829 L 1031 830 L 1030 830 L 1029 830 L 1028 831 L 1027 831 L 1026 832 L 1025 832 L 1024 832 L 1023 833 L 1022 833 L 1021 834 L 1020 834 L 1019 835 L 1018 835 L 1017 835 L 1016 835 L 1015 836 L 1014 836 L 1013 837 L 1012 837 L 1011 838 L 1010 838 L 1009 838 L 1008 839 L 1007 839 L 1006 839 L 1005 840 L 1004 840 L 1003 840 L 1002 841 L 1001 841 L 1000 841 L 999 842 L 998 842 L 997 842 L 996 843 L 995 843 L 994 843 L 993 843 L 992 844 L 991 844 L 990 844 L 989 845 L 988 845 L 987 845 L 986 846 L 985 846 L 984 846 L 983 846 L 982 847 L 981 847 L 980 847 L 979 847 L 978 848 L 977 848 L 976 848 L 975 848 L 974 848 L 973 849 L 972 849 L 971 849 L 970 849 L 969 850 L 968 850 L 967 850 L 966 850 L 965 850 L 964 851 L 963 851 L 962 851 L 961 851 L 960 851 L 959 852 L 958 852 L 957 852 L 956 852 L 955 852 L 954 853 L 953 853 L 952 853 L 951 853 L 950 853 L 949 853 L 948 853 L 947 854 L 946 854 L 945 854 L 944 854 L 943 854 L 942 854 L 941 854 L 940 855 L 939 855 L 938 855 L 937 855 L 936 855 L 935 855 L 934 855 L 933 855 L 932 855 L 931 856 L 930 856 L 929 856 L 928 856 L 927 856 L 926 856 L 925 855 L 924 854 L 924 853 L 924 852 L 924 851 L 924 850 L 924 849 L 924 848 L 925 847 L 925 846 L 925 845 L 925 844 L 925 843 L 925 842 L 925 841 L 925 840 L 925 839 L 925 838 L 925 837 L 925 836 L 925 835 L 925 834 L 925 833 L 925 832 L 925 831 L 925 830 L 925 829 L 925 828 L 925 827 L 925 826 L 925 825 L 925 824 L 925 823 L 925 822 L 925 821 L 925 820 L 925 819 L 925 818 L 925 817 L 925 816 L 925 815 L 925 814 L 925 813 L 925 812 L 925 811 L 925 810 L 925 809 L 925 808 L 925 807 L 925 806 L 925 805 L 925 804 L 925 803 L 925 802 L 925 801 L 925 800 L 925 799 L 925 798 L 925 797 L 925 796 L 925 795 L 925 794 L 925 793 L 925 792 L 925 791 L 925 790 L 925 789 L 925 788 L 925 787 L 925 786 L 925 785 L 925 784 L 925 783 L 925 782 L 925 781 L 925 780 L 925 779 L 925 778 L 925 777 L 925 776 L 925 775 L 925 774 L 925 773 L 925 772 L 925 771 L 925 770 L 925 769 L 925 768 L 925 767 L 925 766 L 925 765 L 925 764 L 925 763 L 925 762 L 925 761 L 925 760 L 925 759 L 925 758 L 925 757 L 925 756 L 925 755 L 925 754 L 925 753 L 925 752 L 925 751 L 925 750 L 925 749 L 925 748 L 925 747 L 925 746 L 925 745 L 925 744 L 925 743 L 925 742 L 925 741 L 925 740 L 925 739 L 925 738 L 925 737 L 925 736 L 925 735 L 925 734 L 925 733 L 925 732 L 925 731 L 925 730 L 925 729 L 925 728 L 925 727 L 925 726 L 925 725 L 925 724 L 925 723 L 925 722 L 925 721 L 925 720 L 925 719 L 925 718 L 925 717 L 925 716 L 925 715 L 925 714 L 925 713 L 925 712 L 925 711 L 925 710 L 925 709 L 925 708 L 925 707 L 925 706 L 925 705 L 925 704 L 925 703 L 925 702 L 925 701 L 925 700 L 925 699 L 925 698 L 925 697 L 925 696 L 925 695 L 925 694 L 925 693 L 925 692 L 925 691 L 925 690 L 925 689 L 925 688 L 925 687 L 925 686 L 925 685 L 925 684 L 925 683 L 925 682 L 925 681 L 925 680 L 925 679 L 925 678 L 925 677 L 925 676 L 925 675 L 925 674 L 925 673 L 925 672 L 924 671 L 925 670 L 926 670 L 927 670 L 928 669 L 929 669 L 930 669 L 931 669 L 932 668 L 933 668 L 934 668 L 935 668 L 936 667 L 937 667 L 938 667 L 939 666 L 940 666 L 941 665 L 942 665 L 943 665 L 944 665 L 945 664 L 946 664 L 947 664 L 948 663 L 949 663 L 950 663 L 951 662 L 952 662 L 953 661 L 954 661 L 955 660 L 956 660 L 957 659 L 958 659 L 959 659 L 960 658 L 961 658 L 962 657 L 963 657 L 964 656 L 965 655 L 966 655 L 967 655 L 968 654 L 969 653 L 970 653 L 971 652 L 972 652 L 973 651 L 974 650 L 975 650 L 976 649 L 977 649 L 978 648 L 979 647 L 980 646 L 981 646 L 982 645 L 983 645 L 983 644 L 984 643 L 985 643 L 986 642 L 987 641 L 988 640 L 989 640 L 990 639 L 991 638 L 992 637 L 993 636 L 994 635 L 995 634 L 996 633 L 997 632 L 998 631 L 999 631 L 999 630 L 1000 629 L 1001 628 L 1002 627 L 1003 626 L 1004 625 L 1005 624 L 1006 623 L 1006 622 L 1007 621 L 1008 620 L 1009 619 L 1009 618 L 1010 617 L 1011 616 L 1012 615 L 1012 614 L 1013 613 L 1014 612 L 1015 611 L 1015 610 L 1016 609 L 1017 608 L 1017 607 L 1018 606 L 1019 605 L 1019 604 L 1020 603 L 1020 602 L 1021 601 L 1021 600 L 1022 599 L 1022 598 L 1023 597 L 1023 596 L 1024 595 L 1024 594 L 1025 593 L 1025 592 L 1026 591 L 1026 590 L 1027 589 L 1027 588 L 1028 587 L 1028 586 L 1028 585 L 1029 584 L 1029 583 L 1030 582 L 1030 581 L 1030 580 L 1031 579 L 1031 578 L 1031 577 L 1032 576 L 1032 575 L 1032 574 L 1032 573 L 1033 572 L 1033 571 L 1034 570 L 1034 569 L 1034 568 L 1034 567 L 1034 566 L 1035 565 L 1035 564 L 1035 563 L 1035 562 L 1036 561 L 1036 560 L 1036 559 L 1036 558 L 1036 557 L 1036 556 L 1037 555 L 1037 554 L 1037 553 L 1037 552 L 1037 551 L 1037 550 L 1037 549 L 1038 548 L 1038 547 L 1038 546 L 1038 545 L 1038 544 L 1038 543 L 1038 542 L 1038 541 L 1038 540 L 1038 539 L 1038 538 L 1038 537 L 1038 536 L 1038 535 L 1038 534 L 1038 533 L 1038 532 L 1038 531 L 1038 530 L 1038 529 L 1038 528 L 1038 527 L 1038 526 L 1038 525 L 1038 524 L 1038 523 L 1038 522 L 1038 521 L 1038 520 L 1038 519 L 1038 518 L 1037 517 L 1037 516 L 1037 515 L 1037 514 L 1037 513 L 1037 512 L 1036 511 L 1036 510 L 1036 509 L 1036 508 L 1036 507 L 1036 506 L 1036 505 L 1036 504 L 1035 503 L 1035 502 L 1035 501 L 1034 500 L 1034 499 L 1034 498 L 1033 497 L 1033 496 L 1033 495 L 1033 494 L 1032 493 L 1032 492 L 1032 491 L 1031 490 L 1031 489 L 1031 488 L 1030 487 L 1030 486 L 1030 485 L 1029 484 L 1029 483 L 1028 482 L 1028 481 L 1028 480 L 1027 479 L 1027 478 L 1027 477 L 1026 476 L 1026 475 L 1025 474 L 1025 473 L 1024 472 L 1024 471 L 1023 470 L 1023 469 L 1022 468 L 1022 467 L 1021 466 L 1020 465 L 1020 464 L 1019 463 L 1019 462 L 1018 461 L 1017 460 L 1017 459 L 1016 458 L 1016 457 L 1015 456 L 1014 455 L 1014 454 L 1013 453 L 1012 452 L 1011 451 L 1010 450 L 1010 449 L 1009 448 L 1009 447 L 1008 446 L 1007 445 L 1006 444 L 1005 443 L 1004 442 L 1003 441 L 1003 440 L 1002 440 L 1001 439 L 1001 438 L 1000 437 L 999 436 L 998 435 L 997 434 L 996 433 L 995 432 L 994 432 L 993 431 L 992 430 L 991 429 L 990 428 L 989 427 L 988 426 L 987 425 L 986 425 L 985 424 L 984 423 L 983 422 L 982 422 L 981 421 L 980 420 L 979 419 L 978 419 L 977 418 L 976 418 L 975 417 L 974 416 L 973 416 L 972 415 L 971 414 L 970 414 L 969 413 L 968 413 L 967 412 L 966 411 L 965 411 L 964 410 L 963 410 L 962 409 L 961 409 L 960 408 L 959 408 L 958 408 L 957 407 L 956 407 L 955 406 L 954 406 L 953 405 L 952 405 L 951 404 L 950 404 L 949 403 L 948 403 L 947 403 L 946 402 L 945 402 L 944 402 L 943 401 L 942 401 L 941 401 L 940 400 L 939 400 L 938 400 L 937 400 L 936 399 L 935 399 L 934 399 L 933 399 L 932 398 L 931 398 L 930 398 L 929 397 L 928 397 L 927 397 L 926 397 L 925 397 L 924 397 L 923 397 L 922 396 L 921 396 L 920 396 L 919 396 L 918 396 L 917 396 L 916 395 L 915 395 L 914 395 L 913 395 L 912 395 L 911 395 L 910 395 L 909 395 L 908 395 L 907 395 L 906 395 L 905 395 L 904 394 L 903 394 L 902 394 L 901 394 L 900 394 L 899 394 L 898 394 L 897 394 L 896 394 L 895 394 Z
M 1192 1130 L 1193 1129 L 1194 1129 L 1195 1129 L 1196 1129 L 1197 1129 L 1198 1129 L 1199 1129 L 1200 1129 L 1201 1129 L 1202 1129 L 1203 1130 L 1204 1130 L 1205 1130 L 1206 1130 L 1207 1130 L 1208 1130 L 1209 1130 L 1210 1130 L 1211 1131 L 1212 1131 L 1213 1131 L 1214 1131 L 1215 1132 L 1216 1132 L 1217 1132 L 1218 1132 L 1219 1133 L 1220 1133 L 1221 1133 L 1222 1134 L 1223 1134 L 1224 1135 L 1225 1135 L 1226 1135 L 1227 1136 L 1228 1136 L 1229 1137 L 1230 1137 L 1231 1138 L 1232 1139 L 1233 1139 L 1234 1140 L 1235 1140 L 1236 1141 L 1237 1142 L 1238 1143 L 1239 1143 L 1240 1144 L 1241 1145 L 1242 1146 L 1243 1147 L 1244 1148 L 1245 1148 L 1246 1149 L 1247 1150 L 1247 1151 L 1248 1152 L 1249 1152 L 1250 1153 L 1250 1154 L 1251 1155 L 1252 1156 L 1253 1157 L 1253 1158 L 1254 1159 L 1255 1160 L 1255 1161 L 1256 1162 L 1256 1163 L 1257 1164 L 1258 1165 L 1258 1166 L 1259 1167 L 1259 1168 L 1260 1169 L 1260 1170 L 1261 1171 L 1261 1172 L 1262 1173 L 1262 1174 L 1262 1175 L 1262 1176 L 1263 1177 L 1263 1178 L 1263 1179 L 1264 1180 L 1264 1181 L 1264 1182 L 1264 1183 L 1265 1184 L 1265 1185 L 1265 1186 L 1265 1187 L 1265 1188 L 1265 1189 L 1266 1190 L 1266 1191 L 1266 1192 L 1266 1193 L 1266 1194 L 1266 1195 L 1266 1196 L 1266 1197 L 1266 1198 L 1266 1199 L 1266 1200 L 1266 1201 L 1266 1202 L 1266 1203 L 1266 1204 L 1266 1205 L 1265 1206 L 1265 1207 L 1265 1208 L 1265 1209 L 1265 1210 L 1264 1211 L 1264 1212 L 1264 1213 L 1264 1214 L 1264 1215 L 1263 1216 L 1263 1217 L 1263 1218 L 1262 1219 L 1262 1220 L 1262 1221 L 1261 1222 L 1261 1223 L 1260 1224 L 1260 1225 L 1259 1226 L 1259 1227 L 1259 1228 L 1258 1229 L 1258 1230 L 1257 1231 L 1256 1232 L 1256 1233 L 1255 1234 L 1255 1235 L 1254 1236 L 1253 1237 L 1252 1238 L 1252 1239 L 1251 1240 L 1250 1241 L 1249 1242 L 1248 1243 L 1247 1244 L 1246 1245 L 1246 1246 L 1245 1247 L 1244 1247 L 1243 1248 L 1242 1249 L 1241 1250 L 1240 1251 L 1239 1251 L 1238 1252 L 1237 1253 L 1236 1254 L 1235 1254 L 1234 1255 L 1233 1256 L 1232 1256 L 1231 1257 L 1230 1258 L 1229 1258 L 1228 1258 L 1227 1259 L 1226 1259 L 1225 1260 L 1224 1260 L 1223 1261 L 1222 1261 L 1221 1262 L 1220 1262 L 1219 1262 L 1218 1263 L 1217 1263 L 1216 1263 L 1215 1263 L 1214 1264 L 1213 1264 L 1212 1264 L 1211 1264 L 1210 1264 L 1209 1265 L 1208 1265 L 1207 1265 L 1206 1265 L 1205 1265 L 1204 1265 L 1203 1266 L 1202 1266 L 1201 1266 L 1200 1266 L 1199 1266 L 1198 1266 L 1197 1266 L 1196 1266 L 1195 1266 L 1194 1266 L 1193 1266 L 1192 1266 L 1191 1265 L 1190 1265 L 1189 1265 L 1188 1265 L 1187 1265 L 1186 1265 L 1185 1264 L 1184 1264 L 1183 1264 L 1182 1264 L 1181 1263 L 1180 1263 L 1179 1263 L 1178 1263 L 1177 1262 L 1176 1262 L 1175 1262 L 1174 1261 L 1173 1261 L 1172 1261 L 1171 1260 L 1170 1260 L 1169 1259 L 1168 1259 L 1167 1258 L 1166 1258 L 1165 1257 L 1164 1257 L 1163 1256 L 1162 1255 L 1161 1255 L 1160 1254 L 1159 1253 L 1158 1253 L 1157 1252 L 1156 1251 L 1155 1250 L 1154 1250 L 1153 1249 L 1152 1248 L 1151 1247 L 1150 1246 L 1149 1245 L 1148 1244 L 1147 1243 L 1146 1242 L 1145 1241 L 1145 1240 L 1144 1239 L 1143 1238 L 1142 1237 L 1142 1236 L 1141 1235 L 1140 1234 L 1140 1233 L 1139 1232 L 1138 1231 L 1138 1230 L 1137 1229 L 1137 1228 L 1136 1227 L 1136 1226 L 1135 1225 L 1135 1224 L 1135 1223 L 1134 1222 L 1134 1221 L 1133 1220 L 1133 1219 L 1133 1218 L 1132 1217 L 1132 1216 L 1132 1215 L 1132 1214 L 1131 1213 L 1131 1212 L 1131 1211 L 1131 1210 L 1131 1209 L 1131 1208 L 1130 1207 L 1130 1206 L 1130 1205 L 1130 1204 L 1130 1203 L 1130 1202 L 1130 1201 L 1130 1200 L 1130 1199 L 1130 1198 L 1130 1197 L 1130 1196 L 1130 1195 L 1130 1194 L 1130 1193 L 1130 1192 L 1130 1191 L 1130 1190 L 1130 1189 L 1130 1188 L 1130 1187 L 1131 1186 L 1131 1185 L 1131 1184 L 1131 1183 L 1131 1182 L 1132 1181 L 1132 1180 L 1132 1179 L 1132 1178 L 1133 1177 L 1133 1176 L 1133 1175 L 1133 1174 L 1134 1173 L 1135 1172 L 1135 1171 L 1135 1170 L 1136 1169 L 1136 1168 L 1137 1167 L 1137 1166 L 1138 1165 L 1138 1164 L 1139 1163 L 1139 1162 L 1140 1161 L 1141 1160 L 1141 1159 L 1142 1158 L 1143 1157 L 1144 1156 L 1144 1155 L 1145 1154 L 1146 1153 L 1147 1152 L 1148 1151 L 1149 1150 L 1150 1149 L 1151 1148 L 1152 1147 L 1153 1146 L 1154 1145 L 1155 1144 L 1156 1144 L 1157 1143 L 1158 1142 L 1159 1142 L 1160 1141 L 1161 1140 L 1162 1139 L 1163 1139 L 1164 1138 L 1165 1138 L 1166 1137 L 1167 1137 L 1168 1136 L 1169 1136 L 1170 1135 L 1171 1135 L 1172 1134 L 1173 1134 L 1174 1133 L 1175 1133 L 1176 1133 L 1177 1133 L 1178 1132 L 1179 1132 L 1180 1132 L 1181 1131 L 1182 1131 L 1183 1131 L 1184 1131 L 1185 1131 L 1186 1130 L 1187 1130 L 1188 1130 L 1189 1130 L 1190 1130 L 1191 1130 Z
M 594 1130 L 595 1129 L 596 1129 L 597 1129 L 598 1129 L 599 1129 L 600 1129 L 601 1129 L 602 1129 L 603 1129 L 604 1129 L 605 1129 L 606 1130 L 607 1130 L 608 1130 L 609 1130 L 610 1130 L 611 1130 L 612 1130 L 613 1130 L 614 1131 L 615 1131 L 616 1131 L 617 1131 L 618 1132 L 619 1132 L 620 1132 L 621 1132 L 622 1133 L 623 1133 L 624 1134 L 625 1134 L 626 1134 L 627 1135 L 628 1135 L 629 1136 L 630 1136 L 631 1137 L 632 1137 L 633 1138 L 634 1138 L 635 1139 L 636 1139 L 637 1140 L 638 1140 L 639 1141 L 640 1142 L 641 1143 L 642 1144 L 643 1145 L 644 1145 L 645 1146 L 646 1147 L 647 1148 L 648 1149 L 649 1150 L 650 1151 L 651 1152 L 652 1153 L 653 1154 L 654 1155 L 654 1156 L 655 1157 L 656 1158 L 656 1159 L 657 1160 L 658 1161 L 658 1162 L 659 1163 L 660 1164 L 660 1165 L 661 1166 L 661 1167 L 662 1168 L 662 1169 L 663 1170 L 663 1171 L 663 1172 L 664 1173 L 664 1174 L 665 1175 L 665 1176 L 665 1177 L 666 1178 L 666 1179 L 666 1180 L 666 1181 L 667 1182 L 667 1183 L 667 1184 L 667 1185 L 667 1186 L 668 1187 L 668 1188 L 668 1189 L 668 1190 L 668 1191 L 668 1192 L 668 1193 L 668 1194 L 668 1195 L 668 1196 L 668 1197 L 668 1198 L 668 1199 L 668 1200 L 668 1201 L 668 1202 L 668 1203 L 668 1204 L 668 1205 L 668 1206 L 668 1207 L 667 1208 L 667 1209 L 667 1210 L 667 1211 L 667 1212 L 667 1213 L 666 1214 L 666 1215 L 666 1216 L 666 1217 L 665 1218 L 665 1219 L 664 1220 L 664 1221 L 664 1222 L 663 1223 L 663 1224 L 663 1225 L 662 1226 L 662 1227 L 661 1228 L 661 1229 L 660 1230 L 660 1231 L 659 1232 L 658 1233 L 658 1234 L 657 1235 L 656 1236 L 656 1237 L 655 1238 L 654 1239 L 653 1240 L 653 1241 L 652 1242 L 651 1243 L 650 1244 L 649 1245 L 648 1246 L 647 1247 L 646 1248 L 645 1249 L 644 1250 L 643 1250 L 642 1251 L 641 1252 L 640 1252 L 639 1253 L 638 1254 L 637 1255 L 636 1255 L 635 1256 L 634 1257 L 633 1257 L 632 1257 L 631 1258 L 630 1259 L 629 1259 L 628 1260 L 627 1260 L 626 1261 L 625 1261 L 624 1261 L 623 1262 L 622 1262 L 621 1262 L 620 1263 L 619 1263 L 618 1263 L 617 1264 L 616 1264 L 615 1264 L 614 1264 L 613 1265 L 612 1265 L 611 1265 L 610 1265 L 609 1265 L 608 1265 L 607 1265 L 606 1265 L 605 1266 L 604 1266 L 603 1266 L 602 1266 L 601 1266 L 600 1266 L 599 1266 L 598 1266 L 597 1266 L 596 1266 L 595 1266 L 594 1265 L 593 1265 L 592 1265 L 591 1265 L 590 1265 L 589 1265 L 588 1265 L 587 1264 L 586 1264 L 585 1264 L 584 1264 L 583 1263 L 582 1263 L 581 1263 L 580 1262 L 579 1262 L 578 1262 L 577 1261 L 576 1261 L 575 1261 L 574 1260 L 573 1260 L 572 1259 L 571 1259 L 570 1258 L 569 1258 L 568 1257 L 567 1257 L 566 1256 L 565 1255 L 564 1255 L 563 1255 L 562 1254 L 561 1253 L 560 1252 L 559 1251 L 558 1251 L 557 1250 L 556 1249 L 555 1248 L 554 1247 L 553 1246 L 552 1245 L 551 1244 L 550 1243 L 549 1242 L 548 1241 L 547 1240 L 547 1239 L 546 1238 L 545 1237 L 544 1236 L 544 1235 L 543 1234 L 542 1233 L 541 1232 L 541 1231 L 540 1230 L 540 1229 L 539 1228 L 539 1227 L 538 1226 L 538 1225 L 537 1224 L 537 1223 L 537 1222 L 536 1221 L 536 1220 L 536 1219 L 535 1218 L 535 1217 L 535 1216 L 534 1215 L 534 1214 L 534 1213 L 534 1212 L 533 1211 L 533 1210 L 533 1209 L 533 1208 L 533 1207 L 533 1206 L 532 1205 L 532 1204 L 532 1203 L 532 1202 L 532 1201 L 532 1200 L 532 1199 L 532 1198 L 532 1197 L 532 1196 L 532 1195 L 532 1194 L 532 1193 L 532 1192 L 532 1191 L 532 1190 L 532 1189 L 533 1188 L 533 1187 L 533 1186 L 533 1185 L 533 1184 L 534 1183 L 534 1182 L 534 1181 L 534 1180 L 535 1179 L 535 1178 L 535 1177 L 536 1176 L 536 1175 L 536 1174 L 537 1173 L 537 1172 L 537 1171 L 538 1170 L 538 1169 L 539 1168 L 540 1167 L 540 1166 L 540 1165 L 541 1164 L 542 1163 L 542 1162 L 543 1161 L 543 1160 L 544 1159 L 545 1158 L 546 1157 L 546 1156 L 547 1155 L 548 1154 L 549 1153 L 550 1152 L 551 1151 L 551 1150 L 552 1149 L 553 1148 L 554 1148 L 555 1147 L 556 1146 L 557 1145 L 558 1144 L 559 1143 L 560 1143 L 561 1142 L 562 1141 L 563 1140 L 564 1140 L 565 1139 L 566 1138 L 567 1138 L 568 1137 L 569 1137 L 570 1136 L 571 1136 L 572 1135 L 573 1135 L 574 1134 L 575 1134 L 576 1134 L 577 1133 L 578 1133 L 579 1133 L 580 1132 L 581 1132 L 582 1132 L 583 1132 L 584 1131 L 585 1131 L 586 1131 L 587 1130 L 588 1130 L 589 1130 L 590 1130 L 591 1130 L 592 1130 L 593 1130 Z
M 1225 570 L 1226 569 L 1227 569 L 1228 569 L 1229 569 L 1230 569 L 1231 569 L 1232 569 L 1233 569 L 1234 570 L 1235 570 L 1236 570 L 1237 570 L 1238 570 L 1239 570 L 1240 570 L 1241 570 L 1242 571 L 1243 571 L 1244 571 L 1245 571 L 1246 571 L 1247 571 L 1248 572 L 1249 572 L 1250 572 L 1251 573 L 1252 573 L 1253 573 L 1254 574 L 1255 574 L 1256 575 L 1257 575 L 1258 575 L 1259 575 L 1260 576 L 1261 576 L 1262 577 L 1263 577 L 1264 578 L 1265 578 L 1266 579 L 1267 579 L 1268 580 L 1269 580 L 1270 581 L 1271 582 L 1272 583 L 1273 583 L 1274 584 L 1275 585 L 1276 585 L 1277 586 L 1278 587 L 1279 588 L 1280 589 L 1281 589 L 1282 590 L 1282 591 L 1283 591 L 1284 592 L 1285 593 L 1286 594 L 1286 595 L 1287 596 L 1288 597 L 1289 597 L 1290 598 L 1290 599 L 1291 600 L 1292 601 L 1292 602 L 1293 603 L 1294 604 L 1295 605 L 1295 606 L 1296 607 L 1296 608 L 1297 609 L 1298 610 L 1298 611 L 1299 612 L 1299 613 L 1300 614 L 1300 615 L 1301 616 L 1301 617 L 1301 618 L 1302 619 L 1302 620 L 1303 621 L 1303 622 L 1303 623 L 1303 624 L 1304 625 L 1304 626 L 1304 627 L 1305 628 L 1305 629 L 1305 630 L 1305 631 L 1306 632 L 1306 633 L 1306 634 L 1306 635 L 1306 636 L 1306 637 L 1307 638 L 1307 639 L 1307 640 L 1307 641 L 1307 642 L 1307 643 L 1307 644 L 1307 645 L 1307 646 L 1307 647 L 1307 648 L 1307 649 L 1307 650 L 1307 651 L 1307 652 L 1307 653 L 1307 654 L 1307 655 L 1307 656 L 1307 657 L 1306 658 L 1306 659 L 1306 660 L 1306 661 L 1306 662 L 1306 663 L 1305 664 L 1305 665 L 1305 666 L 1304 667 L 1304 668 L 1304 669 L 1304 670 L 1303 671 L 1303 672 L 1303 673 L 1302 674 L 1302 675 L 1302 676 L 1301 677 L 1301 678 L 1300 679 L 1300 680 L 1299 681 L 1299 682 L 1298 683 L 1298 684 L 1297 685 L 1297 686 L 1296 687 L 1295 688 L 1295 689 L 1294 690 L 1294 691 L 1293 692 L 1292 693 L 1292 694 L 1291 695 L 1290 696 L 1289 697 L 1288 698 L 1287 699 L 1287 700 L 1286 701 L 1285 701 L 1285 702 L 1284 703 L 1283 703 L 1282 704 L 1282 705 L 1281 706 L 1280 706 L 1279 707 L 1278 708 L 1277 709 L 1276 709 L 1275 710 L 1274 711 L 1273 712 L 1272 712 L 1271 713 L 1270 714 L 1269 714 L 1268 715 L 1267 715 L 1266 716 L 1265 716 L 1264 717 L 1263 717 L 1262 718 L 1261 718 L 1260 719 L 1259 719 L 1258 720 L 1257 720 L 1256 720 L 1255 721 L 1254 721 L 1253 721 L 1252 722 L 1251 722 L 1250 722 L 1249 723 L 1248 723 L 1247 723 L 1246 723 L 1245 724 L 1244 724 L 1243 724 L 1242 724 L 1241 724 L 1240 724 L 1239 725 L 1238 725 L 1237 725 L 1236 725 L 1235 725 L 1234 725 L 1233 725 L 1232 725 L 1231 725 L 1230 725 L 1229 725 L 1228 725 L 1227 725 L 1226 725 L 1225 725 L 1224 725 L 1223 725 L 1222 725 L 1221 725 L 1220 725 L 1219 724 L 1218 724 L 1217 724 L 1216 724 L 1215 724 L 1214 724 L 1213 723 L 1212 723 L 1211 723 L 1210 723 L 1209 722 L 1208 722 L 1207 722 L 1206 722 L 1205 721 L 1204 721 L 1203 721 L 1202 720 L 1201 720 L 1200 719 L 1199 719 L 1198 719 L 1197 718 L 1196 718 L 1195 717 L 1194 717 L 1193 716 L 1192 716 L 1191 715 L 1190 715 L 1189 714 L 1188 713 L 1187 713 L 1186 712 L 1185 711 L 1184 710 L 1183 710 L 1182 709 L 1181 708 L 1180 707 L 1179 707 L 1178 706 L 1177 705 L 1176 704 L 1175 703 L 1174 702 L 1173 701 L 1172 700 L 1171 699 L 1170 698 L 1169 697 L 1169 696 L 1168 695 L 1167 694 L 1166 693 L 1166 692 L 1165 691 L 1164 690 L 1163 689 L 1163 688 L 1162 687 L 1162 686 L 1161 685 L 1160 684 L 1160 683 L 1159 682 L 1159 681 L 1159 680 L 1158 679 L 1158 678 L 1157 677 L 1157 676 L 1156 675 L 1156 674 L 1156 673 L 1156 672 L 1155 671 L 1155 670 L 1155 669 L 1154 668 L 1154 667 L 1154 666 L 1154 665 L 1153 664 L 1153 663 L 1153 662 L 1153 661 L 1152 660 L 1152 659 L 1152 658 L 1152 657 L 1152 656 L 1152 655 L 1152 654 L 1151 653 L 1151 652 L 1151 651 L 1151 650 L 1151 649 L 1151 648 L 1151 647 L 1151 646 L 1151 645 L 1151 644 L 1151 643 L 1151 642 L 1152 641 L 1152 640 L 1152 639 L 1152 638 L 1152 637 L 1152 636 L 1152 635 L 1153 634 L 1153 633 L 1153 632 L 1153 631 L 1153 630 L 1153 629 L 1154 628 L 1154 627 L 1154 626 L 1155 625 L 1155 624 L 1155 623 L 1156 622 L 1156 621 L 1156 620 L 1157 619 L 1157 618 L 1157 617 L 1158 616 L 1159 615 L 1159 614 L 1160 613 L 1160 612 L 1160 611 L 1161 610 L 1161 609 L 1162 608 L 1163 607 L 1163 606 L 1164 605 L 1165 604 L 1165 603 L 1166 602 L 1167 601 L 1168 600 L 1168 599 L 1169 598 L 1170 597 L 1171 596 L 1172 595 L 1173 594 L 1173 593 L 1174 592 L 1175 592 L 1176 591 L 1177 590 L 1178 589 L 1179 588 L 1180 587 L 1181 586 L 1182 585 L 1183 585 L 1184 584 L 1185 583 L 1186 583 L 1187 582 L 1188 581 L 1189 581 L 1190 580 L 1191 580 L 1192 579 L 1193 578 L 1194 578 L 1195 577 L 1196 577 L 1197 576 L 1198 576 L 1199 575 L 1200 575 L 1201 575 L 1202 574 L 1203 574 L 1204 574 L 1205 573 L 1206 573 L 1207 573 L 1208 572 L 1209 572 L 1210 572 L 1211 572 L 1212 571 L 1213 571 L 1214 571 L 1215 571 L 1216 571 L 1217 570 L 1218 570 L 1219 570 L 1220 570 L 1221 570 L 1222 570 L 1223 570 L 1224 570 Z
M 566 570 L 567 569 L 568 569 L 569 569 L 570 569 L 571 569 L 572 569 L 573 569 L 574 570 L 575 570 L 576 570 L 577 570 L 578 570 L 579 570 L 580 570 L 581 570 L 582 571 L 583 571 L 584 571 L 585 571 L 586 571 L 587 571 L 588 572 L 589 572 L 590 572 L 591 572 L 592 573 L 593 573 L 594 573 L 595 574 L 596 574 L 597 574 L 598 575 L 599 575 L 600 575 L 601 576 L 602 576 L 603 577 L 604 577 L 605 578 L 606 578 L 607 579 L 608 579 L 609 580 L 610 581 L 611 581 L 612 582 L 613 583 L 614 583 L 615 584 L 616 585 L 617 585 L 618 586 L 619 587 L 620 588 L 621 589 L 622 589 L 623 590 L 623 591 L 624 592 L 625 592 L 626 593 L 626 594 L 627 594 L 628 595 L 628 596 L 629 597 L 630 598 L 631 599 L 631 600 L 632 601 L 633 602 L 634 603 L 634 604 L 635 605 L 636 606 L 636 607 L 637 608 L 638 609 L 638 610 L 639 611 L 639 612 L 640 613 L 640 614 L 640 615 L 641 616 L 642 617 L 642 618 L 642 619 L 643 620 L 643 621 L 643 622 L 644 623 L 644 624 L 645 625 L 645 626 L 645 627 L 645 628 L 646 629 L 646 630 L 646 631 L 646 632 L 646 633 L 647 634 L 647 635 L 647 636 L 647 637 L 647 638 L 647 639 L 648 640 L 648 641 L 648 642 L 648 643 L 648 644 L 648 645 L 648 646 L 648 647 L 648 648 L 648 649 L 648 650 L 648 651 L 648 652 L 648 653 L 648 654 L 647 655 L 647 656 L 647 657 L 647 658 L 647 659 L 647 660 L 646 661 L 646 662 L 646 663 L 646 664 L 646 665 L 646 666 L 645 667 L 645 668 L 645 669 L 644 670 L 644 671 L 644 672 L 643 673 L 643 674 L 643 675 L 642 676 L 642 677 L 642 678 L 641 679 L 640 680 L 640 681 L 640 682 L 639 683 L 638 684 L 638 685 L 637 686 L 637 687 L 636 688 L 636 689 L 635 690 L 634 691 L 633 692 L 633 693 L 632 694 L 631 695 L 630 696 L 630 697 L 629 698 L 628 699 L 627 700 L 626 701 L 625 702 L 624 703 L 623 704 L 622 705 L 621 706 L 620 707 L 619 708 L 618 708 L 617 709 L 616 710 L 615 711 L 614 711 L 613 712 L 612 713 L 611 713 L 610 714 L 609 715 L 608 715 L 607 716 L 606 716 L 605 717 L 604 717 L 603 718 L 602 718 L 601 719 L 600 719 L 599 719 L 598 720 L 597 720 L 596 721 L 595 721 L 594 721 L 593 722 L 592 722 L 591 722 L 590 723 L 589 723 L 588 723 L 587 723 L 586 724 L 585 724 L 584 724 L 583 724 L 582 724 L 581 724 L 580 725 L 579 725 L 578 725 L 577 725 L 576 725 L 575 725 L 574 725 L 573 725 L 572 725 L 571 725 L 570 725 L 569 725 L 568 725 L 567 725 L 566 725 L 565 725 L 564 725 L 563 725 L 562 725 L 561 725 L 560 725 L 559 724 L 558 724 L 557 724 L 556 724 L 555 724 L 554 724 L 553 723 L 552 723 L 551 723 L 550 723 L 549 722 L 548 722 L 547 722 L 546 722 L 545 721 L 544 721 L 543 720 L 542 720 L 541 720 L 540 719 L 539 719 L 538 718 L 537 718 L 536 717 L 535 717 L 534 716 L 533 716 L 532 715 L 531 715 L 530 714 L 529 713 L 528 713 L 527 712 L 526 711 L 525 711 L 524 710 L 523 709 L 522 708 L 521 708 L 520 707 L 519 706 L 518 705 L 517 704 L 516 703 L 515 703 L 514 702 L 514 701 L 513 701 L 512 700 L 512 699 L 511 698 L 510 697 L 509 696 L 508 695 L 508 694 L 507 693 L 506 692 L 506 691 L 505 690 L 504 689 L 504 688 L 503 687 L 502 686 L 502 685 L 501 684 L 501 683 L 500 682 L 500 681 L 499 680 L 499 679 L 498 678 L 498 677 L 498 676 L 497 675 L 497 674 L 496 673 L 496 672 L 496 671 L 495 670 L 495 669 L 495 668 L 495 667 L 494 666 L 494 665 L 494 664 L 494 663 L 493 662 L 493 661 L 493 660 L 493 659 L 493 658 L 493 657 L 493 656 L 492 655 L 492 654 L 492 653 L 492 652 L 492 651 L 492 650 L 492 649 L 492 648 L 492 647 L 492 646 L 492 645 L 492 644 L 492 643 L 492 642 L 492 641 L 492 640 L 492 639 L 493 638 L 493 637 L 493 636 L 493 635 L 493 634 L 493 633 L 494 632 L 494 631 L 494 630 L 494 629 L 495 628 L 495 627 L 495 626 L 495 625 L 496 624 L 496 623 L 496 622 L 497 621 L 497 620 L 497 619 L 498 618 L 498 617 L 499 616 L 499 615 L 500 614 L 500 613 L 501 612 L 501 611 L 501 610 L 502 609 L 503 608 L 504 607 L 504 606 L 505 605 L 505 604 L 506 603 L 507 602 L 507 601 L 508 600 L 509 599 L 510 598 L 510 597 L 511 596 L 512 596 L 512 595 L 513 594 L 514 594 L 514 593 L 515 592 L 516 591 L 517 591 L 517 590 L 518 589 L 519 589 L 520 588 L 521 587 L 522 586 L 523 585 L 524 585 L 525 584 L 526 583 L 527 583 L 528 582 L 529 581 L 530 580 L 531 580 L 532 579 L 533 579 L 534 578 L 535 578 L 536 577 L 537 577 L 538 576 L 539 576 L 540 575 L 541 575 L 542 575 L 543 575 L 544 574 L 545 574 L 546 573 L 547 573 L 548 573 L 549 572 L 550 572 L 551 572 L 552 572 L 553 571 L 554 571 L 555 571 L 556 571 L 557 571 L 558 570 L 559 570 L 560 570 L 561 570 L 562 570 L 563 570 L 564 570 L 565 570 Z
M 893 445 L 894 444 L 895 444 L 896 444 L 897 444 L 898 444 L 899 444 L 900 444 L 901 444 L 902 444 L 903 444 L 904 444 L 905 444 L 906 444 L 907 445 L 908 445 L 909 445 L 910 445 L 911 445 L 912 445 L 913 445 L 914 446 L 915 446 L 916 446 L 917 446 L 918 446 L 919 446 L 920 447 L 921 447 L 922 447 L 923 448 L 924 448 L 925 448 L 926 448 L 927 449 L 928 449 L 929 449 L 930 450 L 931 450 L 932 450 L 933 451 L 934 451 L 935 452 L 936 452 L 937 453 L 938 453 L 939 453 L 940 454 L 941 454 L 942 455 L 943 456 L 944 456 L 945 457 L 946 457 L 947 458 L 948 459 L 949 459 L 950 460 L 951 461 L 952 461 L 953 462 L 954 463 L 955 464 L 956 464 L 957 465 L 958 466 L 959 467 L 960 468 L 961 469 L 962 470 L 963 471 L 964 472 L 965 473 L 966 474 L 967 475 L 968 476 L 968 477 L 969 478 L 970 479 L 971 480 L 972 481 L 972 482 L 973 483 L 974 484 L 974 485 L 975 486 L 975 487 L 976 488 L 977 489 L 977 490 L 978 491 L 979 492 L 979 493 L 980 494 L 980 495 L 980 496 L 981 497 L 981 498 L 982 499 L 982 500 L 982 501 L 983 502 L 983 503 L 984 504 L 984 505 L 984 506 L 985 507 L 985 508 L 985 509 L 986 510 L 986 511 L 986 512 L 986 513 L 987 514 L 987 515 L 987 516 L 987 517 L 987 518 L 988 519 L 988 520 L 988 521 L 988 522 L 988 523 L 988 524 L 988 525 L 988 526 L 989 527 L 989 528 L 989 529 L 988 530 L 988 531 L 988 532 L 988 533 L 988 534 L 988 535 L 989 536 L 989 537 L 989 538 L 989 539 L 988 540 L 988 541 L 988 542 L 988 543 L 988 544 L 988 545 L 988 546 L 988 547 L 987 548 L 987 549 L 987 550 L 987 551 L 986 552 L 986 553 L 986 554 L 986 555 L 986 556 L 985 557 L 985 558 L 985 559 L 984 560 L 984 561 L 984 562 L 983 563 L 983 564 L 983 565 L 982 566 L 982 567 L 981 568 L 981 569 L 981 570 L 980 571 L 980 572 L 979 573 L 979 574 L 978 575 L 978 576 L 977 577 L 976 578 L 976 579 L 975 580 L 975 581 L 974 582 L 973 583 L 973 584 L 972 585 L 971 586 L 970 587 L 970 588 L 969 589 L 968 590 L 967 591 L 966 592 L 966 593 L 965 594 L 964 594 L 964 595 L 963 596 L 962 597 L 961 598 L 960 598 L 959 599 L 958 600 L 958 601 L 957 602 L 956 602 L 955 603 L 954 604 L 953 605 L 952 605 L 951 606 L 950 607 L 949 607 L 948 608 L 947 609 L 946 609 L 945 610 L 944 610 L 943 611 L 942 612 L 941 612 L 940 613 L 939 613 L 938 614 L 937 614 L 936 615 L 935 615 L 934 615 L 933 616 L 932 616 L 931 617 L 930 617 L 929 617 L 928 618 L 927 618 L 926 618 L 925 619 L 924 619 L 923 619 L 922 620 L 921 620 L 920 620 L 919 620 L 918 620 L 917 621 L 916 621 L 915 621 L 914 621 L 913 621 L 912 621 L 911 622 L 910 622 L 909 622 L 908 622 L 907 622 L 906 622 L 905 622 L 904 622 L 903 622 L 902 622 L 901 622 L 900 622 L 899 622 L 898 622 L 897 622 L 896 622 L 895 622 L 894 622 L 893 622 L 892 622 L 891 622 L 890 622 L 889 622 L 888 622 L 887 621 L 886 621 L 885 621 L 884 621 L 883 621 L 882 621 L 881 620 L 880 620 L 879 620 L 878 620 L 877 619 L 876 619 L 875 619 L 874 619 L 873 618 L 872 618 L 871 618 L 870 617 L 869 617 L 868 616 L 867 616 L 866 616 L 865 615 L 864 615 L 863 614 L 862 614 L 861 614 L 860 613 L 859 613 L 858 612 L 857 612 L 856 611 L 855 610 L 854 610 L 853 609 L 852 608 L 851 608 L 850 607 L 849 606 L 848 606 L 847 605 L 846 604 L 845 603 L 844 603 L 843 602 L 842 601 L 841 600 L 840 599 L 839 598 L 838 598 L 837 597 L 837 596 L 836 595 L 835 594 L 834 594 L 833 593 L 833 592 L 832 591 L 831 590 L 830 589 L 829 588 L 829 587 L 828 586 L 827 585 L 826 584 L 826 583 L 825 582 L 825 581 L 824 580 L 823 579 L 823 578 L 822 577 L 821 576 L 821 575 L 820 574 L 820 573 L 819 572 L 819 571 L 819 570 L 818 569 L 818 568 L 817 567 L 817 566 L 816 565 L 816 564 L 816 563 L 815 562 L 815 561 L 815 560 L 814 559 L 814 558 L 814 557 L 814 556 L 813 555 L 813 554 L 813 553 L 813 552 L 812 551 L 812 550 L 812 549 L 812 548 L 812 547 L 811 546 L 811 545 L 811 544 L 811 543 L 811 542 L 811 541 L 811 540 L 811 539 L 810 538 L 810 537 L 810 536 L 811 535 L 811 534 L 811 533 L 811 532 L 811 531 L 811 530 L 811 529 L 811 528 L 810 527 L 811 526 L 811 525 L 811 524 L 811 523 L 811 522 L 811 521 L 811 520 L 811 519 L 812 518 L 812 517 L 812 516 L 812 515 L 813 514 L 813 513 L 813 512 L 814 511 L 814 510 L 814 509 L 814 508 L 814 507 L 815 506 L 815 505 L 816 504 L 816 503 L 816 502 L 816 501 L 817 500 L 817 499 L 818 498 L 818 497 L 819 496 L 819 495 L 820 494 L 820 493 L 821 492 L 821 491 L 822 490 L 822 489 L 823 488 L 824 487 L 824 486 L 825 485 L 825 484 L 826 483 L 827 482 L 827 481 L 828 480 L 829 479 L 830 478 L 831 477 L 832 476 L 832 475 L 833 474 L 834 473 L 835 472 L 836 471 L 837 470 L 838 469 L 839 468 L 840 467 L 841 466 L 842 466 L 842 465 L 843 464 L 844 464 L 845 463 L 846 462 L 847 462 L 848 461 L 849 460 L 850 459 L 851 459 L 852 458 L 853 457 L 854 457 L 855 456 L 856 456 L 857 455 L 858 455 L 859 454 L 860 454 L 861 453 L 862 453 L 863 452 L 864 452 L 865 451 L 866 451 L 867 450 L 868 450 L 869 450 L 870 449 L 871 449 L 872 449 L 873 448 L 874 448 L 875 448 L 876 448 L 877 447 L 878 447 L 879 447 L 880 447 L 881 446 L 882 446 L 883 446 L 884 446 L 885 446 L 886 445 L 887 445 L 888 445 L 889 445 L 890 445 L 891 445 L 892 445 Z" fill="#FF5722" fill-rule="evenodd"/>
</svg>
