<svg xmlns="http://www.w3.org/2000/svg" viewBox="0 0 96 44" width="96" height="44" fill="none">
  
  <path d="M 48 12 L 48 32 M 42 22 L 54 22" stroke="#FF5722" stroke-width="3.2" stroke-linecap="square"></path>
  
  <path d="M 38 22&#xA;           A 7 7 0 1 0 31 29&#xA;           L 38 29" fill="none" stroke="#FF5722" stroke-width="3.2" stroke-linecap="round" stroke-linejoin="miter"></path>
  
  <path d="M 2 22&#xA;           Q 14 17 22 21&#xA;           Q 24 22 22 23&#xA;           Q 14 27 2 22 Z" fill="#FF5722"></path>
  
  <path d="M 58 22&#xA;           A 7 7 0 1 1 65 29&#xA;           L 58 29" fill="none" stroke="#FF5722" stroke-width="3.2" stroke-linecap="round" stroke-linejoin="miter"></path>
  
  <path d="M 94 22&#xA;           Q 82 17 74 21&#xA;           Q 72 22 74 23&#xA;           Q 82 27 94 22 Z" fill="#FF5722"></path>
</svg>