<?xml version="1.0" encoding="UTF-8"?>
<svg width="960" height="400" viewBox="0 0 960 400" xmlns="http://www.w3.org/2000/svg">
  <path d="M 748 8 L 747 9 L 746 9 L 745 9 L 744 9 L 743 9 L 742 9 L 741 9 L 740 9 L 739 9 L 738 9 L 737 9 L 736 10 L 735 10 L 734 10 L 733 10 L 732 10 L 731 10 L 730 10 L 729 10 L 728 11 L 727 11 L 726 11 L 725 11 L 724 11 L 723 11 L 722 12 L 721 12 L 720 12 L 719 12 L 718 12 L 717 13 L 716 13 L 715 13 L 714 14 L 713 14 L 712 14 L 711 14 L 710 15 L 709 15 L 708 15 L 707 16 L 706 16 L 705 16 L 704 17 L 703 17 L 702 17 L 701 18 L 700 18 L 699 19 L 698 19 L 697 19 L 696 20 L 695 20 L 694 21 L 693 21 L 692 21 L 691 22 L 690 22 L 689 23 L 688 23 L 687 24 L 686 24 L 685 25 L 684 25 L 683 26 L 682 26 L 681 27 L 680 27 L 679 28 L 678 29 L 677 29 L 676 30 L 675 30 L 674 31 L 673 32 L 672 32 L 671 33 L 670 34 L 669 34 L 668 35 L 667 36 L 666 36 L 665 37 L 664 38 L 663 38 L 662 39 L 661 40 L 660 41 L 659 42 L 658 42 L 657 43 L 656 44 L 655 45 L 654 46 L 653 47 L 652 48 L 651 49 L 650 50 L 649 51 L 648 52 L 647 53 L 646 54 L 645 55 L 644 56 L 643 57 L 642 58 L 641 59 L 640 60 L 639 61 L 639 62 L 638 63 L 637 64 L 636 65 L 635 66 L 634 67 L 634 68 L 633 69 L 632 70 L 631 71 L 631 72 L 630 73 L 629 74 L 629 75 L 628 76 L 627 77 L 626 78 L 626 79 L 625 80 L 625 81 L 624 82 L 623 83 L 623 84 L 622 85 L 621 86 L 621 87 L 620 88 L 620 89 L 619 90 L 619 91 L 618 92 L 618 93 L 617 94 L 617 95 L 616 96 L 616 97 L 615 98 L 615 99 L 614 100 L 614 101 L 613 102 L 613 103 L 612 104 L 612 105 L 612 106 L 611 107 L 611 108 L 610 109 L 610 110 L 610 111 L 609 112 L 609 113 L 609 114 L 608 115 L 608 116 L 608 117 L 607 118 L 607 119 L 607 120 L 606 121 L 606 122 L 606 123 L 606 124 L 605 125 L 605 126 L 605 127 L 604 128 L 604 129 L 604 130 L 604 131 L 604 132 L 603 133 L 603 134 L 603 135 L 603 136 L 602 137 L 602 138 L 602 139 L 602 140 L 602 141 L 602 142 L 601 143 L 601 144 L 601 145 L 601 146 L 601 147 L 601 148 L 600 149 L 600 150 L 600 151 L 600 152 L 600 153 L 600 154 L 600 155 L 600 156 L 599 157 L 599 158 L 599 159 L 599 160 L 599 161 L 599 162 L 599 163 L 599 164 L 599 165 L 599 166 L 599 167 L 599 168 L 598 169 L 598 170 L 598 171 L 598 172 L 598 173 L 598 174 L 598 175 L 598 176 L 598 177 L 598 178 L 598 179 L 598 180 L 598 181 L 598 182 L 598 183 L 598 184 L 598 185 L 598 186 L 598 187 L 598 188 L 597 189 L 596 189 L 595 189 L 594 189 L 593 189 L 592 189 L 591 189 L 590 189 L 589 189 L 588 189 L 587 189 L 586 189 L 585 189 L 584 189 L 583 189 L 582 189 L 581 189 L 580 189 L 579 189 L 578 189 L 577 189 L 576 189 L 575 189 L 574 189 L 573 189 L 572 189 L 571 189 L 570 189 L 569 189 L 568 189 L 567 189 L 566 189 L 565 189 L 564 189 L 563 189 L 562 189 L 561 189 L 560 189 L 559 189 L 558 189 L 557 189 L 556 189 L 555 189 L 554 189 L 553 189 L 552 189 L 551 189 L 550 189 L 549 189 L 548 188 L 547 188 L 546 188 L 545 188 L 544 188 L 543 188 L 542 188 L 541 188 L 540 188 L 539 188 L 538 188 L 537 188 L 536 188 L 535 188 L 534 188 L 533 188 L 532 188 L 531 188 L 530 188 L 529 188 L 528 188 L 527 188 L 526 188 L 525 188 L 524 188 L 523 188 L 522 188 L 521 188 L 520 188 L 519 188 L 518 188 L 517 188 L 516 188 L 515 188 L 514 188 L 513 188 L 512 188 L 511 188 L 510 188 L 509 188 L 508 188 L 507 188 L 506 188 L 505 188 L 504 188 L 503 188 L 502 188 L 501 188 L 500 188 L 499 188 L 498 188 L 497 188 L 496 188 L 495 188 L 494 188 L 493 188 L 492 188 L 491 188 L 490 187 L 490 186 L 490 185 L 490 184 L 490 183 L 490 182 L 490 181 L 490 180 L 490 179 L 490 178 L 490 177 L 490 176 L 490 175 L 490 174 L 490 173 L 490 172 L 490 171 L 490 170 L 490 169 L 490 168 L 490 167 L 490 166 L 490 165 L 490 164 L 490 163 L 490 162 L 490 161 L 490 160 L 490 159 L 490 158 L 490 157 L 490 156 L 490 155 L 490 154 L 490 153 L 490 152 L 490 151 L 490 150 L 490 149 L 490 148 L 490 147 L 490 146 L 490 145 L 490 144 L 490 143 L 490 142 L 490 141 L 490 140 L 490 139 L 490 138 L 490 137 L 490 136 L 490 135 L 490 134 L 490 133 L 490 132 L 490 131 L 490 130 L 490 129 L 490 128 L 490 127 L 490 126 L 490 125 L 490 124 L 490 123 L 490 122 L 490 121 L 490 120 L 490 119 L 490 118 L 490 117 L 490 116 L 490 115 L 490 114 L 490 113 L 490 112 L 490 111 L 490 110 L 490 109 L 490 108 L 490 107 L 490 106 L 490 105 L 489 105 L 488 105 L 487 105 L 486 105 L 485 105 L 484 105 L 483 105 L 482 105 L 481 105 L 480 105 L 479 105 L 478 105 L 477 105 L 476 105 L 475 105 L 475 106 L 475 107 L 475 108 L 475 109 L 475 110 L 475 111 L 475 112 L 475 113 L 475 114 L 475 115 L 475 116 L 475 117 L 475 118 L 475 119 L 475 120 L 475 121 L 475 122 L 475 123 L 475 124 L 475 125 L 475 126 L 475 127 L 475 128 L 475 129 L 475 130 L 475 131 L 475 132 L 475 133 L 475 134 L 475 135 L 475 136 L 475 137 L 475 138 L 475 139 L 475 140 L 475 141 L 475 142 L 475 143 L 475 144 L 475 145 L 475 146 L 475 147 L 475 148 L 475 149 L 475 150 L 475 151 L 475 152 L 475 153 L 475 154 L 475 155 L 475 156 L 475 157 L 475 158 L 475 159 L 475 160 L 475 161 L 475 162 L 475 163 L 475 164 L 475 165 L 475 166 L 475 167 L 475 168 L 475 169 L 475 170 L 475 171 L 475 172 L 475 173 L 475 174 L 475 175 L 475 176 L 475 177 L 475 178 L 475 179 L 475 180 L 475 181 L 475 182 L 475 183 L 475 184 L 475 185 L 475 186 L 475 187 L 474 188 L 473 188 L 472 188 L 471 188 L 470 188 L 469 188 L 468 188 L 467 188 L 466 188 L 465 188 L 464 188 L 463 188 L 462 188 L 461 188 L 460 188 L 459 188 L 458 188 L 457 188 L 456 188 L 455 188 L 454 188 L 453 188 L 452 188 L 451 188 L 450 188 L 449 188 L 448 188 L 447 188 L 446 188 L 445 188 L 444 188 L 443 188 L 442 188 L 441 188 L 440 188 L 439 188 L 438 188 L 437 188 L 436 188 L 435 188 L 434 188 L 433 188 L 432 188 L 431 188 L 430 188 L 429 188 L 428 188 L 427 188 L 426 188 L 425 188 L 424 188 L 423 188 L 422 188 L 421 188 L 420 188 L 419 188 L 418 188 L 417 189 L 416 189 L 415 189 L 414 189 L 413 189 L 412 189 L 411 189 L 410 189 L 409 189 L 408 189 L 407 189 L 406 189 L 405 189 L 404 189 L 403 189 L 402 189 L 401 189 L 400 189 L 399 189 L 398 189 L 397 189 L 396 189 L 395 189 L 394 189 L 393 189 L 392 189 L 391 189 L 390 189 L 389 189 L 388 189 L 387 189 L 386 189 L 385 189 L 384 189 L 383 189 L 382 189 L 381 189 L 380 189 L 379 189 L 378 189 L 377 189 L 376 189 L 375 189 L 374 189 L 373 189 L 372 189 L 371 189 L 370 189 L 369 189 L 368 189 L 367 189 L 366 189 L 365 189 L 364 189 L 363 189 L 362 189 L 361 189 L 360 189 L 359 189 L 358 189 L 357 188 L 357 187 L 357 186 L 357 185 L 357 184 L 357 183 L 357 182 L 357 181 L 357 180 L 357 179 L 357 178 L 357 177 L 357 176 L 357 175 L 357 174 L 357 173 L 357 172 L 357 171 L 357 170 L 356 169 L 356 168 L 356 167 L 356 166 L 356 165 L 356 164 L 356 163 L 356 162 L 356 161 L 356 160 L 356 159 L 356 158 L 355 157 L 355 156 L 355 155 L 355 154 L 355 153 L 355 152 L 355 151 L 354 150 L 354 149 L 354 148 L 354 147 L 354 146 L 354 145 L 353 144 L 353 143 L 353 142 L 353 141 L 353 140 L 353 139 L 352 138 L 352 137 L 352 136 L 352 135 L 351 134 L 351 133 L 351 132 L 351 131 L 351 130 L 350 129 L 350 128 L 350 127 L 349 126 L 349 125 L 349 124 L 349 123 L 348 122 L 348 121 L 348 120 L 347 119 L 347 118 L 347 117 L 346 116 L 346 115 L 346 114 L 345 113 L 345 112 L 345 111 L 344 110 L 344 109 L 343 108 L 343 107 L 342 106 L 342 105 L 342 104 L 341 103 L 341 102 L 340 101 L 340 100 L 339 99 L 339 98 L 338 97 L 338 96 L 337 95 L 337 94 L 336 93 L 336 92 L 335 91 L 335 90 L 334 89 L 333 88 L 333 87 L 332 86 L 332 85 L 331 84 L 330 83 L 330 82 L 329 81 L 328 80 L 328 79 L 327 78 L 326 77 L 326 76 L 325 75 L 324 74 L 323 73 L 323 72 L 322 71 L 321 70 L 320 69 L 320 68 L 319 67 L 318 66 L 317 65 L 316 64 L 315 63 L 314 62 L 314 61 L 313 60 L 312 59 L 311 58 L 310 57 L 309 56 L 308 55 L 307 54 L 306 53 L 305 52 L 304 51 L 303 50 L 302 49 L 301 48 L 300 47 L 299 46 L 298 46 L 297 45 L 296 44 L 295 43 L 294 42 L 293 42 L 292 41 L 291 40 L 290 39 L 289 39 L 288 38 L 287 37 L 286 37 L 285 36 L 284 35 L 283 34 L 282 34 L 281 33 L 280 33 L 279 32 L 278 31 L 277 31 L 276 30 L 275 30 L 274 29 L 273 29 L 272 28 L 271 28 L 270 27 L 269 27 L 268 26 L 267 26 L 266 25 L 265 25 L 264 24 L 263 24 L 262 23 L 261 23 L 260 23 L 259 22 L 258 22 L 257 21 L 256 21 L 255 21 L 254 20 L 253 20 L 252 19 L 251 19 L 250 19 L 249 18 L 248 18 L 247 18 L 246 17 L 245 17 L 244 17 L 243 16 L 242 16 L 241 16 L 240 16 L 239 15 L 238 15 L 237 15 L 236 14 L 235 14 L 234 14 L 233 14 L 232 14 L 231 14 L 230 13 L 229 13 L 228 13 L 227 13 L 226 13 L 225 13 L 224 12 L 223 12 L 222 12 L 221 12 L 220 12 L 219 12 L 218 12 L 217 12 L 216 11 L 215 11 L 214 11 L 213 11 L 212 11 L 211 11 L 210 11 L 209 11 L 208 11 L 207 11 L 206 11 L 205 11 L 204 11 L 203 11 L 202 11 L 201 11 L 200 11 L 199 11 L 198 10 L 197 10 L 196 10 L 195 10 L 194 10 L 193 10 L 192 10 L 191 11 L 190 11 L 189 11 L 188 11 L 187 11 L 186 11 L 185 11 L 184 11 L 183 11 L 182 11 L 181 11 L 180 11 L 179 11 L 178 11 L 177 12 L 176 12 L 175 12 L 174 12 L 173 12 L 172 12 L 171 12 L 170 13 L 169 13 L 168 13 L 167 13 L 166 13 L 165 13 L 164 14 L 163 14 L 162 14 L 161 14 L 160 15 L 159 15 L 158 15 L 157 15 L 156 15 L 155 16 L 154 16 L 153 16 L 152 17 L 151 17 L 150 17 L 149 18 L 148 18 L 147 18 L 146 19 L 145 19 L 144 19 L 143 20 L 142 20 L 141 20 L 140 21 L 139 21 L 138 22 L 137 22 L 136 22 L 135 23 L 134 23 L 133 24 L 132 24 L 131 25 L 130 25 L 129 26 L 128 26 L 127 27 L 126 27 L 125 28 L 124 28 L 123 29 L 122 29 L 121 30 L 120 30 L 119 31 L 118 31 L 117 32 L 116 33 L 115 33 L 114 34 L 113 34 L 112 35 L 111 36 L 110 36 L 109 37 L 108 38 L 107 38 L 106 39 L 105 39 L 104 40 L 103 41 L 102 42 L 101 42 L 100 43 L 99 44 L 98 44 L 97 45 L 96 46 L 95 47 L 94 47 L 93 48 L 92 49 L 91 50 L 90 50 L 89 51 L 88 52 L 87 53 L 86 54 L 85 55 L 84 56 L 83 57 L 82 58 L 81 59 L 81 60 L 80 61 L 79 62 L 78 63 L 78 64 L 77 65 L 76 66 L 76 67 L 75 68 L 74 69 L 74 70 L 73 71 L 73 72 L 72 73 L 71 74 L 71 75 L 70 76 L 69 77 L 69 78 L 68 79 L 68 80 L 67 81 L 66 82 L 66 83 L 65 84 L 64 85 L 64 86 L 63 87 L 63 88 L 62 89 L 61 90 L 61 91 L 60 92 L 59 93 L 59 94 L 58 95 L 57 96 L 57 97 L 56 98 L 55 99 L 55 100 L 54 101 L 53 102 L 53 103 L 52 104 L 52 105 L 51 106 L 50 107 L 50 108 L 49 109 L 48 110 L 47 111 L 47 112 L 46 113 L 45 114 L 44 115 L 44 116 L 43 117 L 42 118 L 41 119 L 40 120 L 39 121 L 38 121 L 37 122 L 36 123 L 35 124 L 34 124 L 33 125 L 32 125 L 31 126 L 30 127 L 29 127 L 28 128 L 27 128 L 26 129 L 25 129 L 24 130 L 23 130 L 22 130 L 21 131 L 20 131 L 19 132 L 18 132 L 17 132 L 16 133 L 15 133 L 14 133 L 13 134 L 13 135 L 12 136 L 12 137 L 11 138 L 11 139 L 10 140 L 10 141 L 9 142 L 9 143 L 8 144 L 8 145 L 7 146 L 7 147 L 6 148 L 6 149 L 5 150 L 6 150 L 7 150 L 8 149 L 9 149 L 10 149 L 11 148 L 12 148 L 13 148 L 14 147 L 15 147 L 16 147 L 17 146 L 18 146 L 19 146 L 20 145 L 21 145 L 22 145 L 23 144 L 24 144 L 25 144 L 26 143 L 27 143 L 28 142 L 29 142 L 30 142 L 31 141 L 32 141 L 33 140 L 34 140 L 35 139 L 36 139 L 37 138 L 38 138 L 39 137 L 40 136 L 41 136 L 42 135 L 43 134 L 44 134 L 45 133 L 46 132 L 47 131 L 48 131 L 49 130 L 50 129 L 51 128 L 52 127 L 53 126 L 54 125 L 55 124 L 56 123 L 57 122 L 58 121 L 59 120 L 60 119 L 61 118 L 62 117 L 63 116 L 64 115 L 64 114 L 65 113 L 66 112 L 67 111 L 68 110 L 69 109 L 70 108 L 70 107 L 71 106 L 72 105 L 73 104 L 73 103 L 74 102 L 75 101 L 75 100 L 76 99 L 77 98 L 77 97 L 78 96 L 79 95 L 80 94 L 80 93 L 81 92 L 82 91 L 83 90 L 84 89 L 84 88 L 85 87 L 86 86 L 87 85 L 88 84 L 89 83 L 89 82 L 90 81 L 91 80 L 92 79 L 93 78 L 94 77 L 95 76 L 96 75 L 97 74 L 98 73 L 99 72 L 100 71 L 101 70 L 102 69 L 103 69 L 104 68 L 105 67 L 106 66 L 107 65 L 108 65 L 109 64 L 110 63 L 111 62 L 112 62 L 113 61 L 114 60 L 115 60 L 116 59 L 117 58 L 118 58 L 119 57 L 120 56 L 121 56 L 122 55 L 123 55 L 124 54 L 125 54 L 126 53 L 127 53 L 128 52 L 129 52 L 130 51 L 131 51 L 132 50 L 133 50 L 134 49 L 135 49 L 136 49 L 137 48 L 138 48 L 139 47 L 140 47 L 141 47 L 142 46 L 143 46 L 144 45 L 145 45 L 146 45 L 147 44 L 148 44 L 149 44 L 150 43 L 151 43 L 152 43 L 153 42 L 154 42 L 155 42 L 156 41 L 157 41 L 158 41 L 159 41 L 160 40 L 161 40 L 162 40 L 163 40 L 164 39 L 165 39 L 166 39 L 167 39 L 168 39 L 169 38 L 170 38 L 171 38 L 172 38 L 173 38 L 174 37 L 175 37 L 176 37 L 177 37 L 178 37 L 179 37 L 180 37 L 181 37 L 182 37 L 183 36 L 184 36 L 185 36 L 186 36 L 187 36 L 188 36 L 189 36 L 190 36 L 191 36 L 192 36 L 193 36 L 194 36 L 195 36 L 196 36 L 197 36 L 198 36 L 199 36 L 200 36 L 201 36 L 202 35 L 203 36 L 204 36 L 205 36 L 206 36 L 207 36 L 208 36 L 209 36 L 210 36 L 211 36 L 212 36 L 213 36 L 214 36 L 215 36 L 216 36 L 217 36 L 218 36 L 219 36 L 220 37 L 221 37 L 222 37 L 223 37 L 224 37 L 225 37 L 226 37 L 227 38 L 228 38 L 229 38 L 230 38 L 231 38 L 232 39 L 233 39 L 234 39 L 235 40 L 236 40 L 237 41 L 238 41 L 239 42 L 240 42 L 241 43 L 242 43 L 243 44 L 244 44 L 245 45 L 246 45 L 247 46 L 248 47 L 249 47 L 250 48 L 251 49 L 252 49 L 253 50 L 254 51 L 255 51 L 256 52 L 257 53 L 258 53 L 259 54 L 260 55 L 261 56 L 262 57 L 263 57 L 264 58 L 265 59 L 266 60 L 267 61 L 268 62 L 269 63 L 270 64 L 271 65 L 272 66 L 273 67 L 274 68 L 275 69 L 276 70 L 277 71 L 278 72 L 279 73 L 280 74 L 280 75 L 281 76 L 282 77 L 283 78 L 284 79 L 285 80 L 285 81 L 286 82 L 287 83 L 288 84 L 288 85 L 289 86 L 290 87 L 290 88 L 291 89 L 292 90 L 292 91 L 293 92 L 294 93 L 294 94 L 295 95 L 296 96 L 296 97 L 297 98 L 297 99 L 298 100 L 299 101 L 299 102 L 300 103 L 300 104 L 301 105 L 301 106 L 302 107 L 302 108 L 303 109 L 303 110 L 304 111 L 304 112 L 305 113 L 305 114 L 306 115 L 306 116 L 307 117 L 307 118 L 308 119 L 308 120 L 308 121 L 309 122 L 309 123 L 310 124 L 310 125 L 310 126 L 311 127 L 311 128 L 312 129 L 312 130 L 312 131 L 313 132 L 313 133 L 313 134 L 314 135 L 314 136 L 315 137 L 315 138 L 315 139 L 316 140 L 316 141 L 316 142 L 316 143 L 317 144 L 317 145 L 317 146 L 318 147 L 318 148 L 318 149 L 318 150 L 319 151 L 319 152 L 319 153 L 320 154 L 320 155 L 320 156 L 320 157 L 320 158 L 321 159 L 321 160 L 321 161 L 321 162 L 322 163 L 322 164 L 322 165 L 322 166 L 322 167 L 323 168 L 323 169 L 323 170 L 323 171 L 323 172 L 323 173 L 324 174 L 324 175 L 324 176 L 324 177 L 324 178 L 324 179 L 324 180 L 325 181 L 325 182 L 325 183 L 325 184 L 325 185 L 325 186 L 325 187 L 325 188 L 325 189 L 324 190 L 323 190 L 322 190 L 321 190 L 320 190 L 319 190 L 318 190 L 317 190 L 316 190 L 315 190 L 314 190 L 313 191 L 312 191 L 311 191 L 310 191 L 309 191 L 308 191 L 307 191 L 306 191 L 305 191 L 304 191 L 303 191 L 302 191 L 301 191 L 300 191 L 299 191 L 298 191 L 297 191 L 296 191 L 295 191 L 294 191 L 293 191 L 292 191 L 291 191 L 290 191 L 289 191 L 288 191 L 287 191 L 286 191 L 285 191 L 284 191 L 283 191 L 282 191 L 281 190 L 281 189 L 281 188 L 281 187 L 281 186 L 281 185 L 281 184 L 281 183 L 281 182 L 281 181 L 281 180 L 281 179 L 281 178 L 281 177 L 281 176 L 281 175 L 281 174 L 280 173 L 280 172 L 280 171 L 280 170 L 280 169 L 280 168 L 280 167 L 279 166 L 279 165 L 279 164 L 279 163 L 279 162 L 278 161 L 278 160 L 278 159 L 278 158 L 277 157 L 277 156 L 277 155 L 277 154 L 276 153 L 276 152 L 276 151 L 275 150 L 275 149 L 275 148 L 274 147 L 274 146 L 273 145 L 273 144 L 273 143 L 272 142 L 272 141 L 271 140 L 271 139 L 270 138 L 270 137 L 269 136 L 268 135 L 268 134 L 267 133 L 267 132 L 266 131 L 265 130 L 265 129 L 264 128 L 263 127 L 262 126 L 262 125 L 261 124 L 260 123 L 259 122 L 258 121 L 258 120 L 257 119 L 256 118 L 255 117 L 254 116 L 253 115 L 252 114 L 251 113 L 250 112 L 249 111 L 248 110 L 247 109 L 246 109 L 245 108 L 244 107 L 243 106 L 242 106 L 241 105 L 240 104 L 239 103 L 238 103 L 237 102 L 236 101 L 235 101 L 234 100 L 233 100 L 232 99 L 231 98 L 230 98 L 229 97 L 228 97 L 227 96 L 226 96 L 225 95 L 224 95 L 223 94 L 222 94 L 221 94 L 220 93 L 219 93 L 218 92 L 217 92 L 216 92 L 215 91 L 214 91 L 213 91 L 212 90 L 211 90 L 210 90 L 209 89 L 208 89 L 207 89 L 206 89 L 205 88 L 204 88 L 203 88 L 202 88 L 201 87 L 200 87 L 199 87 L 198 87 L 197 87 L 196 87 L 195 86 L 194 86 L 193 86 L 192 86 L 191 86 L 190 86 L 189 86 L 188 86 L 187 86 L 186 85 L 185 85 L 184 85 L 183 85 L 182 85 L 181 85 L 180 85 L 179 85 L 178 85 L 177 85 L 176 85 L 175 85 L 174 85 L 173 85 L 172 85 L 171 85 L 170 85 L 169 85 L 168 85 L 167 85 L 166 85 L 165 85 L 164 86 L 163 86 L 162 86 L 161 86 L 160 86 L 159 86 L 158 86 L 157 86 L 156 86 L 155 87 L 154 87 L 153 87 L 152 87 L 151 87 L 150 88 L 149 88 L 148 88 L 147 88 L 146 89 L 145 89 L 144 89 L 143 89 L 142 90 L 141 90 L 140 90 L 139 91 L 138 91 L 137 91 L 136 92 L 135 92 L 134 93 L 133 93 L 132 93 L 131 94 L 130 94 L 129 95 L 128 95 L 127 95 L 126 96 L 125 96 L 124 97 L 123 97 L 122 98 L 121 98 L 120 99 L 119 100 L 118 100 L 117 101 L 116 101 L 115 102 L 114 102 L 113 103 L 112 104 L 111 104 L 110 105 L 109 106 L 108 106 L 107 107 L 106 108 L 105 108 L 104 109 L 103 110 L 102 111 L 101 111 L 100 112 L 99 113 L 99 114 L 98 115 L 97 116 L 96 117 L 95 118 L 95 119 L 94 120 L 93 121 L 93 122 L 92 123 L 91 124 L 90 125 L 90 126 L 89 127 L 88 128 L 88 129 L 87 130 L 86 131 L 85 132 L 85 133 L 84 134 L 83 135 L 83 136 L 82 137 L 81 138 L 80 139 L 80 140 L 79 141 L 78 142 L 77 143 L 77 144 L 76 145 L 75 146 L 74 147 L 73 148 L 72 149 L 71 150 L 70 150 L 69 151 L 68 152 L 67 152 L 66 153 L 65 153 L 64 154 L 63 154 L 62 155 L 61 155 L 60 155 L 59 156 L 58 156 L 57 156 L 56 157 L 55 157 L 54 157 L 54 158 L 53 159 L 53 160 L 52 161 L 51 162 L 51 163 L 50 164 L 50 165 L 49 166 L 49 167 L 50 167 L 51 167 L 52 167 L 53 166 L 54 166 L 55 166 L 56 165 L 57 165 L 58 165 L 59 164 L 60 164 L 61 164 L 62 163 L 63 163 L 64 163 L 65 162 L 66 162 L 67 162 L 68 161 L 69 161 L 70 160 L 71 160 L 72 159 L 73 158 L 74 158 L 75 157 L 76 156 L 77 156 L 78 155 L 79 154 L 80 153 L 81 153 L 82 152 L 83 151 L 84 150 L 85 149 L 86 148 L 87 147 L 88 146 L 89 145 L 90 144 L 91 143 L 92 142 L 93 141 L 93 140 L 94 139 L 95 138 L 96 137 L 97 136 L 97 135 L 98 134 L 99 133 L 100 132 L 101 131 L 102 130 L 103 129 L 104 128 L 105 127 L 106 126 L 107 125 L 108 124 L 109 123 L 110 122 L 111 121 L 112 120 L 113 120 L 114 119 L 115 118 L 116 117 L 117 117 L 118 116 L 119 116 L 120 115 L 121 114 L 122 114 L 123 113 L 124 113 L 125 112 L 126 112 L 127 111 L 128 111 L 129 110 L 130 110 L 131 109 L 132 109 L 133 109 L 134 108 L 135 108 L 136 107 L 137 107 L 138 107 L 139 106 L 140 106 L 141 106 L 142 105 L 143 105 L 144 105 L 145 104 L 146 104 L 147 104 L 148 104 L 149 103 L 150 103 L 151 103 L 152 103 L 153 102 L 154 102 L 155 102 L 156 102 L 157 102 L 158 102 L 159 101 L 160 101 L 161 101 L 162 101 L 163 101 L 164 101 L 165 101 L 166 101 L 167 100 L 168 100 L 169 100 L 170 100 L 171 100 L 172 100 L 173 100 L 174 100 L 175 100 L 176 100 L 177 100 L 178 100 L 179 100 L 180 100 L 181 100 L 182 100 L 183 100 L 184 100 L 185 100 L 186 100 L 187 100 L 188 100 L 189 100 L 190 101 L 191 101 L 192 101 L 193 101 L 194 101 L 195 101 L 196 101 L 197 102 L 198 102 L 199 102 L 200 102 L 201 103 L 202 103 L 203 104 L 204 104 L 205 104 L 206 105 L 207 105 L 208 106 L 209 106 L 210 107 L 211 108 L 212 108 L 213 109 L 214 109 L 215 110 L 216 111 L 217 111 L 218 112 L 219 113 L 220 114 L 221 114 L 222 115 L 223 116 L 224 117 L 225 118 L 226 119 L 227 120 L 228 121 L 229 121 L 230 122 L 230 123 L 231 124 L 232 125 L 233 126 L 234 127 L 235 128 L 236 129 L 237 130 L 237 131 L 238 132 L 239 133 L 240 134 L 240 135 L 241 136 L 242 137 L 242 138 L 243 139 L 244 140 L 244 141 L 245 142 L 245 143 L 246 144 L 247 145 L 247 146 L 248 147 L 248 148 L 249 149 L 249 150 L 250 151 L 250 152 L 251 153 L 251 154 L 251 155 L 252 156 L 252 157 L 253 158 L 253 159 L 253 160 L 254 161 L 254 162 L 255 163 L 255 164 L 255 165 L 256 166 L 256 167 L 256 168 L 256 169 L 257 170 L 257 171 L 257 172 L 258 173 L 258 174 L 258 175 L 258 176 L 259 177 L 259 178 L 259 179 L 259 180 L 259 181 L 259 182 L 260 183 L 260 184 L 260 185 L 260 186 L 260 187 L 260 188 L 260 189 L 261 190 L 261 191 L 260 192 L 259 192 L 258 192 L 257 192 L 256 192 L 255 192 L 254 192 L 253 192 L 252 192 L 251 192 L 250 192 L 249 192 L 248 192 L 247 192 L 246 192 L 245 192 L 244 192 L 243 193 L 242 193 L 241 193 L 240 193 L 239 193 L 238 193 L 237 193 L 236 193 L 235 193 L 234 193 L 233 193 L 232 193 L 231 193 L 230 193 L 229 193 L 228 193 L 227 193 L 226 193 L 225 193 L 224 193 L 223 193 L 222 193 L 221 193 L 220 193 L 219 193 L 218 193 L 217 193 L 216 193 L 215 193 L 214 193 L 213 193 L 212 193 L 211 193 L 210 193 L 209 194 L 208 194 L 207 194 L 206 194 L 205 194 L 204 194 L 203 194 L 202 194 L 201 194 L 200 194 L 199 194 L 198 194 L 197 194 L 196 194 L 195 194 L 194 194 L 193 194 L 192 194 L 191 194 L 190 194 L 189 194 L 188 194 L 187 194 L 186 194 L 185 194 L 184 194 L 183 194 L 182 194 L 181 194 L 180 194 L 179 194 L 178 195 L 177 195 L 176 195 L 175 195 L 174 195 L 173 195 L 172 195 L 171 195 L 170 195 L 169 195 L 168 195 L 167 195 L 166 195 L 165 195 L 164 195 L 163 195 L 162 195 L 161 195 L 160 195 L 159 195 L 158 195 L 157 195 L 156 195 L 155 195 L 154 195 L 153 195 L 152 195 L 151 195 L 150 195 L 149 195 L 148 196 L 147 196 L 146 196 L 145 196 L 144 196 L 143 196 L 142 196 L 141 196 L 140 196 L 139 196 L 138 196 L 137 196 L 136 196 L 135 196 L 134 196 L 133 196 L 132 196 L 131 196 L 130 196 L 129 196 L 128 196 L 127 196 L 126 196 L 125 196 L 124 196 L 123 196 L 122 196 L 121 196 L 120 196 L 119 196 L 118 197 L 117 197 L 116 197 L 115 197 L 114 197 L 113 197 L 112 197 L 111 197 L 110 197 L 109 197 L 108 197 L 107 197 L 106 197 L 105 197 L 104 197 L 103 197 L 102 197 L 101 197 L 100 197 L 99 197 L 98 197 L 97 197 L 96 197 L 95 197 L 94 197 L 93 197 L 92 197 L 91 197 L 90 197 L 89 198 L 88 198 L 87 198 L 86 198 L 85 198 L 84 198 L 83 198 L 82 198 L 81 198 L 80 198 L 79 198 L 78 198 L 77 198 L 76 198 L 75 198 L 74 198 L 73 198 L 72 198 L 71 198 L 70 198 L 69 198 L 68 198 L 67 198 L 66 198 L 65 198 L 64 198 L 63 198 L 62 198 L 61 198 L 60 199 L 59 199 L 58 199 L 57 199 L 56 199 L 55 199 L 54 199 L 53 199 L 52 199 L 51 199 L 50 199 L 49 199 L 48 199 L 47 199 L 46 199 L 45 199 L 44 199 L 43 199 L 42 199 L 41 199 L 40 199 L 39 199 L 38 199 L 37 199 L 36 199 L 35 199 L 34 199 L 33 199 L 32 199 L 31 199 L 30 200 L 29 200 L 28 200 L 27 200 L 26 200 L 25 200 L 24 200 L 23 200 L 22 200 L 21 200 L 20 200 L 19 200 L 18 200 L 17 200 L 16 200 L 15 200 L 14 200 L 13 200 L 12 200 L 11 200 L 10 200 L 9 200 L 8 200 L 8 201 L 8 202 L 9 202 L 10 202 L 11 202 L 12 202 L 13 202 L 14 202 L 15 202 L 16 202 L 17 202 L 18 202 L 19 202 L 20 202 L 21 202 L 22 203 L 23 203 L 24 203 L 25 203 L 26 203 L 27 203 L 28 203 L 29 203 L 30 203 L 31 203 L 32 203 L 33 203 L 34 203 L 35 203 L 36 203 L 37 203 L 38 203 L 39 203 L 40 203 L 41 203 L 42 203 L 43 203 L 44 203 L 45 203 L 46 203 L 47 203 L 48 203 L 49 203 L 50 203 L 51 203 L 52 203 L 53 203 L 54 203 L 55 203 L 56 203 L 57 203 L 58 203 L 59 203 L 60 204 L 61 204 L 62 204 L 63 204 L 64 204 L 65 204 L 66 204 L 67 204 L 68 204 L 69 204 L 70 204 L 71 204 L 72 204 L 73 204 L 74 204 L 75 204 L 76 204 L 77 204 L 78 204 L 79 204 L 80 204 L 81 204 L 82 204 L 83 204 L 84 204 L 85 204 L 86 204 L 87 204 L 88 204 L 89 204 L 90 204 L 91 204 L 92 204 L 93 204 L 94 204 L 95 204 L 96 204 L 97 204 L 98 205 L 99 205 L 100 205 L 101 205 L 102 205 L 103 205 L 104 205 L 105 205 L 106 205 L 107 205 L 108 205 L 109 205 L 110 205 L 111 205 L 112 205 L 113 205 L 114 205 L 115 205 L 116 205 L 117 205 L 118 205 L 119 205 L 120 205 L 121 205 L 122 205 L 123 205 L 124 205 L 125 205 L 126 205 L 127 205 L 128 205 L 129 205 L 130 205 L 131 205 L 132 205 L 133 205 L 134 205 L 135 205 L 136 205 L 137 206 L 138 206 L 139 206 L 140 206 L 141 206 L 142 206 L 143 206 L 144 206 L 145 206 L 146 206 L 147 206 L 148 206 L 149 206 L 150 206 L 151 206 L 152 206 L 153 206 L 154 206 L 155 206 L 156 206 L 157 206 L 158 206 L 159 206 L 160 206 L 161 206 L 162 206 L 163 206 L 164 206 L 165 206 L 166 206 L 167 206 L 168 206 L 169 206 L 170 206 L 171 206 L 172 206 L 173 206 L 174 206 L 175 206 L 176 206 L 177 206 L 178 207 L 179 207 L 180 207 L 181 207 L 182 207 L 183 207 L 184 207 L 185 207 L 186 207 L 187 207 L 188 207 L 189 207 L 190 207 L 191 207 L 192 207 L 193 207 L 194 207 L 195 207 L 196 207 L 197 207 L 198 207 L 199 207 L 200 207 L 201 207 L 202 207 L 203 207 L 204 207 L 205 207 L 206 207 L 207 207 L 208 207 L 209 207 L 210 207 L 211 207 L 212 207 L 213 207 L 214 207 L 215 207 L 216 207 L 217 207 L 218 208 L 219 208 L 220 208 L 221 208 L 222 208 L 223 208 L 224 208 L 225 208 L 226 208 L 227 208 L 228 208 L 229 208 L 230 208 L 231 208 L 232 208 L 233 208 L 234 208 L 235 208 L 236 208 L 237 208 L 238 208 L 239 208 L 240 208 L 241 208 L 242 208 L 243 208 L 244 208 L 245 208 L 246 208 L 247 208 L 248 208 L 249 208 L 250 208 L 251 208 L 252 208 L 253 208 L 254 208 L 255 208 L 256 208 L 257 208 L 258 208 L 259 208 L 260 209 L 261 210 L 260 211 L 260 212 L 260 213 L 260 214 L 260 215 L 260 216 L 260 217 L 260 218 L 260 219 L 259 220 L 259 221 L 259 222 L 259 223 L 259 224 L 258 225 L 258 226 L 258 227 L 258 228 L 257 229 L 257 230 L 257 231 L 257 232 L 256 233 L 256 234 L 256 235 L 255 236 L 255 237 L 255 238 L 254 239 L 254 240 L 253 241 L 253 242 L 253 243 L 252 244 L 252 245 L 251 246 L 251 247 L 250 248 L 250 249 L 249 250 L 249 251 L 248 252 L 247 253 L 247 254 L 246 255 L 246 256 L 245 257 L 244 258 L 244 259 L 243 260 L 242 261 L 242 262 L 241 263 L 240 264 L 239 265 L 238 266 L 238 267 L 237 268 L 236 269 L 235 270 L 234 271 L 233 272 L 232 273 L 231 274 L 230 275 L 229 275 L 228 276 L 227 277 L 226 278 L 225 279 L 224 280 L 223 280 L 222 281 L 221 282 L 220 282 L 219 283 L 218 284 L 217 284 L 216 285 L 215 285 L 214 286 L 213 287 L 212 287 L 211 288 L 210 288 L 209 289 L 208 289 L 207 289 L 206 290 L 205 290 L 204 291 L 203 291 L 202 291 L 201 292 L 200 292 L 199 292 L 198 293 L 197 293 L 196 293 L 195 293 L 194 293 L 193 294 L 192 294 L 191 294 L 190 294 L 189 294 L 188 294 L 187 294 L 186 294 L 185 294 L 184 294 L 183 294 L 182 294 L 181 294 L 180 294 L 179 294 L 178 294 L 177 294 L 176 294 L 175 294 L 174 294 L 173 294 L 172 294 L 171 294 L 170 294 L 169 294 L 168 294 L 167 294 L 166 294 L 165 294 L 164 294 L 163 294 L 162 293 L 161 293 L 160 293 L 159 293 L 158 293 L 157 293 L 156 293 L 155 292 L 154 292 L 153 292 L 152 292 L 151 292 L 150 291 L 149 291 L 148 291 L 147 291 L 146 290 L 145 290 L 144 290 L 143 289 L 142 289 L 141 289 L 140 288 L 139 288 L 138 288 L 137 287 L 136 287 L 135 287 L 134 286 L 133 286 L 132 286 L 131 285 L 130 285 L 129 284 L 128 284 L 127 283 L 126 283 L 125 282 L 124 282 L 123 281 L 122 281 L 121 280 L 120 280 L 119 279 L 118 278 L 117 278 L 116 277 L 115 276 L 114 276 L 113 275 L 112 274 L 111 273 L 110 272 L 109 272 L 108 271 L 107 270 L 106 269 L 105 268 L 104 267 L 103 266 L 102 265 L 101 264 L 100 263 L 99 262 L 99 261 L 98 260 L 97 259 L 96 258 L 95 257 L 95 256 L 94 255 L 93 254 L 92 253 L 91 252 L 90 251 L 89 250 L 88 249 L 87 248 L 87 247 L 86 246 L 85 246 L 84 245 L 83 244 L 82 243 L 81 242 L 80 241 L 79 240 L 78 239 L 77 239 L 76 238 L 75 237 L 74 237 L 73 236 L 72 235 L 71 235 L 70 234 L 69 234 L 68 233 L 67 233 L 66 233 L 65 232 L 64 232 L 63 231 L 62 231 L 61 231 L 60 230 L 59 230 L 58 230 L 57 229 L 56 229 L 55 229 L 54 229 L 53 228 L 52 228 L 51 228 L 50 227 L 49 227 L 49 228 L 49 229 L 50 230 L 51 231 L 51 232 L 52 233 L 52 234 L 53 235 L 53 236 L 54 237 L 55 237 L 56 238 L 57 238 L 58 238 L 59 239 L 60 239 L 61 239 L 62 240 L 63 240 L 64 241 L 65 241 L 66 242 L 67 242 L 68 243 L 69 243 L 70 244 L 71 245 L 72 246 L 73 247 L 74 248 L 75 249 L 76 250 L 77 251 L 78 252 L 79 253 L 79 254 L 80 255 L 81 256 L 82 257 L 82 258 L 83 259 L 84 260 L 84 261 L 85 262 L 86 263 L 87 264 L 87 265 L 88 266 L 89 267 L 89 268 L 90 269 L 91 270 L 92 271 L 92 272 L 93 273 L 94 274 L 94 275 L 95 276 L 96 277 L 97 278 L 97 279 L 98 280 L 99 281 L 100 282 L 101 283 L 102 284 L 103 285 L 104 286 L 105 286 L 106 287 L 107 288 L 108 289 L 109 289 L 110 290 L 111 291 L 112 291 L 113 292 L 114 293 L 115 293 L 116 294 L 117 295 L 118 295 L 119 296 L 120 296 L 121 297 L 122 297 L 123 298 L 124 299 L 125 299 L 126 300 L 127 300 L 128 300 L 129 301 L 130 301 L 131 302 L 132 302 L 133 303 L 134 303 L 135 303 L 136 304 L 137 304 L 138 304 L 139 305 L 140 305 L 141 305 L 142 306 L 143 306 L 144 306 L 145 306 L 146 307 L 147 307 L 148 307 L 149 307 L 150 308 L 151 308 L 152 308 L 153 308 L 154 308 L 155 308 L 156 308 L 157 309 L 158 309 L 159 309 L 160 309 L 161 309 L 162 309 L 163 309 L 164 309 L 165 309 L 166 309 L 167 309 L 168 309 L 169 309 L 170 309 L 171 309 L 172 309 L 173 309 L 174 309 L 175 309 L 176 309 L 177 309 L 178 309 L 179 309 L 180 309 L 181 309 L 182 309 L 183 309 L 184 309 L 185 309 L 186 309 L 187 309 L 188 309 L 189 309 L 190 308 L 191 308 L 192 308 L 193 308 L 194 308 L 195 308 L 196 308 L 197 308 L 198 308 L 199 307 L 200 307 L 201 307 L 202 307 L 203 307 L 204 306 L 205 306 L 206 306 L 207 306 L 208 305 L 209 305 L 210 305 L 211 304 L 212 304 L 213 304 L 214 303 L 215 303 L 216 303 L 217 302 L 218 302 L 219 302 L 220 301 L 221 301 L 222 300 L 223 300 L 224 300 L 225 299 L 226 299 L 227 298 L 228 298 L 229 297 L 230 297 L 231 296 L 232 296 L 233 295 L 234 294 L 235 294 L 236 293 L 237 292 L 238 292 L 239 291 L 240 290 L 241 290 L 242 289 L 243 288 L 244 287 L 245 287 L 246 286 L 247 285 L 248 284 L 249 283 L 250 282 L 251 281 L 252 280 L 253 279 L 254 278 L 255 277 L 256 276 L 257 275 L 258 274 L 259 273 L 260 272 L 261 271 L 261 270 L 262 269 L 263 268 L 264 267 L 264 266 L 265 265 L 266 264 L 266 263 L 267 262 L 268 261 L 268 260 L 269 259 L 269 258 L 270 257 L 270 256 L 271 255 L 271 254 L 272 253 L 272 252 L 273 251 L 273 250 L 274 249 L 274 248 L 274 247 L 275 246 L 275 245 L 275 244 L 276 243 L 276 242 L 276 241 L 277 240 L 277 239 L 277 238 L 278 237 L 278 236 L 278 235 L 278 234 L 279 233 L 279 232 L 279 231 L 279 230 L 279 229 L 280 228 L 280 227 L 280 226 L 280 225 L 280 224 L 280 223 L 280 222 L 280 221 L 281 220 L 281 219 L 281 218 L 281 217 L 281 216 L 281 215 L 281 214 L 281 213 L 281 212 L 281 211 L 281 210 L 282 209 L 283 209 L 284 209 L 285 209 L 286 209 L 287 209 L 288 209 L 289 209 L 290 209 L 291 209 L 292 209 L 293 209 L 294 209 L 295 209 L 296 209 L 297 209 L 298 209 L 299 209 L 300 209 L 301 209 L 302 209 L 303 209 L 304 209 L 305 210 L 306 210 L 307 210 L 308 210 L 309 210 L 310 210 L 311 210 L 312 210 L 313 210 L 314 210 L 315 210 L 316 210 L 317 210 L 318 210 L 319 210 L 320 210 L 321 210 L 322 210 L 323 210 L 324 210 L 325 210 L 326 211 L 326 212 L 326 213 L 326 214 L 326 215 L 326 216 L 326 217 L 326 218 L 326 219 L 326 220 L 325 221 L 325 222 L 325 223 L 325 224 L 325 225 L 325 226 L 325 227 L 325 228 L 325 229 L 325 230 L 325 231 L 325 232 L 325 233 L 324 234 L 324 235 L 324 236 L 324 237 L 324 238 L 324 239 L 324 240 L 323 241 L 323 242 L 323 243 L 323 244 L 323 245 L 323 246 L 322 247 L 322 248 L 322 249 L 322 250 L 322 251 L 321 252 L 321 253 L 321 254 L 321 255 L 320 256 L 320 257 L 320 258 L 320 259 L 319 260 L 319 261 L 319 262 L 319 263 L 318 264 L 318 265 L 318 266 L 318 267 L 317 268 L 317 269 L 317 270 L 316 271 L 316 272 L 316 273 L 315 274 L 315 275 L 314 276 L 314 277 L 314 278 L 313 279 L 313 280 L 313 281 L 312 282 L 312 283 L 311 284 L 311 285 L 311 286 L 310 287 L 310 288 L 309 289 L 309 290 L 308 291 L 308 292 L 307 293 L 307 294 L 306 295 L 306 296 L 305 297 L 305 298 L 304 299 L 304 300 L 303 301 L 303 302 L 302 303 L 301 304 L 301 305 L 300 306 L 300 307 L 299 308 L 298 309 L 298 310 L 297 311 L 296 312 L 296 313 L 295 314 L 294 315 L 294 316 L 293 317 L 292 318 L 291 319 L 291 320 L 290 321 L 289 322 L 288 323 L 287 324 L 286 325 L 286 326 L 285 327 L 284 328 L 283 329 L 282 330 L 281 331 L 280 332 L 279 333 L 278 334 L 277 335 L 276 336 L 275 337 L 274 338 L 273 339 L 272 340 L 271 341 L 270 341 L 269 342 L 268 343 L 267 344 L 266 345 L 265 345 L 264 346 L 263 347 L 262 348 L 261 348 L 260 349 L 259 350 L 258 350 L 257 351 L 256 352 L 255 352 L 254 353 L 253 353 L 252 354 L 251 355 L 250 355 L 249 356 L 248 356 L 247 357 L 246 357 L 245 358 L 244 358 L 243 359 L 242 359 L 241 360 L 240 360 L 239 361 L 238 361 L 237 361 L 236 362 L 235 362 L 234 363 L 233 363 L 232 363 L 231 363 L 230 364 L 229 364 L 228 364 L 227 364 L 226 365 L 225 365 L 224 365 L 223 365 L 222 365 L 221 365 L 220 365 L 219 366 L 218 366 L 217 366 L 216 366 L 215 366 L 214 366 L 213 366 L 212 366 L 211 366 L 210 366 L 209 366 L 208 366 L 207 366 L 206 366 L 205 366 L 204 366 L 203 366 L 202 366 L 201 366 L 200 366 L 199 366 L 198 366 L 197 366 L 196 366 L 195 366 L 194 366 L 193 366 L 192 366 L 191 366 L 190 366 L 189 366 L 188 366 L 187 366 L 186 366 L 185 366 L 184 366 L 183 366 L 182 365 L 181 365 L 180 365 L 179 365 L 178 365 L 177 365 L 176 365 L 175 365 L 174 364 L 173 364 L 172 364 L 171 364 L 170 364 L 169 364 L 168 363 L 167 363 L 166 363 L 165 363 L 164 363 L 163 362 L 162 362 L 161 362 L 160 362 L 159 361 L 158 361 L 157 361 L 156 361 L 155 360 L 154 360 L 153 360 L 152 359 L 151 359 L 150 359 L 149 358 L 148 358 L 147 358 L 146 357 L 145 357 L 144 357 L 143 356 L 142 356 L 141 355 L 140 355 L 139 355 L 138 354 L 137 354 L 136 353 L 135 353 L 134 353 L 133 352 L 132 352 L 131 351 L 130 351 L 129 350 L 128 350 L 127 349 L 126 349 L 125 348 L 124 348 L 123 347 L 122 347 L 121 346 L 120 346 L 119 345 L 118 344 L 117 344 L 116 343 L 115 342 L 114 342 L 113 341 L 112 340 L 111 340 L 110 339 L 109 338 L 108 337 L 107 337 L 106 336 L 105 335 L 104 334 L 103 333 L 102 333 L 101 332 L 100 331 L 99 330 L 98 329 L 97 328 L 96 327 L 95 326 L 94 325 L 93 324 L 92 323 L 91 322 L 90 321 L 89 320 L 89 319 L 88 318 L 87 317 L 86 316 L 85 315 L 84 314 L 84 313 L 83 312 L 82 311 L 81 310 L 80 309 L 80 308 L 79 307 L 78 306 L 77 305 L 77 304 L 76 303 L 75 302 L 75 301 L 74 300 L 73 299 L 73 298 L 72 297 L 71 296 L 70 295 L 70 294 L 69 293 L 68 292 L 67 291 L 66 290 L 65 289 L 64 288 L 64 287 L 63 286 L 62 285 L 61 284 L 60 283 L 59 282 L 58 281 L 57 280 L 56 279 L 55 278 L 54 277 L 53 276 L 52 275 L 51 274 L 50 273 L 49 272 L 48 271 L 47 271 L 46 270 L 45 269 L 44 268 L 43 268 L 42 267 L 41 266 L 40 266 L 39 265 L 38 264 L 37 264 L 36 263 L 35 263 L 34 262 L 33 262 L 32 261 L 31 261 L 30 260 L 29 260 L 28 260 L 27 259 L 26 259 L 25 258 L 24 258 L 23 258 L 22 257 L 21 257 L 20 257 L 19 256 L 18 256 L 17 256 L 16 255 L 15 255 L 14 255 L 13 254 L 12 254 L 11 254 L 10 253 L 9 253 L 8 253 L 7 252 L 6 252 L 5 252 L 6 253 L 6 254 L 7 255 L 7 256 L 8 257 L 8 258 L 9 259 L 9 260 L 10 261 L 10 262 L 11 263 L 11 264 L 12 265 L 12 266 L 13 267 L 13 268 L 14 269 L 15 269 L 16 269 L 17 270 L 18 270 L 19 270 L 20 271 L 21 271 L 22 272 L 23 272 L 24 272 L 25 273 L 26 273 L 27 274 L 28 274 L 29 275 L 30 275 L 31 276 L 32 277 L 33 277 L 34 278 L 35 278 L 36 279 L 37 280 L 38 281 L 39 281 L 40 282 L 41 283 L 42 284 L 43 285 L 44 286 L 44 287 L 45 288 L 46 289 L 47 290 L 47 291 L 48 292 L 49 293 L 50 294 L 50 295 L 51 296 L 52 297 L 52 298 L 53 299 L 54 300 L 54 301 L 55 302 L 56 303 L 56 304 L 57 305 L 57 306 L 58 307 L 59 308 L 59 309 L 60 310 L 61 311 L 61 312 L 62 313 L 63 314 L 63 315 L 64 316 L 65 317 L 65 318 L 66 319 L 66 320 L 67 321 L 68 322 L 68 323 L 69 324 L 69 325 L 70 326 L 71 327 L 71 328 L 72 329 L 73 330 L 73 331 L 74 332 L 74 333 L 75 334 L 76 335 L 76 336 L 77 337 L 78 338 L 78 339 L 79 340 L 80 341 L 81 342 L 81 343 L 82 344 L 83 345 L 84 346 L 85 347 L 86 348 L 87 349 L 88 350 L 89 351 L 90 352 L 91 353 L 92 353 L 93 354 L 94 355 L 95 356 L 96 357 L 97 357 L 98 358 L 99 359 L 100 360 L 101 361 L 102 361 L 103 362 L 104 363 L 105 363 L 106 364 L 107 365 L 108 366 L 109 366 L 110 367 L 111 368 L 112 368 L 113 369 L 114 370 L 115 370 L 116 371 L 117 372 L 118 372 L 119 373 L 120 373 L 121 374 L 122 375 L 123 375 L 124 376 L 125 376 L 126 377 L 127 377 L 128 378 L 129 378 L 130 379 L 131 379 L 132 380 L 133 380 L 134 380 L 135 381 L 136 381 L 137 382 L 138 382 L 139 383 L 140 383 L 141 383 L 142 384 L 143 384 L 144 384 L 145 385 L 146 385 L 147 385 L 148 386 L 149 386 L 150 386 L 151 386 L 152 387 L 153 387 L 154 387 L 155 388 L 156 388 L 157 388 L 158 388 L 159 388 L 160 389 L 161 389 L 162 389 L 163 389 L 164 389 L 165 389 L 166 390 L 167 390 L 168 390 L 169 390 L 170 390 L 171 390 L 172 390 L 173 391 L 174 391 L 175 391 L 176 391 L 177 391 L 178 391 L 179 391 L 180 391 L 181 391 L 182 391 L 183 391 L 184 391 L 185 391 L 186 391 L 187 391 L 188 391 L 189 391 L 190 391 L 191 391 L 192 391 L 193 391 L 194 391 L 195 391 L 196 391 L 197 391 L 198 391 L 199 391 L 200 391 L 201 391 L 202 391 L 203 391 L 204 391 L 205 391 L 206 391 L 207 391 L 208 391 L 209 391 L 210 391 L 211 391 L 212 391 L 213 390 L 214 390 L 215 390 L 216 390 L 217 390 L 218 390 L 219 390 L 220 390 L 221 390 L 222 390 L 223 389 L 224 389 L 225 389 L 226 389 L 227 389 L 228 389 L 229 389 L 230 388 L 231 388 L 232 388 L 233 388 L 234 388 L 235 388 L 236 388 L 237 387 L 238 387 L 239 387 L 240 386 L 241 386 L 242 386 L 243 386 L 244 385 L 245 385 L 246 385 L 247 384 L 248 384 L 249 384 L 250 383 L 251 383 L 252 383 L 253 382 L 254 382 L 255 381 L 256 381 L 257 381 L 258 380 L 259 380 L 260 379 L 261 379 L 262 379 L 263 378 L 264 378 L 265 377 L 266 377 L 267 376 L 268 376 L 269 375 L 270 375 L 271 374 L 272 374 L 273 373 L 274 373 L 275 372 L 276 372 L 277 371 L 278 371 L 279 370 L 280 369 L 281 369 L 282 368 L 283 367 L 284 367 L 285 366 L 286 365 L 287 365 L 288 364 L 289 363 L 290 363 L 291 362 L 292 361 L 293 360 L 294 360 L 295 359 L 296 358 L 297 357 L 298 356 L 299 355 L 300 355 L 301 354 L 302 353 L 303 352 L 304 351 L 305 350 L 306 349 L 307 348 L 308 347 L 309 346 L 310 345 L 311 344 L 312 343 L 313 342 L 314 341 L 314 340 L 315 339 L 316 338 L 317 337 L 318 336 L 319 335 L 319 334 L 320 333 L 321 332 L 322 331 L 323 330 L 323 329 L 324 328 L 325 327 L 326 326 L 326 325 L 327 324 L 328 323 L 328 322 L 329 321 L 330 320 L 330 319 L 331 318 L 332 317 L 332 316 L 333 315 L 333 314 L 334 313 L 335 312 L 335 311 L 336 310 L 336 309 L 337 308 L 337 307 L 338 306 L 338 305 L 339 304 L 339 303 L 340 302 L 340 301 L 341 300 L 341 299 L 342 298 L 342 297 L 342 296 L 343 295 L 343 294 L 344 293 L 344 292 L 344 291 L 345 290 L 345 289 L 346 288 L 346 287 L 346 286 L 347 285 L 347 284 L 347 283 L 348 282 L 348 281 L 348 280 L 349 279 L 349 278 L 349 277 L 349 276 L 350 275 L 350 274 L 350 273 L 351 272 L 351 271 L 351 270 L 351 269 L 351 268 L 352 267 L 352 266 L 352 265 L 352 264 L 353 263 L 353 262 L 353 261 L 353 260 L 353 259 L 353 258 L 354 257 L 354 256 L 354 255 L 354 254 L 354 253 L 354 252 L 355 251 L 355 250 L 355 249 L 355 248 L 355 247 L 355 246 L 355 245 L 356 244 L 356 243 L 356 242 L 356 241 L 356 240 L 356 239 L 356 238 L 356 237 L 356 236 L 356 235 L 356 234 L 356 233 L 357 232 L 357 231 L 357 230 L 357 229 L 357 228 L 357 227 L 357 226 L 357 225 L 357 224 L 357 223 L 357 222 L 357 221 L 357 220 L 357 219 L 357 218 L 357 217 L 357 216 L 357 215 L 357 214 L 357 213 L 357 212 L 357 211 L 358 210 L 359 211 L 360 211 L 361 211 L 362 211 L 363 211 L 364 211 L 365 211 L 366 211 L 367 211 L 368 211 L 369 211 L 370 211 L 371 211 L 372 211 L 373 211 L 374 211 L 375 211 L 376 211 L 377 211 L 378 211 L 379 211 L 380 211 L 381 211 L 382 211 L 383 211 L 384 211 L 385 211 L 386 211 L 387 211 L 388 211 L 389 211 L 390 211 L 391 211 L 392 211 L 393 211 L 394 211 L 395 211 L 396 211 L 397 211 L 398 211 L 399 211 L 400 211 L 401 211 L 402 211 L 403 211 L 404 211 L 405 211 L 406 211 L 407 211 L 408 211 L 409 211 L 410 211 L 411 211 L 412 211 L 413 211 L 414 211 L 415 211 L 416 211 L 417 211 L 418 211 L 419 211 L 420 211 L 421 211 L 422 211 L 423 211 L 424 211 L 425 211 L 426 211 L 427 211 L 428 211 L 429 211 L 430 211 L 431 211 L 432 211 L 433 211 L 434 211 L 435 211 L 436 211 L 437 211 L 438 211 L 439 211 L 440 211 L 441 211 L 442 212 L 443 212 L 444 212 L 445 212 L 446 212 L 447 212 L 448 212 L 449 212 L 450 212 L 451 212 L 452 212 L 453 212 L 454 212 L 455 212 L 456 212 L 457 212 L 458 212 L 459 212 L 460 212 L 461 212 L 462 212 L 463 212 L 464 212 L 465 212 L 466 212 L 467 212 L 468 212 L 469 212 L 470 212 L 471 212 L 472 212 L 473 212 L 474 212 L 475 213 L 475 214 L 475 215 L 475 216 L 475 217 L 475 218 L 475 219 L 475 220 L 475 221 L 475 222 L 475 223 L 475 224 L 475 225 L 475 226 L 475 227 L 475 228 L 475 229 L 475 230 L 475 231 L 475 232 L 475 233 L 475 234 L 475 235 L 475 236 L 475 237 L 475 238 L 475 239 L 475 240 L 475 241 L 475 242 L 475 243 L 475 244 L 475 245 L 475 246 L 475 247 L 475 248 L 475 249 L 475 250 L 475 251 L 475 252 L 475 253 L 475 254 L 475 255 L 475 256 L 475 257 L 475 258 L 475 259 L 475 260 L 475 261 L 475 262 L 475 263 L 475 264 L 475 265 L 475 266 L 475 267 L 475 268 L 475 269 L 475 270 L 475 271 L 475 272 L 475 273 L 475 274 L 475 275 L 475 276 L 475 277 L 475 278 L 475 279 L 475 280 L 475 281 L 475 282 L 475 283 L 475 284 L 475 285 L 475 286 L 475 287 L 475 288 L 475 289 L 475 290 L 475 291 L 475 292 L 475 293 L 475 294 L 475 295 L 475 296 L 475 297 L 475 298 L 475 299 L 475 300 L 476 300 L 477 300 L 478 300 L 479 300 L 480 300 L 481 300 L 482 300 L 483 300 L 484 300 L 485 300 L 486 300 L 487 300 L 488 300 L 489 300 L 490 300 L 490 299 L 490 298 L 490 297 L 490 296 L 490 295 L 490 294 L 490 293 L 490 292 L 490 291 L 490 290 L 490 289 L 490 288 L 490 287 L 490 286 L 490 285 L 490 284 L 490 283 L 490 282 L 490 281 L 490 280 L 490 279 L 490 278 L 490 277 L 490 276 L 490 275 L 490 274 L 490 273 L 490 272 L 490 271 L 490 270 L 490 269 L 490 268 L 490 267 L 490 266 L 490 265 L 490 264 L 490 263 L 490 262 L 490 261 L 490 260 L 490 259 L 490 258 L 490 257 L 490 256 L 490 255 L 490 254 L 490 253 L 490 252 L 490 251 L 490 250 L 490 249 L 490 248 L 490 247 L 490 246 L 490 245 L 490 244 L 490 243 L 490 242 L 490 241 L 490 240 L 490 239 L 490 238 L 490 237 L 490 236 L 490 235 L 490 234 L 490 233 L 490 232 L 490 231 L 490 230 L 490 229 L 490 228 L 490 227 L 490 226 L 490 225 L 490 224 L 490 223 L 490 222 L 490 221 L 490 220 L 490 219 L 490 218 L 490 217 L 490 216 L 490 215 L 490 214 L 490 213 L 491 212 L 492 212 L 493 212 L 494 212 L 495 212 L 496 212 L 497 212 L 498 212 L 499 212 L 500 212 L 501 212 L 502 212 L 503 212 L 504 212 L 505 212 L 506 212 L 507 212 L 508 212 L 509 212 L 510 212 L 511 212 L 512 212 L 513 212 L 514 212 L 515 212 L 516 212 L 517 212 L 518 212 L 519 212 L 520 212 L 521 212 L 522 212 L 523 212 L 524 212 L 525 212 L 526 212 L 527 212 L 528 212 L 529 212 L 530 212 L 531 211 L 532 211 L 533 211 L 534 211 L 535 211 L 536 211 L 537 211 L 538 211 L 539 211 L 540 211 L 541 211 L 542 211 L 543 211 L 544 211 L 545 211 L 546 211 L 547 211 L 548 211 L 549 211 L 550 211 L 551 211 L 552 211 L 553 211 L 554 211 L 555 211 L 556 211 L 557 211 L 558 211 L 559 211 L 560 211 L 561 211 L 562 211 L 563 211 L 564 211 L 565 211 L 566 211 L 567 211 L 568 211 L 569 211 L 570 211 L 571 211 L 572 211 L 573 211 L 574 211 L 575 211 L 576 211 L 577 211 L 578 211 L 579 211 L 580 211 L 581 211 L 582 211 L 583 211 L 584 211 L 585 211 L 586 211 L 587 211 L 588 211 L 589 211 L 590 211 L 591 211 L 592 211 L 593 211 L 594 211 L 595 211 L 596 211 L 597 211 L 598 212 L 598 213 L 598 214 L 598 215 L 598 216 L 598 217 L 598 218 L 598 219 L 598 220 L 598 221 L 598 222 L 598 223 L 598 224 L 598 225 L 598 226 L 598 227 L 598 228 L 598 229 L 599 230 L 599 231 L 599 232 L 599 233 L 599 234 L 599 235 L 599 236 L 599 237 L 599 238 L 599 239 L 599 240 L 600 241 L 600 242 L 600 243 L 600 244 L 600 245 L 600 246 L 600 247 L 600 248 L 601 249 L 601 250 L 601 251 L 601 252 L 601 253 L 601 254 L 601 255 L 602 256 L 602 257 L 602 258 L 602 259 L 602 260 L 603 261 L 603 262 L 603 263 L 603 264 L 603 265 L 604 266 L 604 267 L 604 268 L 604 269 L 605 270 L 605 271 L 605 272 L 605 273 L 606 274 L 606 275 L 606 276 L 607 277 L 607 278 L 607 279 L 608 280 L 608 281 L 608 282 L 609 283 L 609 284 L 609 285 L 610 286 L 610 287 L 610 288 L 611 289 L 611 290 L 612 291 L 612 292 L 612 293 L 613 294 L 613 295 L 614 296 L 614 297 L 615 298 L 615 299 L 615 300 L 616 301 L 616 302 L 617 303 L 617 304 L 618 305 L 619 306 L 619 307 L 620 308 L 620 309 L 621 310 L 621 311 L 622 312 L 623 313 L 623 314 L 624 315 L 624 316 L 625 317 L 626 318 L 626 319 L 627 320 L 628 321 L 628 322 L 629 323 L 630 324 L 630 325 L 631 326 L 632 327 L 633 328 L 634 329 L 634 330 L 635 331 L 636 332 L 637 333 L 638 334 L 638 335 L 639 336 L 640 337 L 641 338 L 642 339 L 643 340 L 644 341 L 645 342 L 646 343 L 646 344 L 647 345 L 648 346 L 649 347 L 650 348 L 651 349 L 652 349 L 653 350 L 654 351 L 655 352 L 656 353 L 657 354 L 658 355 L 659 356 L 660 356 L 661 357 L 662 358 L 663 359 L 664 360 L 665 360 L 666 361 L 667 362 L 668 362 L 669 363 L 670 364 L 671 364 L 672 365 L 673 366 L 674 366 L 675 367 L 676 368 L 677 368 L 678 369 L 679 369 L 680 370 L 681 370 L 682 371 L 683 371 L 684 372 L 685 372 L 686 373 L 687 373 L 688 374 L 689 374 L 690 375 L 691 375 L 692 376 L 693 376 L 694 377 L 695 377 L 696 378 L 697 378 L 698 378 L 699 379 L 700 379 L 701 379 L 702 380 L 703 380 L 704 381 L 705 381 L 706 381 L 707 382 L 708 382 L 709 382 L 710 383 L 711 383 L 712 383 L 713 383 L 714 384 L 715 384 L 716 384 L 717 385 L 718 385 L 719 385 L 720 385 L 721 386 L 722 386 L 723 386 L 724 386 L 725 386 L 726 386 L 727 386 L 728 387 L 729 387 L 730 387 L 731 387 L 732 387 L 733 387 L 734 387 L 735 387 L 736 388 L 737 388 L 738 388 L 739 388 L 740 388 L 741 388 L 742 388 L 743 388 L 744 388 L 745 388 L 746 388 L 747 389 L 748 389 L 749 389 L 750 389 L 751 389 L 752 389 L 753 389 L 754 389 L 755 389 L 756 389 L 757 389 L 758 389 L 759 389 L 760 389 L 761 389 L 762 389 L 763 389 L 764 389 L 765 389 L 766 389 L 767 389 L 768 389 L 769 389 L 770 389 L 771 389 L 772 389 L 773 389 L 774 389 L 775 389 L 776 389 L 777 389 L 778 389 L 779 388 L 780 388 L 781 388 L 782 388 L 783 388 L 784 388 L 785 388 L 786 388 L 787 388 L 788 387 L 789 387 L 790 387 L 791 387 L 792 387 L 793 387 L 794 386 L 795 386 L 796 386 L 797 386 L 798 386 L 799 385 L 800 385 L 801 385 L 802 385 L 803 384 L 804 384 L 805 384 L 806 384 L 807 383 L 808 383 L 809 383 L 810 382 L 811 382 L 812 382 L 813 381 L 814 381 L 815 381 L 816 380 L 817 380 L 818 379 L 819 379 L 820 379 L 821 378 L 822 378 L 823 377 L 824 377 L 825 376 L 826 376 L 827 375 L 828 375 L 829 374 L 830 374 L 831 373 L 832 373 L 833 372 L 834 372 L 835 371 L 836 370 L 837 370 L 838 369 L 839 369 L 840 368 L 841 367 L 842 367 L 843 366 L 844 365 L 845 365 L 846 364 L 847 363 L 848 363 L 849 362 L 850 361 L 851 360 L 852 360 L 853 359 L 854 358 L 855 357 L 856 357 L 857 356 L 858 355 L 859 354 L 860 354 L 861 353 L 862 352 L 863 351 L 864 350 L 865 349 L 866 349 L 867 348 L 868 347 L 869 346 L 870 345 L 871 344 L 872 343 L 873 342 L 873 341 L 874 340 L 875 339 L 876 338 L 876 337 L 877 336 L 878 335 L 878 334 L 879 333 L 880 332 L 880 331 L 881 330 L 882 329 L 882 328 L 883 327 L 884 326 L 884 325 L 885 324 L 885 323 L 886 322 L 887 321 L 887 320 L 888 319 L 888 318 L 889 317 L 890 316 L 890 315 L 891 314 L 892 313 L 892 312 L 893 311 L 893 310 L 894 309 L 895 308 L 895 307 L 896 306 L 897 305 L 897 304 L 898 303 L 899 302 L 899 301 L 900 300 L 901 299 L 901 298 L 902 297 L 903 296 L 903 295 L 904 294 L 905 293 L 905 292 L 906 291 L 907 290 L 907 289 L 908 288 L 909 287 L 910 286 L 910 285 L 911 284 L 912 283 L 913 282 L 914 281 L 915 280 L 916 279 L 917 278 L 918 278 L 919 277 L 920 276 L 921 275 L 922 275 L 923 274 L 924 274 L 925 273 L 926 273 L 927 272 L 928 272 L 929 271 L 930 271 L 931 270 L 932 270 L 933 269 L 934 269 L 935 268 L 936 268 L 937 268 L 938 267 L 939 267 L 940 267 L 941 266 L 942 266 L 942 265 L 943 264 L 943 263 L 944 262 L 944 261 L 945 260 L 945 259 L 946 258 L 946 257 L 947 256 L 947 255 L 948 254 L 948 253 L 949 252 L 949 251 L 950 250 L 949 250 L 948 250 L 947 250 L 946 251 L 945 251 L 944 251 L 943 252 L 942 252 L 941 252 L 940 253 L 939 253 L 938 253 L 937 254 L 936 254 L 935 254 L 934 255 L 933 255 L 932 255 L 931 256 L 930 256 L 929 256 L 928 257 L 927 257 L 926 258 L 925 258 L 924 259 L 923 259 L 922 259 L 921 260 L 920 260 L 919 261 L 918 262 L 917 262 L 916 263 L 915 263 L 914 264 L 913 265 L 912 265 L 911 266 L 910 267 L 909 268 L 908 268 L 907 269 L 906 270 L 905 271 L 904 272 L 903 273 L 902 274 L 901 275 L 900 275 L 900 276 L 899 277 L 898 278 L 897 279 L 896 280 L 895 281 L 894 282 L 893 283 L 892 284 L 891 285 L 890 286 L 889 287 L 889 288 L 888 289 L 887 290 L 886 291 L 885 292 L 884 293 L 884 294 L 883 295 L 882 296 L 882 297 L 881 298 L 880 299 L 880 300 L 879 301 L 878 302 L 877 303 L 877 304 L 876 305 L 875 306 L 874 307 L 874 308 L 873 309 L 872 310 L 871 311 L 870 312 L 870 313 L 869 314 L 868 315 L 867 316 L 866 317 L 865 318 L 864 319 L 863 320 L 863 321 L 862 322 L 861 323 L 860 324 L 859 325 L 858 326 L 857 327 L 856 328 L 855 328 L 854 329 L 853 330 L 852 331 L 851 332 L 850 333 L 849 334 L 848 334 L 847 335 L 846 336 L 845 337 L 844 337 L 843 338 L 842 339 L 841 339 L 840 340 L 839 341 L 838 341 L 837 342 L 836 343 L 835 343 L 834 344 L 833 344 L 832 345 L 831 345 L 830 346 L 829 347 L 828 347 L 827 347 L 826 348 L 825 348 L 824 349 L 823 349 L 822 350 L 821 350 L 820 351 L 819 351 L 818 352 L 817 352 L 816 352 L 815 353 L 814 353 L 813 354 L 812 354 L 811 354 L 810 355 L 809 355 L 808 355 L 807 356 L 806 356 L 805 356 L 804 357 L 803 357 L 802 357 L 801 358 L 800 358 L 799 358 L 798 359 L 797 359 L 796 359 L 795 359 L 794 360 L 793 360 L 792 360 L 791 360 L 790 361 L 789 361 L 788 361 L 787 361 L 786 361 L 785 362 L 784 362 L 783 362 L 782 362 L 781 362 L 780 362 L 779 362 L 778 363 L 777 363 L 776 363 L 775 363 L 774 363 L 773 363 L 772 363 L 771 363 L 770 363 L 769 364 L 768 364 L 767 364 L 766 364 L 765 364 L 764 364 L 763 364 L 762 364 L 761 364 L 760 364 L 759 364 L 758 364 L 757 364 L 756 364 L 755 364 L 754 364 L 753 364 L 752 364 L 751 364 L 750 364 L 749 364 L 748 364 L 747 364 L 746 364 L 745 364 L 744 364 L 743 364 L 742 364 L 741 364 L 740 364 L 739 363 L 738 363 L 737 363 L 736 363 L 735 363 L 734 363 L 733 363 L 732 363 L 731 363 L 730 362 L 729 362 L 728 362 L 727 362 L 726 362 L 725 361 L 724 361 L 723 361 L 722 361 L 721 360 L 720 360 L 719 359 L 718 359 L 717 359 L 716 358 L 715 358 L 714 357 L 713 357 L 712 356 L 711 356 L 710 355 L 709 355 L 708 354 L 707 354 L 706 353 L 705 353 L 704 352 L 703 352 L 702 351 L 701 350 L 700 350 L 699 349 L 698 349 L 697 348 L 696 347 L 695 347 L 694 346 L 693 345 L 692 344 L 691 344 L 690 343 L 689 342 L 688 341 L 687 341 L 686 340 L 685 339 L 684 338 L 683 337 L 682 336 L 681 336 L 680 335 L 679 334 L 678 333 L 677 332 L 676 331 L 675 330 L 674 329 L 673 328 L 672 327 L 672 326 L 671 325 L 670 324 L 669 323 L 668 322 L 667 321 L 666 320 L 666 319 L 665 318 L 664 317 L 663 316 L 663 315 L 662 314 L 661 313 L 660 312 L 660 311 L 659 310 L 658 309 L 658 308 L 657 307 L 656 306 L 656 305 L 655 304 L 654 303 L 654 302 L 653 301 L 653 300 L 652 299 L 652 298 L 651 297 L 651 296 L 650 295 L 649 294 L 649 293 L 648 292 L 648 291 L 647 290 L 647 289 L 646 288 L 646 287 L 646 286 L 645 285 L 645 284 L 644 283 L 644 282 L 643 281 L 643 280 L 643 279 L 642 278 L 642 277 L 641 276 L 641 275 L 641 274 L 640 273 L 640 272 L 640 271 L 639 270 L 639 269 L 639 268 L 638 267 L 638 266 L 638 265 L 637 264 L 637 263 L 637 262 L 636 261 L 636 260 L 636 259 L 636 258 L 635 257 L 635 256 L 635 255 L 635 254 L 634 253 L 634 252 L 634 251 L 634 250 L 634 249 L 633 248 L 633 247 L 633 246 L 633 245 L 633 244 L 632 243 L 632 242 L 632 241 L 632 240 L 632 239 L 632 238 L 631 237 L 631 236 L 631 235 L 631 234 L 631 233 L 631 232 L 631 231 L 630 230 L 630 229 L 630 228 L 630 227 L 630 226 L 630 225 L 630 224 L 630 223 L 630 222 L 630 221 L 630 220 L 630 219 L 630 218 L 630 217 L 629 216 L 629 215 L 629 214 L 629 213 L 629 212 L 629 211 L 630 210 L 631 210 L 632 210 L 633 210 L 634 210 L 635 210 L 636 210 L 637 210 L 638 210 L 639 210 L 640 210 L 641 210 L 642 210 L 643 210 L 644 210 L 645 210 L 646 210 L 647 210 L 648 210 L 649 210 L 650 210 L 651 210 L 652 210 L 653 210 L 654 210 L 655 210 L 656 210 L 657 210 L 658 210 L 659 210 L 660 210 L 661 210 L 662 210 L 663 210 L 664 210 L 665 209 L 666 209 L 667 209 L 668 209 L 669 209 L 670 209 L 671 209 L 672 209 L 673 209 L 674 210 L 674 211 L 674 212 L 674 213 L 674 214 L 674 215 L 674 216 L 674 217 L 675 218 L 675 219 L 675 220 L 675 221 L 675 222 L 675 223 L 675 224 L 675 225 L 676 226 L 676 227 L 676 228 L 676 229 L 676 230 L 677 231 L 677 232 L 677 233 L 677 234 L 678 235 L 678 236 L 678 237 L 678 238 L 679 239 L 679 240 L 679 241 L 680 242 L 680 243 L 680 244 L 681 245 L 681 246 L 682 247 L 682 248 L 682 249 L 683 250 L 683 251 L 684 252 L 684 253 L 685 254 L 685 255 L 686 256 L 687 257 L 687 258 L 688 259 L 688 260 L 689 261 L 690 262 L 690 263 L 691 264 L 692 265 L 693 266 L 693 267 L 694 268 L 695 269 L 696 270 L 697 271 L 697 272 L 698 273 L 699 274 L 700 275 L 701 276 L 702 277 L 703 278 L 704 279 L 705 280 L 706 281 L 707 282 L 708 283 L 709 283 L 710 284 L 711 285 L 712 286 L 713 287 L 714 287 L 715 288 L 716 289 L 717 289 L 718 290 L 719 291 L 720 291 L 721 292 L 722 293 L 723 293 L 724 294 L 725 294 L 726 295 L 727 295 L 728 296 L 729 296 L 730 297 L 731 297 L 732 298 L 733 298 L 734 298 L 735 299 L 736 299 L 737 300 L 738 300 L 739 300 L 740 301 L 741 301 L 742 301 L 743 302 L 744 302 L 745 302 L 746 303 L 747 303 L 748 303 L 749 304 L 750 304 L 751 304 L 752 304 L 753 305 L 754 305 L 755 305 L 756 305 L 757 305 L 758 305 L 759 305 L 760 306 L 761 306 L 762 306 L 763 306 L 764 306 L 765 306 L 766 306 L 767 306 L 768 306 L 769 306 L 770 307 L 771 307 L 772 307 L 773 307 L 774 307 L 775 307 L 776 307 L 777 307 L 778 307 L 779 307 L 780 307 L 781 307 L 782 307 L 783 307 L 784 307 L 785 307 L 786 307 L 787 307 L 788 307 L 789 307 L 790 307 L 791 307 L 792 307 L 793 307 L 794 307 L 795 307 L 796 306 L 797 306 L 798 306 L 799 306 L 800 306 L 801 306 L 802 306 L 803 306 L 804 305 L 805 305 L 806 305 L 807 305 L 808 305 L 809 304 L 810 304 L 811 304 L 812 304 L 813 303 L 814 303 L 815 303 L 816 302 L 817 302 L 818 302 L 819 301 L 820 301 L 821 301 L 822 300 L 823 300 L 824 300 L 825 299 L 826 299 L 827 298 L 828 298 L 829 297 L 830 297 L 831 296 L 832 296 L 833 295 L 834 295 L 835 294 L 836 293 L 837 293 L 838 292 L 839 292 L 840 291 L 841 290 L 842 290 L 843 289 L 844 288 L 845 288 L 846 287 L 847 286 L 848 286 L 849 285 L 850 284 L 851 283 L 852 283 L 853 282 L 854 281 L 855 280 L 856 279 L 857 278 L 857 277 L 858 276 L 859 275 L 860 274 L 860 273 L 861 272 L 862 271 L 863 270 L 863 269 L 864 268 L 865 267 L 865 266 L 866 265 L 867 264 L 868 263 L 868 262 L 869 261 L 870 260 L 870 259 L 871 258 L 872 257 L 873 256 L 873 255 L 874 254 L 875 253 L 876 252 L 876 251 L 877 250 L 878 249 L 879 248 L 879 247 L 880 246 L 881 245 L 882 244 L 883 243 L 884 243 L 885 242 L 886 241 L 887 241 L 888 240 L 889 239 L 890 239 L 891 238 L 892 238 L 893 238 L 894 237 L 895 237 L 896 236 L 897 236 L 898 236 L 899 235 L 900 235 L 901 235 L 902 234 L 902 233 L 903 232 L 903 231 L 904 230 L 904 229 L 905 228 L 905 227 L 906 226 L 906 225 L 905 225 L 904 225 L 903 226 L 902 226 L 901 226 L 900 227 L 899 227 L 898 227 L 897 227 L 896 228 L 895 228 L 894 228 L 893 229 L 892 229 L 891 229 L 890 230 L 889 230 L 888 231 L 887 231 L 886 232 L 885 232 L 884 233 L 883 233 L 882 234 L 881 234 L 880 235 L 879 236 L 878 236 L 877 237 L 876 238 L 875 239 L 874 240 L 873 240 L 872 241 L 871 242 L 870 243 L 869 244 L 868 245 L 867 246 L 866 247 L 865 248 L 864 249 L 863 250 L 863 251 L 862 252 L 861 253 L 860 254 L 860 255 L 859 256 L 858 257 L 857 258 L 856 259 L 855 260 L 854 261 L 853 262 L 852 263 L 852 264 L 851 265 L 850 266 L 849 266 L 848 267 L 847 268 L 846 269 L 845 270 L 844 271 L 843 272 L 842 273 L 841 273 L 840 274 L 839 275 L 838 275 L 837 276 L 836 277 L 835 277 L 834 278 L 833 278 L 832 279 L 831 280 L 830 280 L 829 281 L 828 281 L 827 282 L 826 282 L 825 282 L 824 283 L 823 283 L 822 284 L 821 284 L 820 284 L 819 285 L 818 285 L 817 285 L 816 286 L 815 286 L 814 286 L 813 287 L 812 287 L 811 287 L 810 288 L 809 288 L 808 288 L 807 289 L 806 289 L 805 289 L 804 289 L 803 290 L 802 290 L 801 290 L 800 290 L 799 290 L 798 290 L 797 291 L 796 291 L 795 291 L 794 291 L 793 291 L 792 291 L 791 291 L 790 291 L 789 292 L 788 292 L 787 292 L 786 292 L 785 292 L 784 292 L 783 292 L 782 292 L 781 292 L 780 292 L 779 292 L 778 292 L 777 292 L 776 292 L 775 292 L 774 292 L 773 292 L 772 292 L 771 292 L 770 292 L 769 292 L 768 292 L 767 292 L 766 292 L 765 292 L 764 291 L 763 291 L 762 291 L 761 291 L 760 291 L 759 291 L 758 291 L 757 290 L 756 290 L 755 290 L 754 289 L 753 289 L 752 289 L 751 288 L 750 288 L 749 288 L 748 287 L 747 287 L 746 286 L 745 286 L 744 285 L 743 285 L 742 284 L 741 284 L 740 283 L 739 282 L 738 282 L 737 281 L 736 281 L 735 280 L 734 279 L 733 279 L 732 278 L 731 277 L 730 276 L 729 276 L 728 275 L 727 274 L 726 273 L 725 272 L 724 271 L 723 270 L 722 269 L 721 268 L 720 267 L 719 266 L 718 265 L 717 264 L 716 263 L 715 262 L 715 261 L 714 260 L 713 259 L 712 258 L 712 257 L 711 256 L 710 255 L 710 254 L 709 253 L 708 252 L 708 251 L 707 250 L 707 249 L 706 248 L 705 247 L 705 246 L 705 245 L 704 244 L 704 243 L 703 242 L 703 241 L 702 240 L 702 239 L 701 238 L 701 237 L 701 236 L 700 235 L 700 234 L 700 233 L 699 232 L 699 231 L 699 230 L 698 229 L 698 228 L 698 227 L 697 226 L 697 225 L 697 224 L 697 223 L 697 222 L 696 221 L 696 220 L 696 219 L 696 218 L 696 217 L 695 216 L 695 215 L 695 214 L 695 213 L 695 212 L 695 211 L 695 210 L 696 209 L 697 209 L 698 209 L 699 209 L 700 209 L 701 209 L 702 209 L 703 209 L 704 209 L 705 209 L 706 209 L 707 209 L 708 208 L 709 208 L 710 208 L 711 208 L 712 208 L 713 208 L 714 208 L 715 208 L 716 208 L 717 208 L 718 208 L 719 208 L 720 208 L 721 208 L 722 208 L 723 208 L 724 208 L 725 208 L 726 208 L 727 208 L 728 208 L 729 208 L 730 208 L 731 208 L 732 208 L 733 208 L 734 208 L 735 208 L 736 208 L 737 208 L 738 208 L 739 208 L 740 208 L 741 208 L 742 208 L 743 208 L 744 208 L 745 208 L 746 208 L 747 208 L 748 207 L 749 207 L 750 207 L 751 207 L 752 207 L 753 207 L 754 207 L 755 207 L 756 207 L 757 207 L 758 207 L 759 207 L 760 207 L 761 207 L 762 207 L 763 207 L 764 207 L 765 207 L 766 207 L 767 207 L 768 207 L 769 207 L 770 207 L 771 207 L 772 207 L 773 207 L 774 207 L 775 207 L 776 207 L 777 207 L 778 207 L 779 207 L 780 207 L 781 207 L 782 207 L 783 207 L 784 207 L 785 207 L 786 207 L 787 206 L 788 206 L 789 206 L 790 206 L 791 206 L 792 206 L 793 206 L 794 206 L 795 206 L 796 206 L 797 206 L 798 206 L 799 206 L 800 206 L 801 206 L 802 206 L 803 206 L 804 206 L 805 206 L 806 206 L 807 206 L 808 206 L 809 206 L 810 206 L 811 206 L 812 206 L 813 206 L 814 206 L 815 206 L 816 206 L 817 206 L 818 206 L 819 206 L 820 206 L 821 206 L 822 205 L 823 205 L 824 205 L 825 205 L 826 205 L 827 205 L 828 205 L 829 205 L 830 205 L 831 205 L 832 205 L 833 205 L 834 205 L 835 205 L 836 205 L 837 205 L 838 205 L 839 205 L 840 205 L 841 205 L 842 205 L 843 205 L 844 205 L 845 205 L 846 205 L 847 205 L 848 205 L 849 205 L 850 205 L 851 205 L 852 205 L 853 205 L 854 205 L 855 205 L 856 205 L 857 204 L 858 204 L 859 204 L 860 204 L 861 204 L 862 204 L 863 204 L 864 204 L 865 204 L 866 204 L 867 204 L 868 204 L 869 204 L 870 204 L 871 204 L 872 204 L 873 204 L 874 204 L 875 204 L 876 204 L 877 204 L 878 204 L 879 204 L 880 204 L 881 204 L 882 204 L 883 204 L 884 204 L 885 204 L 886 204 L 887 204 L 888 204 L 889 204 L 890 204 L 891 204 L 892 204 L 893 203 L 894 203 L 895 203 L 896 203 L 897 203 L 898 203 L 899 203 L 900 203 L 901 203 L 902 203 L 903 203 L 904 203 L 905 203 L 906 203 L 907 203 L 908 203 L 909 203 L 910 203 L 911 203 L 912 203 L 913 203 L 914 203 L 915 203 L 916 203 L 917 203 L 918 203 L 919 203 L 920 203 L 921 203 L 922 203 L 923 203 L 924 203 L 925 203 L 926 203 L 927 203 L 928 202 L 929 202 L 930 202 L 931 202 L 932 202 L 933 202 L 934 202 L 935 202 L 936 202 L 937 202 L 938 202 L 939 202 L 940 202 L 941 202 L 942 202 L 943 202 L 944 202 L 945 202 L 946 202 L 947 202 L 948 202 L 949 202 L 950 202 L 951 202 L 951 201 L 951 200 L 950 200 L 949 200 L 948 200 L 947 200 L 946 200 L 945 200 L 944 200 L 943 200 L 942 200 L 941 200 L 940 200 L 939 200 L 938 200 L 937 200 L 936 200 L 935 200 L 934 200 L 933 200 L 932 200 L 931 200 L 930 199 L 929 199 L 928 199 L 927 199 L 926 199 L 925 199 L 924 199 L 923 199 L 922 199 L 921 199 L 920 199 L 919 199 L 918 199 L 917 199 L 916 199 L 915 199 L 914 199 L 913 199 L 912 199 L 911 199 L 910 199 L 909 199 L 908 199 L 907 199 L 906 199 L 905 199 L 904 199 L 903 199 L 902 199 L 901 198 L 900 198 L 899 198 L 898 198 L 897 198 L 896 198 L 895 198 L 894 198 L 893 198 L 892 198 L 891 198 L 890 198 L 889 198 L 888 198 L 887 198 L 886 198 L 885 198 L 884 198 L 883 198 L 882 198 L 881 198 L 880 198 L 879 198 L 878 198 L 877 198 L 876 198 L 875 198 L 874 198 L 873 198 L 872 198 L 871 197 L 870 197 L 869 197 L 868 197 L 867 197 L 866 197 L 865 197 L 864 197 L 863 197 L 862 197 L 861 197 L 860 197 L 859 197 L 858 197 L 857 197 L 856 197 L 855 197 L 854 197 L 853 197 L 852 197 L 851 197 L 850 197 L 849 197 L 848 197 L 847 197 L 846 197 L 845 197 L 844 197 L 843 197 L 842 196 L 841 196 L 840 196 L 839 196 L 838 196 L 837 196 L 836 196 L 835 196 L 834 196 L 833 196 L 832 196 L 831 196 L 830 196 L 829 196 L 828 196 L 827 196 L 826 196 L 825 196 L 824 196 L 823 196 L 822 196 L 821 196 L 820 196 L 819 196 L 818 196 L 817 196 L 816 196 L 815 196 L 814 196 L 813 195 L 812 195 L 811 195 L 810 195 L 809 195 L 808 195 L 807 195 L 806 195 L 805 195 L 804 195 L 803 195 L 802 195 L 801 195 L 800 195 L 799 195 L 798 195 L 797 195 L 796 195 L 795 195 L 794 195 L 793 195 L 792 195 L 791 195 L 790 195 L 789 195 L 788 195 L 787 195 L 786 195 L 785 195 L 784 194 L 783 194 L 782 194 L 781 194 L 780 194 L 779 194 L 778 194 L 777 194 L 776 194 L 775 194 L 774 194 L 773 194 L 772 194 L 771 194 L 770 194 L 769 194 L 768 194 L 767 194 L 766 194 L 765 194 L 764 194 L 763 194 L 762 194 L 761 194 L 760 194 L 759 194 L 758 194 L 757 194 L 756 194 L 755 194 L 754 194 L 753 193 L 752 193 L 751 193 L 750 193 L 749 193 L 748 193 L 747 193 L 746 193 L 745 193 L 744 193 L 743 193 L 742 193 L 741 193 L 740 193 L 739 193 L 738 193 L 737 193 L 736 193 L 735 193 L 734 193 L 733 193 L 732 193 L 731 193 L 730 193 L 729 193 L 728 193 L 727 193 L 726 193 L 725 193 L 724 193 L 723 192 L 722 192 L 721 192 L 720 192 L 719 192 L 718 192 L 717 192 L 716 192 L 715 192 L 714 192 L 713 192 L 712 192 L 711 192 L 710 192 L 709 192 L 708 192 L 707 192 L 706 192 L 705 192 L 704 192 L 703 192 L 702 192 L 701 192 L 700 192 L 699 192 L 698 192 L 697 192 L 696 192 L 695 192 L 694 191 L 694 190 L 694 189 L 694 188 L 695 187 L 695 186 L 695 185 L 695 184 L 695 183 L 695 182 L 695 181 L 696 180 L 696 179 L 696 178 L 696 177 L 696 176 L 696 175 L 697 174 L 697 173 L 697 172 L 697 171 L 698 170 L 698 169 L 698 168 L 698 167 L 699 166 L 699 165 L 699 164 L 700 163 L 700 162 L 700 161 L 701 160 L 701 159 L 701 158 L 702 157 L 702 156 L 703 155 L 703 154 L 703 153 L 704 152 L 704 151 L 705 150 L 705 149 L 706 148 L 706 147 L 707 146 L 707 145 L 708 144 L 708 143 L 709 142 L 709 141 L 710 140 L 711 139 L 711 138 L 712 137 L 712 136 L 713 135 L 714 134 L 715 133 L 715 132 L 716 131 L 717 130 L 717 129 L 718 128 L 719 127 L 720 126 L 721 125 L 722 124 L 722 123 L 723 122 L 724 121 L 725 120 L 726 119 L 727 118 L 728 117 L 729 116 L 730 115 L 731 115 L 732 114 L 733 113 L 734 112 L 735 111 L 736 111 L 737 110 L 738 109 L 739 108 L 740 108 L 741 107 L 742 106 L 743 106 L 744 105 L 745 105 L 746 104 L 747 104 L 748 103 L 749 103 L 750 102 L 751 102 L 752 101 L 753 101 L 754 100 L 755 100 L 756 100 L 757 100 L 758 99 L 759 99 L 760 99 L 761 99 L 762 99 L 763 98 L 764 98 L 765 98 L 766 98 L 767 98 L 768 98 L 769 98 L 770 98 L 771 98 L 772 98 L 773 98 L 774 98 L 775 98 L 776 98 L 777 98 L 778 98 L 779 98 L 780 98 L 781 98 L 782 98 L 783 98 L 784 98 L 785 98 L 786 98 L 787 98 L 788 98 L 789 98 L 790 98 L 791 98 L 792 99 L 793 99 L 794 99 L 795 99 L 796 99 L 797 99 L 798 99 L 799 100 L 800 100 L 801 100 L 802 100 L 803 100 L 804 100 L 805 101 L 806 101 L 807 101 L 808 101 L 809 102 L 810 102 L 811 102 L 812 103 L 813 103 L 814 103 L 815 104 L 816 104 L 817 104 L 818 105 L 819 105 L 820 105 L 821 106 L 822 106 L 823 107 L 824 107 L 825 107 L 826 108 L 827 108 L 828 109 L 829 109 L 830 110 L 831 110 L 832 111 L 833 111 L 834 112 L 835 113 L 836 113 L 837 114 L 838 114 L 839 115 L 840 116 L 841 117 L 842 117 L 843 118 L 844 119 L 845 120 L 846 121 L 847 121 L 848 122 L 849 123 L 850 124 L 851 125 L 852 126 L 853 127 L 854 128 L 855 129 L 855 130 L 856 131 L 857 132 L 858 133 L 859 134 L 860 135 L 860 136 L 861 137 L 862 138 L 863 139 L 864 140 L 865 141 L 866 142 L 866 143 L 867 144 L 868 145 L 869 146 L 870 147 L 871 147 L 872 148 L 873 149 L 874 150 L 875 151 L 876 152 L 877 153 L 878 153 L 879 154 L 880 155 L 881 155 L 882 156 L 883 157 L 884 157 L 885 158 L 886 158 L 887 159 L 888 159 L 889 160 L 890 160 L 891 160 L 892 161 L 893 161 L 894 161 L 895 162 L 896 162 L 897 162 L 898 163 L 899 163 L 900 163 L 901 164 L 902 164 L 903 164 L 904 164 L 905 165 L 906 165 L 906 164 L 906 163 L 905 162 L 904 161 L 904 160 L 903 159 L 903 158 L 902 157 L 902 156 L 901 155 L 900 155 L 899 154 L 898 154 L 897 154 L 896 153 L 895 153 L 894 153 L 893 152 L 892 152 L 891 151 L 890 151 L 889 150 L 888 150 L 887 149 L 886 149 L 885 148 L 884 147 L 883 146 L 882 145 L 881 144 L 880 143 L 879 142 L 878 141 L 877 140 L 876 139 L 876 138 L 875 137 L 874 136 L 873 135 L 873 134 L 872 133 L 871 132 L 871 131 L 870 130 L 869 129 L 868 128 L 868 127 L 867 126 L 866 125 L 866 124 L 865 123 L 864 122 L 863 121 L 863 120 L 862 119 L 861 118 L 861 117 L 860 116 L 859 115 L 858 114 L 858 113 L 857 112 L 856 111 L 855 110 L 854 109 L 853 108 L 852 107 L 851 107 L 850 106 L 849 105 L 848 105 L 847 104 L 846 103 L 845 103 L 844 102 L 843 101 L 842 101 L 841 100 L 840 99 L 839 99 L 838 98 L 837 98 L 836 97 L 835 97 L 834 96 L 833 96 L 832 95 L 831 95 L 830 94 L 829 94 L 828 93 L 827 93 L 826 92 L 825 92 L 824 91 L 823 91 L 822 91 L 821 90 L 820 90 L 819 89 L 818 89 L 817 89 L 816 88 L 815 88 L 814 88 L 813 87 L 812 87 L 811 87 L 810 86 L 809 86 L 808 86 L 807 86 L 806 85 L 805 85 L 804 85 L 803 85 L 802 85 L 801 84 L 800 84 L 799 84 L 798 84 L 797 84 L 796 84 L 795 84 L 794 83 L 793 83 L 792 83 L 791 83 L 790 83 L 789 83 L 788 83 L 787 83 L 786 83 L 785 83 L 784 83 L 783 83 L 782 83 L 781 83 L 780 83 L 779 83 L 778 83 L 777 83 L 776 83 L 775 83 L 774 83 L 773 83 L 772 83 L 771 83 L 770 83 L 769 83 L 768 83 L 767 83 L 766 83 L 765 84 L 764 84 L 763 84 L 762 84 L 761 84 L 760 84 L 759 84 L 758 84 L 757 85 L 756 85 L 755 85 L 754 85 L 753 85 L 752 85 L 751 86 L 750 86 L 749 86 L 748 87 L 747 87 L 746 87 L 745 87 L 744 88 L 743 88 L 742 88 L 741 89 L 740 89 L 739 89 L 738 90 L 737 90 L 736 91 L 735 91 L 734 91 L 733 92 L 732 92 L 731 93 L 730 93 L 729 94 L 728 94 L 727 95 L 726 95 L 725 96 L 724 96 L 723 97 L 722 97 L 721 98 L 720 98 L 719 99 L 718 100 L 717 100 L 716 101 L 715 102 L 714 102 L 713 103 L 712 104 L 711 105 L 710 105 L 709 106 L 708 107 L 707 108 L 706 109 L 705 110 L 704 111 L 703 112 L 702 113 L 701 114 L 700 115 L 699 116 L 698 117 L 697 118 L 696 119 L 695 120 L 695 121 L 694 122 L 693 123 L 692 124 L 692 125 L 691 126 L 690 127 L 690 128 L 689 129 L 688 130 L 688 131 L 687 132 L 686 133 L 686 134 L 685 135 L 685 136 L 684 137 L 684 138 L 683 139 L 683 140 L 682 141 L 682 142 L 682 143 L 681 144 L 681 145 L 680 146 L 680 147 L 680 148 L 679 149 L 679 150 L 679 151 L 678 152 L 678 153 L 678 154 L 678 155 L 677 156 L 677 157 L 677 158 L 677 159 L 676 160 L 676 161 L 676 162 L 676 163 L 676 164 L 675 165 L 675 166 L 675 167 L 675 168 L 675 169 L 675 170 L 675 171 L 674 172 L 674 173 L 674 174 L 674 175 L 674 176 L 674 177 L 674 178 L 674 179 L 674 180 L 674 181 L 674 182 L 674 183 L 674 184 L 674 185 L 674 186 L 674 187 L 674 188 L 674 189 L 674 190 L 673 191 L 672 191 L 671 191 L 670 191 L 669 191 L 668 191 L 667 191 L 666 191 L 665 191 L 664 191 L 663 191 L 662 191 L 661 191 L 660 191 L 659 191 L 658 191 L 657 191 L 656 191 L 655 191 L 654 191 L 653 191 L 652 191 L 651 190 L 650 190 L 649 190 L 648 190 L 647 190 L 646 190 L 645 190 L 644 190 L 643 190 L 642 190 L 641 190 L 640 190 L 639 190 L 638 190 L 637 190 L 636 190 L 635 190 L 634 190 L 633 190 L 632 190 L 631 190 L 630 190 L 629 189 L 629 188 L 630 187 L 630 186 L 630 185 L 630 184 L 630 183 L 630 182 L 630 181 L 630 180 L 630 179 L 631 178 L 631 177 L 631 176 L 631 175 L 631 174 L 631 173 L 631 172 L 632 171 L 632 170 L 632 169 L 632 168 L 632 167 L 632 166 L 633 165 L 633 164 L 633 163 L 633 162 L 633 161 L 634 160 L 634 159 L 634 158 L 634 157 L 635 156 L 635 155 L 635 154 L 635 153 L 635 152 L 636 151 L 636 150 L 636 149 L 636 148 L 637 147 L 637 146 L 637 145 L 638 144 L 638 143 L 638 142 L 639 141 L 639 140 L 639 139 L 639 138 L 640 137 L 640 136 L 640 135 L 641 134 L 641 133 L 641 132 L 642 131 L 642 130 L 643 129 L 643 128 L 643 127 L 644 126 L 644 125 L 644 124 L 645 123 L 645 122 L 646 121 L 646 120 L 646 119 L 647 118 L 647 117 L 648 116 L 648 115 L 649 114 L 649 113 L 650 112 L 650 111 L 651 110 L 651 109 L 652 108 L 652 107 L 653 106 L 653 105 L 654 104 L 654 103 L 655 102 L 655 101 L 656 100 L 656 99 L 657 98 L 658 97 L 658 96 L 659 95 L 659 94 L 660 93 L 661 92 L 661 91 L 662 90 L 662 89 L 663 88 L 664 87 L 664 86 L 665 85 L 666 84 L 667 83 L 667 82 L 668 81 L 669 80 L 669 79 L 670 78 L 671 77 L 672 76 L 673 75 L 673 74 L 674 73 L 675 72 L 676 71 L 677 70 L 678 69 L 679 68 L 680 67 L 681 66 L 682 65 L 683 64 L 684 63 L 685 62 L 686 61 L 687 60 L 688 59 L 689 58 L 690 57 L 691 56 L 692 55 L 693 54 L 694 54 L 695 53 L 696 52 L 697 51 L 698 50 L 699 50 L 700 49 L 701 48 L 702 48 L 703 47 L 704 46 L 705 46 L 706 45 L 707 44 L 708 44 L 709 43 L 710 43 L 711 42 L 712 41 L 713 41 L 714 40 L 715 40 L 716 39 L 717 39 L 718 38 L 719 38 L 720 38 L 721 37 L 722 37 L 723 36 L 724 36 L 725 36 L 726 36 L 727 36 L 728 35 L 729 35 L 730 35 L 731 35 L 732 35 L 733 34 L 734 34 L 735 34 L 736 34 L 737 34 L 738 34 L 739 34 L 740 34 L 741 34 L 742 34 L 743 33 L 744 33 L 745 33 L 746 33 L 747 33 L 748 33 L 749 33 L 750 33 L 751 33 L 752 33 L 753 33 L 754 33 L 755 33 L 756 33 L 757 33 L 758 33 L 759 33 L 760 33 L 761 33 L 762 33 L 763 33 L 764 33 L 765 34 L 766 34 L 767 34 L 768 34 L 769 34 L 770 34 L 771 34 L 772 34 L 773 34 L 774 34 L 775 34 L 776 34 L 777 35 L 778 35 L 779 35 L 780 35 L 781 35 L 782 35 L 783 35 L 784 36 L 785 36 L 786 36 L 787 36 L 788 36 L 789 37 L 790 37 L 791 37 L 792 37 L 793 37 L 794 38 L 795 38 L 796 38 L 797 38 L 798 39 L 799 39 L 800 39 L 801 40 L 802 40 L 803 40 L 804 41 L 805 41 L 806 41 L 807 42 L 808 42 L 809 42 L 810 43 L 811 43 L 812 43 L 813 44 L 814 44 L 815 45 L 816 45 L 817 45 L 818 46 L 819 46 L 820 47 L 821 47 L 822 47 L 823 48 L 824 48 L 825 49 L 826 49 L 827 50 L 828 50 L 829 51 L 830 51 L 831 52 L 832 52 L 833 53 L 834 54 L 835 54 L 836 55 L 837 55 L 838 56 L 839 57 L 840 57 L 841 58 L 842 59 L 843 59 L 844 60 L 845 61 L 846 61 L 847 62 L 848 63 L 849 64 L 850 65 L 851 65 L 852 66 L 853 67 L 854 68 L 855 69 L 856 70 L 857 71 L 858 72 L 859 73 L 860 74 L 861 75 L 862 76 L 863 77 L 864 78 L 865 79 L 866 80 L 867 81 L 868 82 L 869 83 L 869 84 L 870 85 L 871 86 L 872 87 L 873 88 L 873 89 L 874 90 L 875 91 L 876 92 L 876 93 L 877 94 L 878 95 L 879 96 L 879 97 L 880 98 L 881 99 L 881 100 L 882 101 L 883 102 L 883 103 L 884 104 L 885 105 L 886 106 L 887 107 L 887 108 L 888 109 L 889 110 L 890 111 L 891 112 L 892 113 L 893 114 L 894 115 L 894 116 L 895 117 L 896 118 L 897 119 L 898 120 L 899 121 L 900 122 L 901 123 L 902 124 L 903 125 L 904 126 L 905 126 L 906 127 L 907 128 L 908 129 L 909 130 L 910 130 L 911 131 L 912 132 L 913 133 L 914 133 L 915 134 L 916 135 L 917 135 L 918 136 L 919 136 L 920 137 L 921 137 L 922 138 L 923 138 L 924 139 L 925 139 L 926 140 L 927 140 L 928 140 L 929 141 L 930 141 L 931 142 L 932 142 L 933 142 L 934 143 L 935 143 L 936 143 L 937 144 L 938 144 L 939 144 L 940 145 L 941 145 L 942 145 L 943 146 L 944 146 L 945 146 L 946 147 L 947 147 L 948 147 L 949 148 L 950 148 L 950 147 L 949 146 L 949 145 L 948 144 L 948 143 L 947 142 L 947 141 L 946 140 L 946 139 L 945 138 L 945 137 L 944 136 L 944 135 L 943 134 L 943 133 L 942 132 L 942 131 L 941 131 L 940 131 L 939 130 L 938 130 L 937 130 L 936 129 L 935 129 L 934 128 L 933 128 L 932 128 L 931 127 L 930 127 L 929 126 L 928 126 L 927 125 L 926 125 L 925 124 L 924 124 L 923 123 L 922 122 L 921 122 L 920 121 L 919 120 L 918 120 L 917 119 L 916 118 L 915 117 L 914 116 L 913 115 L 912 114 L 911 113 L 910 112 L 909 111 L 909 110 L 908 109 L 907 108 L 906 107 L 906 106 L 905 105 L 904 104 L 904 103 L 903 102 L 902 101 L 902 100 L 901 99 L 900 98 L 900 97 L 899 96 L 898 95 L 898 94 L 897 93 L 897 92 L 896 91 L 895 90 L 895 89 L 894 88 L 893 87 L 893 86 L 892 85 L 891 84 L 891 83 L 890 82 L 890 81 L 889 80 L 888 79 L 888 78 L 887 77 L 886 76 L 886 75 L 885 74 L 885 73 L 884 72 L 883 71 L 883 70 L 882 69 L 882 68 L 881 67 L 880 66 L 880 65 L 879 64 L 878 63 L 878 62 L 877 61 L 876 60 L 875 59 L 875 58 L 874 57 L 873 56 L 872 55 L 871 54 L 871 53 L 870 52 L 869 51 L 868 50 L 867 50 L 866 49 L 865 48 L 864 47 L 863 46 L 862 46 L 861 45 L 860 44 L 859 43 L 858 43 L 857 42 L 856 41 L 855 41 L 854 40 L 853 39 L 852 39 L 851 38 L 850 37 L 849 36 L 848 36 L 847 35 L 846 35 L 845 34 L 844 33 L 843 33 L 842 32 L 841 31 L 840 31 L 839 30 L 838 30 L 837 29 L 836 29 L 835 28 L 834 27 L 833 27 L 832 26 L 831 26 L 830 25 L 829 25 L 828 24 L 827 24 L 826 23 L 825 23 L 824 22 L 823 22 L 822 21 L 821 21 L 820 21 L 819 20 L 818 20 L 817 19 L 816 19 L 815 18 L 814 18 L 813 18 L 812 17 L 811 17 L 810 17 L 809 16 L 808 16 L 807 15 L 806 15 L 805 15 L 804 15 L 803 14 L 802 14 L 801 14 L 800 13 L 799 13 L 798 13 L 797 13 L 796 12 L 795 12 L 794 12 L 793 12 L 792 11 L 791 11 L 790 11 L 789 11 L 788 11 L 787 10 L 786 10 L 785 10 L 784 10 L 783 10 L 782 10 L 781 10 L 780 9 L 779 9 L 778 9 L 777 9 L 776 9 L 775 9 L 774 9 L 773 9 L 772 9 L 771 8 L 770 8 L 769 8 L 768 8 L 767 8 L 766 8 L 765 8 L 764 8 L 763 8 L 762 8 L 761 8 L 760 8 L 759 8 L 758 8 L 757 8 L 756 8 L 755 8 L 754 8 L 753 8 L 752 8 L 751 8 L 750 8 L 749 8 Z" fill="#FF5722" fill-rule="evenodd"/>
</svg>
