<?xml version="1.0" encoding="UTF-8"?>
<svg width="500" height="600" viewBox="0 0 500 600" xmlns="http://www.w3.org/2000/svg">
  <path d="M 100 300 Z
M 236 215 L 235 216 L 234 216 L 233 216 L 232 216 L 231 216 L 230 216 L 229 216 L 228 216 L 227 217 L 226 217 L 225 217 L 224 217 L 223 217 L 222 217 L 221 217 L 220 218 L 219 218 L 218 218 L 217 218 L 216 219 L 215 219 L 214 219 L 213 219 L 212 219 L 211 220 L 210 220 L 209 220 L 208 220 L 207 221 L 206 221 L 205 221 L 204 222 L 203 222 L 202 222 L 201 222 L 200 223 L 199 223 L 198 223 L 197 224 L 196 224 L 195 224 L 194 225 L 193 225 L 192 226 L 191 226 L 190 226 L 189 227 L 188 227 L 187 228 L 186 228 L 185 228 L 184 229 L 183 229 L 182 230 L 181 230 L 180 231 L 179 231 L 178 232 L 177 232 L 176 233 L 175 233 L 174 234 L 173 234 L 172 235 L 171 235 L 170 236 L 169 236 L 168 237 L 167 237 L 166 238 L 165 239 L 164 239 L 163 240 L 162 240 L 161 241 L 160 242 L 159 242 L 158 243 L 157 244 L 156 244 L 155 245 L 154 246 L 153 246 L 152 247 L 151 248 L 150 249 L 149 249 L 148 250 L 147 251 L 146 252 L 145 252 L 144 253 L 143 254 L 142 255 L 141 256 L 140 257 L 139 257 L 138 258 L 137 259 L 136 260 L 135 261 L 134 262 L 133 263 L 132 264 L 131 265 L 130 266 L 129 267 L 128 268 L 127 269 L 126 270 L 125 271 L 124 272 L 123 273 L 122 274 L 122 275 L 121 276 L 120 277 L 119 278 L 118 279 L 117 280 L 116 281 L 116 282 L 115 283 L 114 284 L 113 285 L 113 286 L 112 287 L 111 288 L 110 289 L 110 290 L 109 291 L 108 292 L 108 293 L 107 294 L 106 295 L 106 296 L 105 297 L 105 298 L 104 299 L 103 300 L 102 299 L 102 300 L 103 301 L 103 302 L 104 303 L 104 304 L 105 305 L 105 306 L 106 307 L 106 308 L 107 309 L 108 310 L 108 311 L 109 312 L 110 313 L 110 314 L 111 315 L 112 316 L 112 317 L 113 318 L 114 319 L 114 320 L 115 321 L 116 322 L 117 323 L 117 324 L 118 325 L 119 326 L 120 327 L 120 328 L 121 329 L 122 330 L 123 331 L 124 332 L 125 333 L 126 334 L 127 335 L 127 336 L 128 337 L 129 338 L 130 339 L 131 340 L 132 341 L 133 342 L 134 343 L 135 343 L 136 344 L 137 345 L 138 346 L 139 347 L 140 348 L 141 349 L 142 350 L 143 350 L 144 351 L 145 352 L 146 353 L 147 354 L 148 354 L 149 355 L 150 356 L 151 357 L 152 357 L 153 358 L 154 359 L 155 359 L 156 360 L 157 361 L 158 361 L 159 362 L 160 363 L 161 363 L 162 364 L 163 364 L 164 365 L 165 366 L 166 366 L 167 367 L 168 367 L 169 368 L 170 368 L 171 369 L 172 369 L 173 370 L 174 370 L 175 371 L 176 371 L 177 372 L 178 372 L 179 373 L 180 373 L 181 374 L 182 374 L 183 375 L 184 375 L 185 376 L 186 376 L 187 376 L 188 377 L 189 377 L 190 377 L 191 378 L 192 378 L 193 379 L 194 379 L 195 379 L 196 380 L 197 380 L 198 380 L 199 381 L 200 381 L 201 381 L 202 381 L 203 382 L 204 382 L 205 382 L 206 383 L 207 383 L 208 383 L 209 383 L 210 384 L 211 384 L 212 384 L 213 384 L 214 384 L 215 385 L 216 385 L 217 385 L 218 385 L 219 385 L 220 386 L 221 386 L 222 386 L 223 387 L 223 388 L 223 389 L 223 390 L 223 391 L 223 392 L 223 393 L 222 394 L 222 395 L 222 396 L 222 397 L 222 398 L 222 399 L 222 400 L 222 401 L 222 402 L 221 403 L 221 404 L 221 405 L 221 406 L 221 407 L 221 408 L 221 409 L 221 410 L 221 411 L 220 412 L 220 413 L 220 414 L 220 415 L 220 416 L 220 417 L 220 418 L 220 419 L 220 420 L 219 421 L 219 422 L 219 423 L 219 424 L 219 425 L 219 426 L 219 427 L 219 428 L 219 429 L 218 430 L 218 431 L 218 432 L 218 433 L 218 434 L 218 435 L 218 436 L 218 437 L 218 438 L 217 439 L 217 440 L 217 441 L 217 442 L 217 443 L 217 444 L 217 445 L 217 446 L 217 447 L 216 448 L 216 449 L 216 450 L 216 451 L 216 452 L 216 453 L 216 454 L 216 455 L 216 456 L 215 457 L 215 458 L 215 459 L 215 460 L 215 461 L 215 462 L 215 463 L 215 464 L 215 465 L 214 466 L 214 467 L 214 468 L 214 469 L 214 470 L 214 471 L 214 472 L 214 473 L 214 474 L 213 475 L 213 476 L 213 477 L 213 478 L 213 479 L 213 480 L 213 481 L 213 482 L 213 483 L 212 484 L 212 485 L 212 486 L 212 487 L 212 488 L 212 489 L 212 490 L 212 491 L 212 492 L 212 493 L 211 494 L 211 495 L 211 496 L 211 497 L 211 498 L 211 499 L 211 500 L 211 501 L 211 502 L 210 503 L 210 504 L 210 505 L 210 506 L 210 507 L 210 508 L 210 509 L 210 510 L 210 511 L 209 512 L 209 513 L 209 514 L 209 515 L 209 516 L 209 517 L 209 518 L 209 519 L 209 520 L 208 521 L 208 522 L 209 522 L 210 522 L 211 522 L 212 522 L 213 522 L 214 522 L 215 522 L 216 522 L 217 522 L 218 522 L 219 522 L 220 522 L 221 522 L 222 522 L 223 522 L 224 522 L 225 522 L 226 522 L 227 522 L 228 522 L 229 522 L 230 522 L 231 522 L 232 522 L 233 522 L 234 522 L 235 522 L 236 522 L 237 522 L 238 522 L 239 522 L 240 522 L 241 522 L 242 522 L 243 522 L 244 522 L 245 522 L 246 522 L 247 522 L 248 522 L 249 522 L 250 522 L 251 522 L 252 522 L 253 522 L 254 522 L 255 522 L 256 522 L 257 522 L 258 522 L 259 522 L 260 522 L 261 522 L 262 522 L 263 522 L 264 522 L 265 522 L 266 522 L 267 522 L 268 522 L 269 522 L 270 522 L 271 522 L 272 522 L 273 522 L 274 522 L 275 522 L 276 522 L 277 522 L 278 522 L 279 523 L 279 524 L 280 524 L 281 523 L 282 523 L 283 523 L 284 523 L 285 523 L 286 523 L 287 523 L 286 522 L 286 521 L 285 520 L 285 519 L 285 518 L 285 517 L 285 516 L 285 515 L 285 514 L 285 513 L 285 512 L 285 511 L 285 510 L 285 509 L 284 508 L 284 507 L 284 506 L 284 505 L 284 504 L 284 503 L 284 502 L 284 501 L 284 500 L 284 499 L 284 498 L 284 497 L 283 496 L 283 495 L 283 494 L 283 493 L 283 492 L 283 491 L 283 490 L 283 489 L 283 488 L 283 487 L 283 486 L 283 485 L 283 484 L 282 483 L 282 482 L 282 481 L 282 480 L 282 479 L 282 478 L 282 477 L 282 476 L 282 475 L 282 474 L 282 473 L 282 472 L 281 471 L 281 470 L 281 469 L 281 468 L 281 467 L 281 466 L 281 465 L 281 464 L 281 463 L 281 462 L 281 461 L 281 460 L 280 459 L 280 458 L 280 457 L 280 456 L 280 455 L 280 454 L 280 453 L 280 452 L 280 451 L 280 450 L 280 449 L 280 448 L 280 447 L 279 446 L 279 445 L 279 444 L 279 443 L 279 442 L 279 441 L 279 440 L 279 439 L 279 438 L 279 437 L 279 436 L 279 435 L 278 434 L 278 433 L 278 432 L 278 431 L 278 430 L 278 429 L 278 428 L 278 427 L 278 426 L 278 425 L 278 424 L 278 423 L 277 422 L 277 421 L 277 420 L 277 419 L 277 418 L 277 417 L 277 416 L 277 415 L 277 414 L 277 413 L 277 412 L 277 411 L 276 410 L 276 409 L 276 408 L 276 407 L 276 406 L 276 405 L 276 404 L 276 403 L 276 402 L 276 401 L 276 400 L 276 399 L 276 398 L 276 397 L 276 396 L 276 395 L 276 394 L 276 393 L 276 392 L 276 391 L 276 390 L 276 389 L 275 388 L 275 387 L 276 386 L 277 386 L 278 386 L 279 386 L 280 386 L 281 385 L 282 385 L 283 385 L 284 385 L 285 385 L 286 384 L 287 384 L 288 384 L 289 384 L 290 383 L 291 383 L 292 383 L 293 383 L 294 382 L 295 382 L 296 382 L 297 382 L 298 381 L 299 381 L 300 381 L 301 380 L 302 380 L 303 380 L 304 379 L 305 379 L 306 379 L 307 378 L 308 378 L 309 378 L 310 377 L 311 377 L 312 376 L 313 376 L 314 376 L 315 375 L 316 375 L 317 374 L 318 374 L 319 374 L 320 373 L 321 373 L 322 372 L 323 372 L 324 371 L 325 371 L 326 370 L 327 370 L 328 369 L 329 369 L 330 368 L 331 368 L 332 367 L 333 366 L 334 366 L 335 365 L 336 365 L 337 364 L 338 364 L 339 363 L 340 362 L 341 362 L 342 361 L 343 360 L 344 360 L 345 359 L 346 358 L 347 358 L 348 357 L 349 356 L 350 355 L 351 355 L 352 354 L 353 353 L 354 352 L 355 352 L 356 351 L 357 350 L 358 349 L 359 348 L 360 347 L 361 347 L 362 346 L 363 345 L 364 344 L 365 343 L 366 342 L 367 341 L 368 340 L 369 339 L 370 338 L 371 337 L 372 336 L 373 335 L 374 334 L 375 333 L 376 332 L 376 331 L 377 330 L 378 329 L 379 328 L 380 327 L 381 326 L 381 325 L 382 324 L 383 323 L 384 322 L 384 321 L 385 320 L 386 319 L 387 318 L 387 317 L 388 316 L 389 315 L 389 314 L 390 313 L 391 312 L 391 311 L 392 310 L 392 309 L 393 308 L 394 307 L 394 306 L 395 305 L 395 304 L 396 303 L 396 302 L 397 301 L 397 300 L 398 299 L 399 300 L 399 299 L 398 299 L 397 299 L 396 300 L 395 300 L 394 299 L 394 298 L 393 297 L 393 296 L 392 295 L 391 294 L 391 293 L 390 292 L 389 291 L 389 290 L 388 289 L 387 288 L 387 287 L 386 286 L 385 285 L 384 284 L 383 283 L 383 282 L 382 281 L 381 280 L 380 279 L 379 278 L 379 277 L 378 276 L 377 275 L 376 274 L 375 273 L 374 272 L 373 271 L 372 270 L 371 269 L 371 268 L 370 267 L 369 266 L 368 265 L 367 264 L 366 263 L 365 263 L 364 262 L 363 261 L 362 260 L 361 259 L 360 258 L 359 257 L 358 256 L 357 255 L 356 255 L 355 254 L 354 253 L 353 252 L 352 251 L 351 251 L 350 250 L 349 249 L 348 248 L 347 248 L 346 247 L 345 246 L 344 245 L 343 245 L 342 244 L 341 243 L 340 243 L 339 242 L 338 241 L 337 241 L 336 240 L 335 240 L 334 239 L 333 238 L 332 238 L 331 237 L 330 237 L 329 236 L 328 235 L 327 235 L 326 234 L 325 234 L 324 233 L 323 233 L 322 232 L 321 232 L 320 231 L 319 231 L 318 230 L 317 230 L 316 230 L 315 229 L 314 229 L 313 228 L 312 228 L 311 227 L 310 227 L 309 227 L 308 226 L 307 226 L 306 225 L 305 225 L 304 225 L 303 224 L 302 224 L 301 224 L 300 223 L 299 223 L 298 223 L 297 222 L 296 222 L 295 222 L 294 221 L 293 221 L 292 221 L 291 221 L 290 220 L 289 220 L 288 220 L 287 220 L 286 219 L 285 219 L 284 219 L 283 219 L 282 218 L 281 218 L 280 218 L 279 218 L 278 218 L 277 217 L 276 217 L 275 217 L 274 217 L 273 217 L 272 217 L 271 216 L 270 216 L 269 216 L 268 216 L 267 216 L 266 216 L 265 216 L 264 216 L 263 215 L 262 215 L 261 215 L 260 215 L 259 215 L 258 215 L 257 215 L 256 215 L 255 215 L 254 215 L 253 215 L 252 215 L 251 215 L 250 215 L 249 215 L 248 215 L 247 215 L 246 215 L 245 215 L 244 215 L 243 215 L 242 215 L 241 215 L 240 215 L 239 215 L 238 215 L 237 215 Z
M 249 209 L 249 210 L 248 211 L 249 212 L 249 213 L 249 212 L 250 211 L 249 210 Z
M 236 65 L 235 66 L 234 66 L 233 66 L 232 66 L 231 66 L 230 66 L 229 66 L 228 66 L 227 66 L 226 67 L 225 67 L 224 67 L 223 67 L 222 67 L 221 67 L 220 68 L 219 68 L 218 68 L 217 68 L 216 68 L 215 68 L 214 69 L 213 69 L 212 69 L 211 69 L 210 70 L 209 70 L 208 70 L 207 70 L 206 71 L 205 71 L 204 71 L 203 71 L 202 72 L 201 72 L 200 72 L 199 73 L 198 73 L 197 73 L 196 74 L 195 74 L 194 74 L 193 75 L 192 75 L 191 75 L 190 76 L 189 76 L 188 76 L 187 77 L 186 77 L 185 78 L 184 78 L 183 78 L 182 79 L 181 79 L 180 80 L 179 80 L 178 81 L 177 81 L 176 82 L 175 82 L 174 83 L 173 83 L 172 84 L 171 84 L 170 85 L 169 85 L 168 86 L 167 86 L 166 87 L 165 87 L 164 88 L 163 89 L 162 89 L 161 90 L 160 90 L 159 91 L 158 92 L 157 92 L 156 93 L 155 94 L 154 94 L 153 95 L 152 96 L 151 97 L 150 97 L 149 98 L 148 99 L 147 100 L 146 100 L 145 101 L 144 102 L 143 103 L 142 104 L 141 104 L 140 105 L 139 106 L 138 107 L 137 108 L 136 109 L 135 110 L 134 111 L 133 112 L 132 112 L 132 113 L 131 114 L 130 115 L 129 116 L 128 117 L 127 118 L 126 119 L 125 120 L 124 121 L 123 122 L 122 123 L 121 124 L 121 125 L 120 126 L 119 127 L 118 128 L 117 129 L 117 130 L 116 131 L 115 132 L 114 133 L 114 134 L 113 135 L 112 136 L 112 137 L 111 138 L 110 139 L 110 140 L 109 141 L 108 142 L 108 143 L 107 144 L 107 145 L 106 146 L 105 147 L 105 148 L 104 149 L 104 150 L 103 151 L 103 152 L 102 153 L 102 154 L 101 155 L 100 156 L 100 157 L 100 158 L 99 159 L 99 160 L 98 161 L 98 162 L 97 163 L 97 164 L 96 165 L 96 166 L 96 167 L 95 168 L 95 169 L 94 170 L 94 171 L 94 172 L 93 173 L 93 174 L 93 175 L 92 176 L 92 177 L 92 178 L 91 179 L 91 180 L 91 181 L 90 182 L 90 183 L 90 184 L 90 185 L 89 186 L 89 187 L 89 188 L 89 189 L 88 190 L 88 191 L 88 192 L 88 193 L 87 194 L 87 195 L 87 196 L 87 197 L 87 198 L 86 199 L 86 200 L 86 201 L 86 202 L 86 203 L 86 204 L 86 205 L 85 206 L 85 207 L 85 208 L 85 209 L 85 210 L 85 211 L 85 212 L 85 213 L 85 214 L 85 215 L 84 216 L 84 217 L 84 218 L 84 219 L 84 220 L 84 221 L 84 222 L 84 223 L 84 224 L 84 225 L 84 226 L 84 227 L 84 228 L 84 229 L 84 230 L 84 231 L 84 232 L 84 233 L 84 234 L 84 235 L 84 236 L 85 237 L 85 238 L 85 239 L 85 240 L 85 241 L 85 242 L 85 243 L 85 244 L 85 245 L 85 246 L 86 247 L 86 248 L 86 249 L 86 250 L 86 251 L 86 252 L 86 253 L 87 254 L 87 255 L 87 256 L 87 257 L 87 258 L 88 259 L 88 260 L 88 261 L 88 262 L 88 263 L 89 264 L 89 265 L 89 266 L 89 267 L 90 268 L 90 269 L 90 270 L 91 271 L 91 272 L 91 273 L 91 274 L 92 275 L 92 276 L 93 277 L 93 278 L 93 279 L 94 280 L 94 281 L 94 282 L 95 283 L 95 284 L 95 285 L 96 286 L 96 287 L 97 288 L 97 289 L 98 290 L 98 291 L 98 292 L 99 293 L 100 293 L 100 292 L 101 291 L 101 290 L 102 289 L 103 288 L 104 287 L 104 286 L 105 285 L 106 284 L 106 283 L 107 282 L 108 281 L 109 280 L 109 279 L 110 278 L 111 277 L 112 276 L 113 275 L 113 274 L 114 273 L 115 272 L 116 271 L 117 270 L 118 269 L 119 268 L 120 267 L 120 266 L 121 265 L 122 264 L 123 263 L 124 262 L 125 261 L 126 260 L 127 259 L 128 258 L 129 257 L 130 256 L 131 256 L 132 255 L 133 254 L 134 253 L 135 252 L 136 251 L 137 250 L 138 249 L 139 249 L 140 248 L 141 247 L 142 246 L 143 245 L 144 245 L 145 244 L 146 243 L 147 242 L 148 242 L 149 241 L 150 240 L 151 239 L 152 239 L 153 238 L 154 237 L 155 237 L 156 236 L 157 235 L 158 235 L 159 234 L 160 234 L 161 233 L 162 232 L 163 232 L 164 231 L 165 231 L 166 230 L 167 229 L 168 229 L 169 228 L 170 228 L 171 227 L 172 227 L 173 226 L 174 226 L 175 225 L 176 225 L 177 224 L 178 224 L 179 223 L 180 223 L 181 223 L 182 222 L 183 222 L 184 221 L 185 221 L 186 220 L 187 220 L 188 220 L 189 219 L 190 219 L 191 218 L 192 218 L 193 218 L 194 217 L 195 217 L 196 217 L 197 216 L 198 216 L 199 216 L 200 215 L 201 215 L 202 215 L 203 214 L 204 214 L 205 214 L 206 214 L 207 213 L 208 213 L 209 213 L 210 213 L 211 212 L 212 212 L 213 212 L 214 212 L 215 212 L 216 211 L 217 211 L 218 211 L 219 211 L 220 210 L 221 210 L 222 210 L 223 210 L 224 210 L 225 210 L 226 210 L 227 209 L 228 209 L 229 209 L 230 209 L 231 209 L 232 209 L 233 209 L 234 208 L 235 208 L 236 208 L 237 208 L 238 208 L 239 208 L 240 208 L 241 208 L 242 208 L 243 208 L 244 208 L 245 208 L 246 208 L 247 207 L 248 207 L 249 207 L 250 207 L 251 207 L 252 208 L 253 208 L 254 208 L 255 208 L 256 208 L 257 208 L 258 208 L 259 208 L 260 208 L 261 208 L 262 208 L 263 208 L 264 208 L 265 209 L 266 209 L 267 209 L 268 209 L 269 209 L 270 209 L 271 209 L 272 209 L 273 210 L 274 210 L 275 210 L 276 210 L 277 210 L 278 210 L 279 211 L 280 211 L 281 211 L 282 211 L 283 211 L 284 212 L 285 212 L 286 212 L 287 212 L 288 213 L 289 213 L 290 213 L 291 213 L 292 214 L 293 214 L 294 214 L 295 214 L 296 215 L 297 215 L 298 215 L 299 216 L 300 216 L 301 216 L 302 217 L 303 217 L 304 217 L 305 218 L 306 218 L 307 218 L 308 219 L 309 219 L 310 219 L 311 220 L 312 220 L 313 221 L 314 221 L 315 221 L 316 222 L 317 222 L 318 223 L 319 223 L 320 224 L 321 224 L 322 225 L 323 225 L 324 226 L 325 226 L 326 227 L 327 227 L 328 228 L 329 228 L 330 229 L 331 229 L 332 230 L 333 230 L 334 231 L 335 232 L 336 232 L 337 233 L 338 233 L 339 234 L 340 235 L 341 235 L 342 236 L 343 236 L 344 237 L 345 238 L 346 238 L 347 239 L 348 240 L 349 241 L 350 241 L 351 242 L 352 243 L 353 244 L 354 244 L 355 245 L 356 246 L 357 247 L 358 247 L 359 248 L 360 249 L 361 250 L 362 251 L 363 252 L 364 252 L 365 253 L 366 254 L 367 255 L 368 256 L 369 257 L 370 258 L 371 259 L 372 260 L 373 261 L 374 262 L 375 263 L 376 264 L 377 265 L 378 266 L 379 267 L 380 268 L 381 269 L 382 270 L 382 271 L 383 272 L 384 273 L 385 274 L 386 275 L 387 276 L 387 277 L 388 278 L 389 279 L 390 280 L 390 281 L 391 282 L 392 283 L 393 284 L 393 285 L 394 286 L 395 287 L 396 288 L 396 289 L 397 290 L 398 291 L 398 292 L 399 293 L 399 294 L 400 294 L 401 293 L 401 292 L 401 291 L 402 290 L 402 289 L 403 288 L 403 287 L 404 286 L 404 285 L 404 284 L 405 283 L 405 282 L 406 281 L 406 280 L 406 279 L 407 278 L 407 277 L 407 276 L 408 275 L 408 274 L 408 273 L 409 272 L 409 271 L 409 270 L 409 269 L 410 268 L 410 267 L 410 266 L 410 265 L 411 264 L 411 263 L 411 262 L 411 261 L 412 260 L 412 259 L 412 258 L 412 257 L 412 256 L 413 255 L 413 254 L 413 253 L 413 252 L 413 251 L 414 250 L 414 249 L 414 248 L 414 247 L 414 246 L 414 245 L 414 244 L 414 243 L 415 242 L 415 241 L 415 240 L 415 239 L 415 238 L 415 237 L 415 236 L 415 235 L 415 234 L 415 233 L 415 232 L 415 231 L 415 230 L 415 229 L 415 228 L 415 227 L 415 226 L 415 225 L 415 224 L 415 223 L 415 222 L 415 221 L 415 220 L 415 219 L 415 218 L 415 217 L 415 216 L 415 215 L 415 214 L 415 213 L 415 212 L 415 211 L 414 210 L 414 209 L 414 208 L 414 207 L 414 206 L 414 205 L 414 204 L 414 203 L 413 202 L 413 201 L 413 200 L 413 199 L 413 198 L 413 197 L 412 196 L 412 195 L 412 194 L 412 193 L 412 192 L 411 191 L 411 190 L 411 189 L 411 188 L 410 187 L 410 186 L 410 185 L 410 184 L 409 183 L 409 182 L 409 181 L 408 180 L 408 179 L 408 178 L 407 177 L 407 176 L 407 175 L 406 174 L 406 173 L 406 172 L 405 171 L 405 170 L 405 169 L 404 168 L 404 167 L 403 166 L 403 165 L 403 164 L 402 163 L 402 162 L 401 161 L 401 160 L 400 159 L 400 158 L 399 157 L 399 156 L 398 155 L 398 154 L 397 153 L 397 152 L 396 151 L 396 150 L 395 149 L 395 148 L 394 147 L 393 146 L 393 145 L 392 144 L 392 143 L 391 142 L 390 141 L 390 140 L 389 139 L 388 138 L 388 137 L 387 136 L 386 135 L 386 134 L 385 133 L 384 132 L 384 131 L 383 130 L 382 129 L 381 128 L 380 127 L 380 126 L 379 125 L 378 124 L 377 123 L 376 122 L 375 121 L 375 120 L 374 119 L 373 118 L 372 117 L 371 116 L 370 115 L 369 114 L 368 113 L 367 112 L 366 111 L 365 110 L 364 109 L 363 108 L 362 107 L 361 107 L 360 106 L 359 105 L 358 104 L 357 103 L 356 102 L 355 102 L 354 101 L 353 100 L 352 99 L 351 98 L 350 98 L 349 97 L 348 96 L 347 96 L 346 95 L 345 94 L 344 93 L 343 93 L 342 92 L 341 91 L 340 91 L 339 90 L 338 90 L 337 89 L 336 88 L 335 88 L 334 87 L 333 87 L 332 86 L 331 86 L 330 85 L 329 84 L 328 84 L 327 83 L 326 83 L 325 82 L 324 82 L 323 81 L 322 81 L 321 80 L 320 80 L 319 80 L 318 79 L 317 79 L 316 78 L 315 78 L 314 77 L 313 77 L 312 77 L 311 76 L 310 76 L 309 76 L 308 75 L 307 75 L 306 74 L 305 74 L 304 74 L 303 73 L 302 73 L 301 73 L 300 72 L 299 72 L 298 72 L 297 72 L 296 71 L 295 71 L 294 71 L 293 70 L 292 70 L 291 70 L 290 70 L 289 69 L 288 69 L 287 69 L 286 69 L 285 69 L 284 68 L 283 68 L 282 68 L 281 68 L 280 68 L 279 67 L 278 67 L 277 67 L 276 67 L 275 67 L 274 67 L 273 66 L 272 66 L 271 66 L 270 66 L 269 66 L 268 66 L 267 66 L 266 66 L 265 66 L 264 66 L 263 65 L 262 65 L 261 65 L 260 65 L 259 65 L 258 65 L 257 65 L 256 65 L 255 65 L 254 65 L 253 65 L 252 65 L 251 65 L 250 65 L 249 65 L 248 65 L 247 65 L 246 65 L 245 65 L 244 65 L 243 65 L 242 65 L 241 65 L 240 65 L 239 65 L 238 65 L 237 65 Z" fill="#FF5722" fill-rule="evenodd"/>
</svg>
